SplineFontDB: 3.2
FontName: Famirids
FullName: Famirids
FamilyName: Famirids
Weight: Book
Copyright: Typeface (c) (your company). 2014. All Rights Reserved
Version: 1.00 February 25, 2014, initial release
ItalicAngle: 0
UnderlinePosition: -292
UnderlineWidth: 150
Ascent: 1638
Descent: 410
InvalidEm: 0
sfntRevision: 0x00010000
LayerCount: 2
Layer: 0 1 "Hinten" 1
Layer: 1 1 "Vorne" 0
XUID: [1021 771 2081685371 25245]
StyleMap: 0x0040
FSType: 8
OS2Version: 3
OS2_WeightWidthSlopeOnly: 0
OS2_UseTypoMetrics: 0
CreationTime: 1393290368
ModificationTime: 1586279906
PfmFamily: 17
TTFWeight: 400
TTFWidth: 5
LineGap: 222
VLineGap: 0
Panose: 2 0 5 0 0 0 0 0 0 0
OS2TypoAscent: 1434
OS2TypoAOffset: 0
OS2TypoDescent: -410
OS2TypoDOffset: 0
OS2TypoLinegap: 205
OS2WinAscent: 1716
OS2WinAOffset: 0
OS2WinDescent: 418
OS2WinDOffset: 0
HheadAscent: 1716
HheadAOffset: 0
HheadDescent: -418
HheadDOffset: 0
OS2SubXSize: 1434
OS2SubYSize: 1331
OS2SubXOff: 0
OS2SubYOff: 283
OS2SupXSize: 1434
OS2SupYSize: 1331
OS2SupXOff: 0
OS2SupYOff: 977
OS2StrikeYSize: 102
OS2StrikeYPos: 530
OS2CapHeight: 1434
OS2XHeight: 1024
OS2Vendor: 'HL  '
OS2CodePages: 20000111.41000000
OS2UnicodeRanges: 800000a7.5000004a.00000000.00000000
DEI: 91125
ShortTable: maxp 16
  1
  0
  106
  456
  113
  0
  0
  0
  0
  0
  0
  0
  0
  0
  0
  0
EndShort
LangName: 1033 "Typeface +AKkA (your company). 2014. All Rights Reserved" "" "Regular" "Famirids:Version 1.00" "" "Version 1.00 February 25, 2014, initial release" "" "" "" "" "This font was created using FontCreator 6.5 from High-Logic.com"
LangName: 1027 "" "" "Normal"
LangName: 1029 "" "" "oby+AQ0A-ejn+AOkA"
LangName: 1030 "" "" "normal"
LangName: 1031 "" "" "Standard"
LangName: 1032 "" "" "+A5oDsQO9A78DvQO5A7oDrAAA"
LangName: 1034 "" "" "Normal"
LangName: 1035 "" "" "Normaali"
LangName: 1036 "" "" "Normal"
LangName: 1038 "" "" "Norm+AOEA-l"
LangName: 1040 "" "" "Normale"
LangName: 1043 "" "" "Standaard"
LangName: 1044 "" "" "Normal"
LangName: 1045 "" "" "Normalny"

StartChar: .notdef
Encoding: 65536 -1 0
Width: 1270
Flags: W
LayerCount: 2
Fore
SplineSet
0 1434 m 1,0,-1
 1275 1434 l 1,1,-1
 1275 0 l 1,2,-1
 0 0 l 1,3,-1
 0 1434 l 1,0,-1
4 1430 m 1,4,-1
 4 1275 l 1,5,-1
 159 1275 l 1,6,-1
 159 1430 l 1,7,-1
 4 1430 l 1,4,-1
163 1430 m 1,8,-1
 163 1275 l 1,9,-1
 317 1275 l 1,10,-1
 317 1430 l 1,11,-1
 163 1430 l 1,8,-1
322 1430 m 1,12,-1
 322 1275 l 1,13,-1
 477 1275 l 1,14,-1
 477 1430 l 1,15,-1
 322 1430 l 1,12,-1
481 1430 m 1,16,-1
 481 1275 l 1,17,-1
 635 1275 l 1,18,-1
 635 1430 l 1,19,-1
 481 1430 l 1,16,-1
639 1430 m 1,20,-1
 639 1275 l 1,21,-1
 794 1275 l 1,22,-1
 794 1430 l 1,23,-1
 639 1430 l 1,20,-1
798 1430 m 1,24,-1
 798 1275 l 1,25,-1
 952 1275 l 1,26,-1
 952 1430 l 1,27,-1
 798 1430 l 1,24,-1
957 1430 m 1,28,-1
 957 1275 l 1,29,-1
 1112 1275 l 1,30,-1
 1112 1430 l 1,31,-1
 957 1430 l 1,28,-1
1116 1430 m 1,32,-1
 1116 1275 l 1,33,-1
 1270 1275 l 1,34,-1
 1270 1430 l 1,35,-1
 1116 1430 l 1,32,-1
4 1271 m 1,36,-1
 4 1117 l 1,37,-1
 159 1117 l 1,38,-1
 159 1271 l 1,39,-1
 4 1271 l 1,36,-1
163 1271 m 1,40,-1
 163 1117 l 1,41,-1
 317 1117 l 1,42,-1
 317 1271 l 1,43,-1
 163 1271 l 1,40,-1
322 1271 m 1,44,-1
 322 1117 l 1,45,-1
 477 1117 l 1,46,-1
 477 1271 l 1,47,-1
 322 1271 l 1,44,-1
481 1271 m 1,48,-1
 481 1117 l 1,49,-1
 635 1117 l 1,50,-1
 635 1271 l 1,51,-1
 481 1271 l 1,48,-1
639 1271 m 1,52,-1
 639 1117 l 1,53,-1
 794 1117 l 1,54,-1
 794 1271 l 1,55,-1
 639 1271 l 1,52,-1
798 1271 m 1,56,-1
 798 1117 l 1,57,-1
 952 1117 l 1,58,-1
 952 1271 l 1,59,-1
 798 1271 l 1,56,-1
957 1271 m 1,60,-1
 957 1117 l 1,61,-1
 1112 1117 l 1,62,-1
 1112 1271 l 1,63,-1
 957 1271 l 1,60,-1
1116 1271 m 1,64,-1
 1116 1117 l 1,65,-1
 1270 1117 l 1,66,-1
 1270 1271 l 1,67,-1
 1116 1271 l 1,64,-1
15 1261 m 1,68,-1
 148 1261 l 1,69,-1
 148 1127 l 1,70,-1
 15 1127 l 1,71,-1
 15 1261 l 1,68,-1
175 1261 m 2,72,-1
 307 1261 l 1,73,-1
 307 1127 l 1,74,-1
 173 1127 l 1,75,-1
 173 1259 l 2,76,77
 174 1261 174 1261 175 1261 c 2,72,-1
333 1261 m 1,78,-1
 465 1261 l 1,79,-1
 465 1127 l 1,80,-1
 333 1127 l 1,81,-1
 333 1261 l 1,78,-1
491 1261 m 1,82,-1
 625 1261 l 1,83,-1
 625 1127 l 1,84,-1
 491 1127 l 1,85,-1
 491 1261 l 1,82,-1
650 1261 m 1,86,-1
 783 1261 l 1,87,-1
 783 1127 l 1,88,-1
 650 1127 l 1,89,-1
 650 1261 l 1,86,-1
809 1261 m 1,90,-1
 942 1261 l 1,91,-1
 942 1127 l 1,92,-1
 809 1127 l 1,93,-1
 809 1261 l 1,90,-1
968 1261 m 1,94,-1
 1100 1261 l 2,95,96
 1101 1260 1101 1260 1101 1259 c 2,97,-1
 1101 1127 l 1,98,-1
 968 1127 l 1,99,-1
 968 1261 l 1,94,-1
4 1112 m 1,100,-1
 4 957 l 1,101,-1
 159 957 l 1,102,-1
 159 1112 l 1,103,-1
 4 1112 l 1,100,-1
163 1112 m 1,104,-1
 163 957 l 1,105,-1
 317 957 l 1,106,-1
 317 1112 l 1,107,-1
 163 1112 l 1,104,-1
322 1112 m 1,108,-1
 322 957 l 1,109,-1
 477 957 l 1,110,-1
 477 1112 l 1,111,-1
 322 1112 l 1,108,-1
481 1112 m 1,112,-1
 481 957 l 1,113,-1
 635 957 l 1,114,-1
 635 1112 l 1,115,-1
 481 1112 l 1,112,-1
639 1112 m 1,116,-1
 639 957 l 1,117,-1
 794 957 l 1,118,-1
 794 1112 l 1,119,-1
 639 1112 l 1,116,-1
798 1112 m 1,120,-1
 798 957 l 1,121,-1
 952 957 l 1,122,-1
 952 1112 l 1,123,-1
 798 1112 l 1,120,-1
957 1112 m 1,124,-1
 957 957 l 1,125,-1
 1112 957 l 1,126,-1
 1112 1112 l 1,127,-1
 957 1112 l 1,124,-1
1116 1112 m 1,128,-1
 1116 957 l 1,129,-1
 1270 957 l 1,130,-1
 1270 1112 l 1,131,-1
 1116 1112 l 1,128,-1
15 1101 m 1,132,-1
 148 1101 l 1,133,-1
 148 968 l 1,134,-1
 15 968 l 1,135,-1
 15 1101 l 1,132,-1
173 1101 m 1,136,-1
 307 1101 l 1,137,-1
 307 968 l 1,138,-1
 173 968 l 1,139,-1
 173 1101 l 1,136,-1
809 1101 m 1,140,-1
 942 1101 l 1,141,-1
 942 968 l 1,142,-1
 809 968 l 1,143,-1
 809 1101 l 1,140,-1
968 1101 m 1,144,-1
 1101 1101 l 1,145,-1
 1101 968 l 1,146,-1
 968 968 l 1,147,-1
 968 1101 l 1,144,-1
4 953 m 1,148,-1
 4 799 l 1,149,-1
 159 799 l 1,150,-1
 159 953 l 1,151,-1
 4 953 l 1,148,-1
163 953 m 1,152,-1
 163 799 l 1,153,-1
 317 799 l 1,154,-1
 317 953 l 1,155,-1
 163 953 l 1,152,-1
322 953 m 1,156,-1
 322 799 l 1,157,-1
 477 799 l 1,158,-1
 477 953 l 1,159,-1
 322 953 l 1,156,-1
481 953 m 1,160,-1
 481 799 l 1,161,-1
 635 799 l 1,162,-1
 635 953 l 1,163,-1
 481 953 l 1,160,-1
639 953 m 1,164,-1
 639 799 l 1,165,-1
 794 799 l 1,166,-1
 794 953 l 1,167,-1
 639 953 l 1,164,-1
798 953 m 1,168,-1
 798 799 l 1,169,-1
 952 799 l 1,170,-1
 952 953 l 1,171,-1
 798 953 l 1,168,-1
957 953 m 1,172,-1
 957 799 l 1,173,-1
 1112 799 l 1,174,-1
 1112 953 l 1,175,-1
 957 953 l 1,172,-1
1116 953 m 1,176,-1
 1116 799 l 1,177,-1
 1270 799 l 1,178,-1
 1270 953 l 1,179,-1
 1116 953 l 1,176,-1
15 943 m 1,180,-1
 148 943 l 1,181,-1
 148 809 l 1,182,-1
 15 809 l 1,183,-1
 15 943 l 1,180,-1
333 943 m 1,184,-1
 465 943 l 1,185,-1
 465 809 l 1,186,-1
 333 809 l 1,187,-1
 333 943 l 1,184,-1
650 943 m 1,188,-1
 783 943 l 1,189,-1
 783 809 l 1,190,-1
 650 809 l 1,191,-1
 650 943 l 1,188,-1
968 943 m 1,192,-1
 1101 943 l 1,193,-1
 1101 809 l 1,194,-1
 968 809 l 1,195,-1
 968 943 l 1,192,-1
4 795 m 1,196,-1
 4 639 l 1,197,-1
 159 639 l 1,198,-1
 159 795 l 1,199,-1
 4 795 l 1,196,-1
163 795 m 1,200,-1
 163 639 l 1,201,-1
 317 639 l 1,202,-1
 317 795 l 1,203,-1
 163 795 l 1,200,-1
322 795 m 1,204,-1
 322 639 l 1,205,-1
 477 639 l 1,206,-1
 477 795 l 1,207,-1
 322 795 l 1,204,-1
481 795 m 1,208,-1
 481 639 l 1,209,-1
 635 639 l 1,210,-1
 635 795 l 1,211,-1
 481 795 l 1,208,-1
639 795 m 1,212,-1
 639 639 l 1,213,-1
 794 639 l 1,214,-1
 794 795 l 1,215,-1
 639 795 l 1,212,-1
798 795 m 1,216,-1
 798 639 l 1,217,-1
 952 639 l 1,218,-1
 952 795 l 1,219,-1
 798 795 l 1,216,-1
957 795 m 1,220,-1
 957 639 l 1,221,-1
 1112 639 l 1,222,-1
 1112 795 l 1,223,-1
 957 795 l 1,220,-1
1116 795 m 1,224,-1
 1116 639 l 1,225,-1
 1270 639 l 1,226,-1
 1270 795 l 1,227,-1
 1116 795 l 1,224,-1
15 783 m 1,228,-1
 148 783 l 1,229,-1
 148 651 l 1,230,-1
 15 651 l 1,231,-1
 15 783 l 1,228,-1
491 783 m 1,232,-1
 625 783 l 1,233,-1
 625 651 l 1,234,-1
 491 651 l 1,235,-1
 491 783 l 1,232,-1
968 783 m 1,236,-1
 1101 783 l 1,237,-1
 1101 651 l 1,238,-1
 968 651 l 1,239,-1
 968 783 l 1,236,-1
4 635 m 1,240,-1
 4 481 l 1,241,-1
 159 481 l 1,242,-1
 159 635 l 1,243,-1
 4 635 l 1,240,-1
163 635 m 1,244,-1
 163 481 l 1,245,-1
 317 481 l 1,246,-1
 317 635 l 1,247,-1
 163 635 l 1,244,-1
322 635 m 1,248,-1
 322 481 l 1,249,-1
 477 481 l 1,250,-1
 477 635 l 1,251,-1
 322 635 l 1,248,-1
481 635 m 1,252,-1
 481 481 l 1,253,-1
 635 481 l 1,254,-1
 635 635 l 1,255,-1
 481 635 l 1,252,-1
639 635 m 1,256,-1
 639 481 l 1,257,-1
 794 481 l 1,258,-1
 794 635 l 1,259,-1
 639 635 l 1,256,-1
798 635 m 1,260,-1
 798 481 l 1,261,-1
 952 481 l 1,262,-1
 952 635 l 1,263,-1
 798 635 l 1,260,-1
957 635 m 1,264,-1
 957 481 l 1,265,-1
 1112 481 l 1,266,-1
 1112 635 l 1,267,-1
 957 635 l 1,264,-1
1116 635 m 1,268,-1
 1116 481 l 1,269,-1
 1270 481 l 1,270,-1
 1270 635 l 1,271,-1
 1116 635 l 1,268,-1
15 625 m 1,272,-1
 148 625 l 1,273,-1
 148 491 l 1,274,-1
 15 491 l 1,275,-1
 15 625 l 1,272,-1
333 625 m 1,276,-1
 465 625 l 1,277,-1
 465 491 l 1,278,-1
 333 491 l 1,279,-1
 333 625 l 1,276,-1
650 625 m 1,280,-1
 783 625 l 1,281,-1
 783 491 l 1,282,-1
 650 491 l 1,283,-1
 650 625 l 1,280,-1
968 625 m 1,284,-1
 1101 625 l 1,285,-1
 1101 491 l 1,286,-1
 968 491 l 1,287,-1
 968 625 l 1,284,-1
4 477 m 1,288,-1
 4 322 l 1,289,-1
 159 322 l 1,290,-1
 159 477 l 1,291,-1
 4 477 l 1,288,-1
163 477 m 1,292,-1
 163 322 l 1,293,-1
 317 322 l 1,294,-1
 317 477 l 1,295,-1
 163 477 l 1,292,-1
322 477 m 1,296,-1
 322 322 l 1,297,-1
 477 322 l 1,298,-1
 477 477 l 1,299,-1
 322 477 l 1,296,-1
481 477 m 1,300,-1
 481 322 l 1,301,-1
 635 322 l 1,302,-1
 635 477 l 1,303,-1
 481 477 l 1,300,-1
639 477 m 1,304,-1
 639 322 l 1,305,-1
 794 322 l 1,306,-1
 794 477 l 1,307,-1
 639 477 l 1,304,-1
798 477 m 1,308,-1
 798 322 l 1,309,-1
 952 322 l 1,310,-1
 952 477 l 1,311,-1
 798 477 l 1,308,-1
957 477 m 1,312,-1
 957 322 l 1,313,-1
 1112 322 l 1,314,-1
 1112 477 l 1,315,-1
 957 477 l 1,312,-1
1116 477 m 1,316,-1
 1116 322 l 1,317,-1
 1270 322 l 1,318,-1
 1270 477 l 1,319,-1
 1116 477 l 1,316,-1
15 466 m 1,320,-1
 148 466 l 1,321,-1
 148 333 l 1,322,-1
 15 333 l 1,323,-1
 15 466 l 1,320,-1
173 466 m 1,324,-1
 307 466 l 1,325,-1
 307 333 l 1,326,-1
 173 333 l 1,327,-1
 173 466 l 1,324,-1
809 466 m 1,328,-1
 942 466 l 1,329,-1
 942 333 l 1,330,-1
 809 333 l 1,331,-1
 809 466 l 1,328,-1
968 466 m 1,332,-1
 1101 466 l 1,333,-1
 1101 333 l 1,334,-1
 968 333 l 1,335,-1
 968 466 l 1,332,-1
4 317 m 1,336,-1
 4 163 l 1,337,-1
 159 163 l 1,338,-1
 159 317 l 1,339,-1
 4 317 l 1,336,-1
163 317 m 1,340,-1
 163 163 l 1,341,-1
 317 163 l 1,342,-1
 317 317 l 1,343,-1
 163 317 l 1,340,-1
322 317 m 1,344,-1
 322 163 l 1,345,-1
 477 163 l 1,346,-1
 477 317 l 1,347,-1
 322 317 l 1,344,-1
481 317 m 1,348,-1
 481 163 l 1,349,-1
 635 163 l 1,350,-1
 635 317 l 1,351,-1
 481 317 l 1,348,-1
639 317 m 1,352,-1
 639 163 l 1,353,-1
 794 163 l 1,354,-1
 794 317 l 1,355,-1
 639 317 l 1,352,-1
798 317 m 1,356,-1
 798 163 l 1,357,-1
 952 163 l 1,358,-1
 952 317 l 1,359,-1
 798 317 l 1,356,-1
957 317 m 1,360,-1
 957 163 l 1,361,-1
 1112 163 l 1,362,-1
 1112 317 l 1,363,-1
 957 317 l 1,360,-1
1116 317 m 1,364,-1
 1116 163 l 1,365,-1
 1270 163 l 1,366,-1
 1270 317 l 1,367,-1
 1116 317 l 1,364,-1
15 307 m 1,368,-1
 148 307 l 1,369,-1
 148 173 l 1,370,-1
 15 173 l 1,371,-1
 15 307 l 1,368,-1
173 307 m 1,372,-1
 307 307 l 1,373,-1
 307 173 l 1,374,-1
 175 173 l 2,375,376
 173 173 173 173 173 175 c 2,377,-1
 173 307 l 1,372,-1
333 307 m 1,378,-1
 465 307 l 1,379,-1
 465 173 l 1,380,-1
 333 173 l 1,381,-1
 333 307 l 1,378,-1
491 307 m 1,382,-1
 625 307 l 1,383,-1
 625 173 l 1,384,-1
 491 173 l 1,385,-1
 491 307 l 1,382,-1
650 307 m 1,386,-1
 783 307 l 1,387,-1
 783 173 l 1,388,-1
 650 173 l 1,389,-1
 650 307 l 1,386,-1
809 307 m 1,390,-1
 942 307 l 1,391,-1
 942 173 l 1,392,-1
 809 173 l 1,393,-1
 809 307 l 1,390,-1
968 307 m 1,394,-1
 1101 307 l 1,395,-1
 1101 175 l 2,396,397
 1101 173 1101 173 1100 173 c 2,398,-1
 968 173 l 1,399,-1
 968 307 l 1,394,-1
4 159 m 1,400,-1
 4 4 l 1,401,-1
 159 4 l 1,402,-1
 159 159 l 1,403,-1
 4 159 l 1,400,-1
163 159 m 1,404,-1
 163 4 l 1,405,-1
 317 4 l 1,406,-1
 317 159 l 1,407,-1
 163 159 l 1,404,-1
322 159 m 1,408,-1
 322 4 l 1,409,-1
 477 4 l 1,410,-1
 477 159 l 1,411,-1
 322 159 l 1,408,-1
481 159 m 1,412,-1
 481 4 l 1,413,-1
 635 4 l 1,414,-1
 635 159 l 1,415,-1
 481 159 l 1,412,-1
639 159 m 1,416,-1
 639 4 l 1,417,-1
 794 4 l 1,418,-1
 794 159 l 1,419,-1
 639 159 l 1,416,-1
798 159 m 1,420,-1
 798 4 l 1,421,-1
 952 4 l 1,422,-1
 952 159 l 1,423,-1
 798 159 l 1,420,-1
957 159 m 1,424,-1
 957 4 l 1,425,-1
 1112 4 l 1,426,-1
 1112 159 l 1,427,-1
 957 159 l 1,424,-1
1116 159 m 1,428,-1
 1116 4 l 1,429,-1
 1270 4 l 1,430,-1
 1270 159 l 1,431,-1
 1116 159 l 1,428,-1
EndSplineSet
EndChar

StartChar: space
Encoding: 32 32 3
AltUni2: 0000a0.ffffffff.0
Width: 477
Flags: W
LayerCount: 2
Fore
SplineSet
0 1434 m 1,0,-1
 481 1434 l 1,1,-1
 481 0 l 1,2,-1
 0 0 l 1,3,-1
 0 1434 l 1,0,-1
4 1430 m 1,4,-1
 4 1276 l 1,5,-1
 159 1276 l 1,6,-1
 159 1430 l 1,7,-1
 4 1430 l 1,4,-1
163 1430 m 1,8,-1
 163 1276 l 1,9,-1
 318 1276 l 1,10,-1
 318 1430 l 1,11,-1
 163 1430 l 1,8,-1
322 1430 m 1,12,-1
 322 1276 l 1,13,-1
 477 1276 l 1,14,-1
 477 1430 l 1,15,-1
 322 1430 l 1,12,-1
4 1271 m 1,16,-1
 4 1117 l 1,17,-1
 159 1117 l 1,18,-1
 159 1271 l 1,19,-1
 4 1271 l 1,16,-1
163 1271 m 1,20,-1
 163 1117 l 1,21,-1
 318 1117 l 1,22,-1
 318 1271 l 1,23,-1
 163 1271 l 1,20,-1
322 1271 m 1,24,-1
 322 1117 l 1,25,-1
 477 1117 l 1,26,-1
 477 1271 l 1,27,-1
 322 1271 l 1,24,-1
4 1112 m 1,28,-1
 4 958 l 1,29,-1
 159 958 l 1,30,-1
 159 1112 l 1,31,-1
 4 1112 l 1,28,-1
163 1112 m 1,32,-1
 163 958 l 1,33,-1
 318 958 l 1,34,-1
 318 1112 l 1,35,-1
 163 1112 l 1,32,-1
322 1112 m 1,36,-1
 322 958 l 1,37,-1
 477 958 l 1,38,-1
 477 1112 l 1,39,-1
 322 1112 l 1,36,-1
4 953 m 1,40,-1
 4 799 l 1,41,-1
 159 799 l 1,42,-1
 159 953 l 1,43,-1
 4 953 l 1,40,-1
163 953 m 1,44,-1
 163 799 l 1,45,-1
 318 799 l 1,46,-1
 318 953 l 1,47,-1
 163 953 l 1,44,-1
322 953 m 1,48,-1
 322 799 l 1,49,-1
 477 799 l 1,50,-1
 477 953 l 1,51,-1
 322 953 l 1,48,-1
4 795 m 1,52,-1
 4 639 l 1,53,-1
 159 639 l 1,54,-1
 159 795 l 1,55,-1
 4 795 l 1,52,-1
163 795 m 1,56,-1
 163 639 l 1,57,-1
 318 639 l 1,58,-1
 318 795 l 1,59,-1
 163 795 l 1,56,-1
322 795 m 1,60,-1
 322 639 l 1,61,-1
 477 639 l 1,62,-1
 477 795 l 1,63,-1
 322 795 l 1,60,-1
4 635 m 1,64,-1
 4 481 l 1,65,-1
 159 481 l 1,66,-1
 159 635 l 1,67,-1
 4 635 l 1,64,-1
163 635 m 1,68,-1
 163 481 l 1,69,-1
 318 481 l 1,70,-1
 318 635 l 1,71,-1
 163 635 l 1,68,-1
322 635 m 1,72,-1
 322 481 l 1,73,-1
 477 481 l 1,74,-1
 477 635 l 1,75,-1
 322 635 l 1,72,-1
4 477 m 1,76,-1
 4 322 l 1,77,-1
 159 322 l 1,78,-1
 159 477 l 1,79,-1
 4 477 l 1,76,-1
163 477 m 1,80,-1
 163 322 l 1,81,-1
 318 322 l 1,82,-1
 318 477 l 1,83,-1
 163 477 l 1,80,-1
322 477 m 1,84,-1
 322 322 l 1,85,-1
 477 322 l 1,86,-1
 477 477 l 1,87,-1
 322 477 l 1,84,-1
4 317 m 1,88,-1
 4 163 l 1,89,-1
 159 163 l 1,90,-1
 159 317 l 1,91,-1
 4 317 l 1,88,-1
163 317 m 1,92,-1
 163 163 l 1,93,-1
 318 163 l 1,94,-1
 318 317 l 1,95,-1
 163 317 l 1,92,-1
322 317 m 1,96,-1
 322 163 l 1,97,-1
 477 163 l 1,98,-1
 477 317 l 1,99,-1
 322 317 l 1,96,-1
4 159 m 1,100,-1
 4 4 l 1,101,-1
 159 4 l 1,102,-1
 159 159 l 1,103,-1
 4 159 l 1,100,-1
163 159 m 1,104,-1
 163 4 l 1,105,-1
 318 4 l 1,106,-1
 318 159 l 1,107,-1
 163 159 l 1,104,-1
322 159 m 1,108,-1
 322 4 l 1,109,-1
 477 4 l 1,110,-1
 477 159 l 1,111,-1
 322 159 l 1,108,-1
EndSplineSet
EndChar

StartChar: exclam
Encoding: 33 33 4
Width: 794
Flags: W
LayerCount: 2
Fore
SplineSet
0 1434 m 1,0,-1
 798 1434 l 1,1,-1
 798 -1 l 1,2,-1
 0 -1 l 1,3,-1
 0 1434 l 1,0,-1
4 1430 m 1,4,-1
 4 1275 l 1,5,-1
 159 1275 l 1,6,-1
 159 1430 l 1,7,-1
 4 1430 l 1,4,-1
163 1430 m 1,8,-1
 163 1275 l 1,9,-1
 317 1275 l 1,10,-1
 317 1430 l 1,11,-1
 163 1430 l 1,8,-1
322 1430 m 1,12,-1
 322 1275 l 1,13,-1
 476 1275 l 1,14,-1
 476 1430 l 1,15,-1
 322 1430 l 1,12,-1
481 1430 m 1,16,-1
 481 1275 l 1,17,-1
 635 1275 l 1,18,-1
 635 1430 l 1,19,-1
 481 1430 l 1,16,-1
640 1430 m 1,20,-1
 640 1275 l 1,21,-1
 794 1275 l 1,22,-1
 794 1430 l 1,23,-1
 640 1430 l 1,20,-1
4 1271 m 1,24,-1
 4 1117 l 1,25,-1
 159 1117 l 1,26,-1
 159 1271 l 1,27,-1
 4 1271 l 1,24,-1
163 1271 m 1,28,-1
 163 1117 l 1,29,-1
 317 1117 l 1,30,-1
 317 1271 l 1,31,-1
 163 1271 l 1,28,-1
322 1271 m 1,32,-1
 322 1117 l 1,33,-1
 476 1117 l 1,34,-1
 476 1271 l 1,35,-1
 322 1271 l 1,32,-1
481 1271 m 1,36,-1
 481 1117 l 1,37,-1
 635 1117 l 1,38,-1
 635 1271 l 1,39,-1
 481 1271 l 1,36,-1
640 1271 m 1,40,-1
 640 1117 l 1,41,-1
 794 1117 l 1,42,-1
 794 1271 l 1,43,-1
 640 1271 l 1,40,-1
173 1261 m 1,44,-1
 307 1261 l 1,45,-1
 307 1127 l 1,46,-1
 173 1127 l 1,47,-1
 173 1261 l 1,44,-1
333 1261 m 1,48,-1
 466 1261 l 1,49,-1
 466 1127 l 1,50,-1
 333 1127 l 1,51,-1
 333 1261 l 1,48,-1
4 1112 m 1,52,-1
 4 957 l 1,53,-1
 159 957 l 1,54,-1
 159 1112 l 1,55,-1
 4 1112 l 1,52,-1
163 1112 m 1,56,-1
 163 957 l 1,57,-1
 317 957 l 1,58,-1
 317 1112 l 1,59,-1
 163 1112 l 1,56,-1
322 1112 m 1,60,-1
 322 957 l 1,61,-1
 476 957 l 1,62,-1
 476 1112 l 1,63,-1
 322 1112 l 1,60,-1
481 1112 m 1,64,-1
 481 957 l 1,65,-1
 635 957 l 1,66,-1
 635 1112 l 1,67,-1
 481 1112 l 1,64,-1
640 1112 m 1,68,-1
 640 957 l 1,69,-1
 794 957 l 1,70,-1
 794 1112 l 1,71,-1
 640 1112 l 1,68,-1
15 1101 m 1,72,-1
 148 1101 l 1,73,-1
 148 968 l 1,74,-1
 15 968 l 1,75,-1
 15 1101 l 1,72,-1
173 1101 m 1,76,-1
 307 1101 l 1,77,-1
 307 968 l 1,78,-1
 173 968 l 1,79,-1
 173 1101 l 1,76,-1
333 1101 m 1,80,-1
 466 1101 l 1,81,-1
 466 968 l 1,82,-1
 333 968 l 1,83,-1
 333 1101 l 1,80,-1
492 1101 m 1,84,-1
 625 1101 l 1,85,-1
 625 968 l 1,86,-1
 492 968 l 1,87,-1
 492 1101 l 1,84,-1
4 953 m 1,88,-1
 4 799 l 1,89,-1
 159 799 l 1,90,-1
 159 953 l 1,91,-1
 4 953 l 1,88,-1
163 953 m 1,92,-1
 163 799 l 1,93,-1
 317 799 l 1,94,-1
 317 953 l 1,95,-1
 163 953 l 1,92,-1
322 953 m 1,96,-1
 322 799 l 1,97,-1
 476 799 l 1,98,-1
 476 953 l 1,99,-1
 322 953 l 1,96,-1
481 953 m 1,100,-1
 481 799 l 1,101,-1
 635 799 l 1,102,-1
 635 953 l 1,103,-1
 481 953 l 1,100,-1
640 953 m 1,104,-1
 640 799 l 1,105,-1
 794 799 l 1,106,-1
 794 953 l 1,107,-1
 640 953 l 1,104,-1
15 942 m 1,108,-1
 148 942 l 1,109,-1
 148 809 l 1,110,-1
 15 809 l 1,111,-1
 15 942 l 1,108,-1
173 942 m 1,112,-1
 307 942 l 1,113,-1
 307 809 l 1,114,-1
 173 809 l 1,115,-1
 173 942 l 1,112,-1
333 942 m 1,116,-1
 466 942 l 1,117,-1
 466 809 l 1,118,-1
 333 809 l 1,119,-1
 333 942 l 1,116,-1
492 942 m 1,120,-1
 625 942 l 1,121,-1
 625 809 l 1,122,-1
 492 809 l 1,123,-1
 492 942 l 1,120,-1
4 794 m 1,124,-1
 4 639 l 1,125,-1
 159 639 l 1,126,-1
 159 794 l 1,127,-1
 4 794 l 1,124,-1
163 794 m 1,128,-1
 163 639 l 1,129,-1
 317 639 l 1,130,-1
 317 794 l 1,131,-1
 163 794 l 1,128,-1
322 794 m 1,132,-1
 322 639 l 1,133,-1
 476 639 l 1,134,-1
 476 794 l 1,135,-1
 322 794 l 1,132,-1
481 794 m 1,136,-1
 481 639 l 1,137,-1
 635 639 l 1,138,-1
 635 794 l 1,139,-1
 481 794 l 1,136,-1
640 794 m 1,140,-1
 640 639 l 1,141,-1
 794 639 l 1,142,-1
 794 794 l 1,143,-1
 640 794 l 1,140,-1
173 783 m 1,144,-1
 307 783 l 1,145,-1
 307 650 l 1,146,-1
 173 650 l 1,147,-1
 173 783 l 1,144,-1
333 783 m 1,148,-1
 466 783 l 1,149,-1
 466 650 l 1,150,-1
 333 650 l 1,151,-1
 333 783 l 1,148,-1
4 635 m 1,152,-1
 4 480 l 1,153,-1
 159 480 l 1,154,-1
 159 635 l 1,155,-1
 4 635 l 1,152,-1
163 635 m 1,156,-1
 163 480 l 1,157,-1
 317 480 l 1,158,-1
 317 635 l 1,159,-1
 163 635 l 1,156,-1
322 635 m 1,160,-1
 322 480 l 1,161,-1
 476 480 l 1,162,-1
 476 635 l 1,163,-1
 322 635 l 1,160,-1
481 635 m 1,164,-1
 481 480 l 1,165,-1
 635 480 l 1,166,-1
 635 635 l 1,167,-1
 481 635 l 1,164,-1
640 635 m 1,168,-1
 640 480 l 1,169,-1
 794 480 l 1,170,-1
 794 635 l 1,171,-1
 640 635 l 1,168,-1
4 476 m 1,172,-1
 4 322 l 1,173,-1
 159 322 l 1,174,-1
 159 476 l 1,175,-1
 4 476 l 1,172,-1
163 476 m 1,176,-1
 163 322 l 1,177,-1
 317 322 l 1,178,-1
 317 476 l 1,179,-1
 163 476 l 1,176,-1
322 476 m 1,180,-1
 322 322 l 1,181,-1
 476 322 l 1,182,-1
 476 476 l 1,183,-1
 322 476 l 1,180,-1
481 476 m 1,184,-1
 481 322 l 1,185,-1
 635 322 l 1,186,-1
 635 476 l 1,187,-1
 481 476 l 1,184,-1
640 476 m 1,188,-1
 640 322 l 1,189,-1
 794 322 l 1,190,-1
 794 476 l 1,191,-1
 640 476 l 1,188,-1
173 466 m 1,192,-1
 307 466 l 1,193,-1
 307 332 l 1,194,-1
 173 332 l 1,195,-1
 173 466 l 1,192,-1
333 466 m 1,196,-1
 466 466 l 1,197,-1
 466 332 l 1,198,-1
 333 332 l 1,199,-1
 333 466 l 1,196,-1
4 317 m 1,200,-1
 4 162 l 1,201,-1
 159 162 l 1,202,-1
 159 317 l 1,203,-1
 4 317 l 1,200,-1
163 317 m 1,204,-1
 163 162 l 1,205,-1
 317 162 l 1,206,-1
 317 317 l 1,207,-1
 163 317 l 1,204,-1
322 317 m 1,208,-1
 322 162 l 1,209,-1
 476 162 l 1,210,-1
 476 317 l 1,211,-1
 322 317 l 1,208,-1
481 317 m 1,212,-1
 481 162 l 1,213,-1
 635 162 l 1,214,-1
 635 317 l 1,215,-1
 481 317 l 1,212,-1
640 317 m 1,216,-1
 640 162 l 1,217,-1
 794 162 l 1,218,-1
 794 317 l 1,219,-1
 640 317 l 1,216,-1
173 306 m 1,220,-1
 307 306 l 1,221,-1
 307 173 l 1,222,-1
 173 173 l 1,223,-1
 173 306 l 1,220,-1
333 306 m 1,224,-1
 466 306 l 1,225,-1
 466 173 l 1,226,-1
 333 173 l 1,227,-1
 333 306 l 1,224,-1
4 158 m 1,228,-1
 4 4 l 1,229,-1
 159 4 l 1,230,-1
 159 158 l 1,231,-1
 4 158 l 1,228,-1
163 158 m 1,232,-1
 163 4 l 1,233,-1
 317 4 l 1,234,-1
 317 158 l 1,235,-1
 163 158 l 1,232,-1
322 158 m 1,236,-1
 322 4 l 1,237,-1
 476 4 l 1,238,-1
 476 158 l 1,239,-1
 322 158 l 1,236,-1
481 158 m 1,240,-1
 481 4 l 1,241,-1
 635 4 l 1,242,-1
 635 158 l 1,243,-1
 481 158 l 1,240,-1
640 158 m 1,244,-1
 640 4 l 1,245,-1
 794 4 l 1,246,-1
 794 158 l 1,247,-1
 640 158 l 1,244,-1
EndSplineSet
EndChar

StartChar: quotedbl
Encoding: 34 34 5
Width: 953
Flags: W
LayerCount: 2
Fore
SplineSet
0 1433 m 1,0,-1
 957 1433 l 1,1,-1
 957 0 l 1,2,-1
 0 0 l 1,3,-1
 0 1433 l 1,0,-1
4 1429 m 1,4,-1
 4 1275 l 1,5,-1
 158 1275 l 1,6,-1
 158 1429 l 1,7,-1
 4 1429 l 1,4,-1
163 1429 m 1,8,-1
 163 1275 l 1,9,-1
 317 1275 l 1,10,-1
 317 1429 l 1,11,-1
 163 1429 l 1,8,-1
322 1429 m 1,12,-1
 322 1275 l 1,13,-1
 476 1275 l 1,14,-1
 476 1429 l 1,15,-1
 322 1429 l 1,12,-1
481 1429 m 1,16,-1
 481 1275 l 1,17,-1
 635 1275 l 1,18,-1
 635 1429 l 1,19,-1
 481 1429 l 1,16,-1
640 1429 m 1,20,-1
 640 1275 l 1,21,-1
 794 1275 l 1,22,-1
 794 1429 l 1,23,-1
 640 1429 l 1,20,-1
798 1429 m 1,24,-1
 798 1275 l 1,25,-1
 952 1275 l 1,26,-1
 952 1429 l 1,27,-1
 798 1429 l 1,24,-1
4 1270 m 1,28,-1
 4 1116 l 1,29,-1
 158 1116 l 1,30,-1
 158 1270 l 1,31,-1
 4 1270 l 1,28,-1
163 1270 m 1,32,-1
 163 1116 l 1,33,-1
 317 1116 l 1,34,-1
 317 1270 l 1,35,-1
 163 1270 l 1,32,-1
322 1270 m 1,36,-1
 322 1116 l 1,37,-1
 476 1116 l 1,38,-1
 476 1270 l 1,39,-1
 322 1270 l 1,36,-1
481 1270 m 1,40,-1
 481 1116 l 1,41,-1
 635 1116 l 1,42,-1
 635 1270 l 1,43,-1
 481 1270 l 1,40,-1
640 1270 m 1,44,-1
 640 1116 l 1,45,-1
 794 1116 l 1,46,-1
 794 1270 l 1,47,-1
 640 1270 l 1,44,-1
798 1270 m 1,48,-1
 798 1116 l 1,49,-1
 952 1116 l 1,50,-1
 952 1270 l 1,51,-1
 798 1270 l 1,48,-1
15 1260 m 1,52,-1
 148 1260 l 1,53,-1
 148 1127 l 1,54,-1
 15 1127 l 1,55,-1
 15 1260 l 1,52,-1
174 1260 m 1,56,-1
 307 1260 l 1,57,-1
 307 1127 l 1,58,-1
 174 1127 l 1,59,-1
 174 1260 l 1,56,-1
491 1260 m 1,60,-1
 624 1260 l 1,61,-1
 624 1127 l 1,62,-1
 491 1127 l 1,63,-1
 491 1260 l 1,60,-1
650 1260 m 1,64,-1
 783 1260 l 1,65,-1
 783 1127 l 1,66,-1
 650 1127 l 1,67,-1
 650 1260 l 1,64,-1
4 1111 m 1,68,-1
 4 957 l 1,69,-1
 158 957 l 1,70,-1
 158 1111 l 1,71,-1
 4 1111 l 1,68,-1
163 1111 m 1,72,-1
 163 957 l 1,73,-1
 317 957 l 1,74,-1
 317 1111 l 1,75,-1
 163 1111 l 1,72,-1
322 1111 m 1,76,-1
 322 957 l 1,77,-1
 476 957 l 1,78,-1
 476 1111 l 1,79,-1
 322 1111 l 1,76,-1
481 1111 m 1,80,-1
 481 957 l 1,81,-1
 635 957 l 1,82,-1
 635 1111 l 1,83,-1
 481 1111 l 1,80,-1
640 1111 m 1,84,-1
 640 957 l 1,85,-1
 794 957 l 1,86,-1
 794 1111 l 1,87,-1
 640 1111 l 1,84,-1
798 1111 m 1,88,-1
 798 957 l 1,89,-1
 952 957 l 1,90,-1
 952 1111 l 1,91,-1
 798 1111 l 1,88,-1
15 1101 m 1,92,-1
 148 1101 l 1,93,-1
 148 967 l 1,94,-1
 15 967 l 1,95,-1
 15 1101 l 1,92,-1
174 1101 m 1,96,-1
 307 1101 l 1,97,-1
 307 967 l 1,98,-1
 174 967 l 1,99,-1
 174 1101 l 1,96,-1
491 1101 m 1,100,-1
 624 1101 l 1,101,-1
 624 967 l 1,102,-1
 491 967 l 1,103,-1
 491 1101 l 1,100,-1
650 1101 m 1,104,-1
 783 1101 l 1,105,-1
 783 967 l 1,106,-1
 650 967 l 1,107,-1
 650 1101 l 1,104,-1
4 952 m 1,108,-1
 4 798 l 1,109,-1
 158 798 l 1,110,-1
 158 952 l 1,111,-1
 4 952 l 1,108,-1
163 952 m 1,112,-1
 163 798 l 1,113,-1
 317 798 l 1,114,-1
 317 952 l 1,115,-1
 163 952 l 1,112,-1
322 952 m 1,116,-1
 322 798 l 1,117,-1
 476 798 l 1,118,-1
 476 952 l 1,119,-1
 322 952 l 1,116,-1
481 952 m 1,120,-1
 481 798 l 1,121,-1
 635 798 l 1,122,-1
 635 952 l 1,123,-1
 481 952 l 1,120,-1
640 952 m 1,124,-1
 640 798 l 1,125,-1
 794 798 l 1,126,-1
 794 952 l 1,127,-1
 640 952 l 1,124,-1
798 952 m 1,128,-1
 798 798 l 1,129,-1
 952 798 l 1,130,-1
 952 952 l 1,131,-1
 798 952 l 1,128,-1
15 942 m 1,132,-1
 148 942 l 1,133,-1
 148 809 l 1,134,-1
 15 809 l 1,135,-1
 15 942 l 1,132,-1
174 942 m 1,136,-1
 307 942 l 1,137,-1
 307 809 l 1,138,-1
 174 809 l 1,139,-1
 174 942 l 1,136,-1
491 942 m 1,140,-1
 624 942 l 1,141,-1
 624 809 l 1,142,-1
 491 809 l 1,143,-1
 491 942 l 1,140,-1
650 942 m 1,144,-1
 783 942 l 1,145,-1
 783 809 l 1,146,-1
 650 809 l 1,147,-1
 650 942 l 1,144,-1
4 794 m 1,148,-1
 4 639 l 1,149,-1
 158 639 l 1,150,-1
 158 794 l 1,151,-1
 4 794 l 1,148,-1
163 794 m 1,152,-1
 163 639 l 1,153,-1
 317 639 l 1,154,-1
 317 794 l 1,155,-1
 163 794 l 1,152,-1
322 794 m 1,156,-1
 322 639 l 1,157,-1
 476 639 l 1,158,-1
 476 794 l 1,159,-1
 322 794 l 1,156,-1
481 794 m 1,160,-1
 481 639 l 1,161,-1
 635 639 l 1,162,-1
 635 794 l 1,163,-1
 481 794 l 1,160,-1
640 794 m 1,164,-1
 640 639 l 1,165,-1
 794 639 l 1,166,-1
 794 794 l 1,167,-1
 640 794 l 1,164,-1
798 794 m 1,168,-1
 798 639 l 1,169,-1
 952 639 l 1,170,-1
 952 794 l 1,171,-1
 798 794 l 1,168,-1
4 635 m 1,172,-1
 4 481 l 1,173,-1
 158 481 l 1,174,-1
 158 635 l 1,175,-1
 4 635 l 1,172,-1
163 635 m 1,176,-1
 163 481 l 1,177,-1
 317 481 l 1,178,-1
 317 635 l 1,179,-1
 163 635 l 1,176,-1
322 635 m 1,180,-1
 322 481 l 1,181,-1
 476 481 l 1,182,-1
 476 635 l 1,183,-1
 322 635 l 1,180,-1
481 635 m 1,184,-1
 481 481 l 1,185,-1
 635 481 l 1,186,-1
 635 635 l 1,187,-1
 481 635 l 1,184,-1
640 635 m 1,188,-1
 640 481 l 1,189,-1
 794 481 l 1,190,-1
 794 635 l 1,191,-1
 640 635 l 1,188,-1
798 635 m 1,192,-1
 798 481 l 1,193,-1
 952 481 l 1,194,-1
 952 635 l 1,195,-1
 798 635 l 1,192,-1
4 476 m 1,196,-1
 4 322 l 1,197,-1
 158 322 l 1,198,-1
 158 476 l 1,199,-1
 4 476 l 1,196,-1
163 476 m 1,200,-1
 163 322 l 1,201,-1
 317 322 l 1,202,-1
 317 476 l 1,203,-1
 163 476 l 1,200,-1
322 476 m 1,204,-1
 322 322 l 1,205,-1
 476 322 l 1,206,-1
 476 476 l 1,207,-1
 322 476 l 1,204,-1
481 476 m 1,208,-1
 481 322 l 1,209,-1
 635 322 l 1,210,-1
 635 476 l 1,211,-1
 481 476 l 1,208,-1
640 476 m 1,212,-1
 640 322 l 1,213,-1
 794 322 l 1,214,-1
 794 476 l 1,215,-1
 640 476 l 1,212,-1
798 476 m 1,216,-1
 798 322 l 1,217,-1
 952 322 l 1,218,-1
 952 476 l 1,219,-1
 798 476 l 1,216,-1
4 317 m 1,220,-1
 4 163 l 1,221,-1
 158 163 l 1,222,-1
 158 317 l 1,223,-1
 4 317 l 1,220,-1
163 317 m 1,224,-1
 163 163 l 1,225,-1
 317 163 l 1,226,-1
 317 317 l 1,227,-1
 163 317 l 1,224,-1
322 317 m 1,228,-1
 322 163 l 1,229,-1
 476 163 l 1,230,-1
 476 317 l 1,231,-1
 322 317 l 1,228,-1
481 317 m 1,232,-1
 481 163 l 1,233,-1
 635 163 l 1,234,-1
 635 317 l 1,235,-1
 481 317 l 1,232,-1
640 317 m 1,236,-1
 640 163 l 1,237,-1
 794 163 l 1,238,-1
 794 317 l 1,239,-1
 640 317 l 1,236,-1
798 317 m 1,240,-1
 798 163 l 1,241,-1
 952 163 l 1,242,-1
 952 317 l 1,243,-1
 798 317 l 1,240,-1
4 158 m 1,244,-1
 4 4 l 1,245,-1
 158 4 l 1,246,-1
 158 158 l 1,247,-1
 4 158 l 1,244,-1
163 158 m 1,248,-1
 163 4 l 1,249,-1
 317 4 l 1,250,-1
 317 158 l 1,251,-1
 163 158 l 1,248,-1
322 158 m 1,252,-1
 322 4 l 1,253,-1
 476 4 l 1,254,-1
 476 158 l 1,255,-1
 322 158 l 1,252,-1
481 158 m 1,256,-1
 481 4 l 1,257,-1
 635 4 l 1,258,-1
 635 158 l 1,259,-1
 481 158 l 1,256,-1
640 158 m 1,260,-1
 640 4 l 1,261,-1
 794 4 l 1,262,-1
 794 158 l 1,263,-1
 640 158 l 1,260,-1
798 158 m 1,264,-1
 798 4 l 1,265,-1
 952 4 l 1,266,-1
 952 158 l 1,267,-1
 798 158 l 1,264,-1
EndSplineSet
EndChar

StartChar: numbersign
Encoding: 35 35 6
Width: 1270
Flags: W
LayerCount: 2
Fore
SplineSet
0 1434 m 1,0,-1
 1275 1434 l 1,1,-1
 1275 0 l 1,2,-1
 0 0 l 1,3,-1
 0 1434 l 1,0,-1
4 1430 m 1,4,-1
 4 1275 l 1,5,-1
 159 1275 l 1,6,-1
 159 1430 l 1,7,-1
 4 1430 l 1,4,-1
163 1430 m 1,8,-1
 163 1275 l 1,9,-1
 317 1275 l 1,10,-1
 317 1430 l 1,11,-1
 163 1430 l 1,8,-1
322 1430 m 1,12,-1
 322 1275 l 1,13,-1
 477 1275 l 1,14,-1
 477 1430 l 1,15,-1
 322 1430 l 1,12,-1
481 1430 m 1,16,-1
 481 1275 l 1,17,-1
 635 1275 l 1,18,-1
 635 1430 l 1,19,-1
 481 1430 l 1,16,-1
639 1430 m 1,20,-1
 639 1275 l 1,21,-1
 794 1275 l 1,22,-1
 794 1430 l 1,23,-1
 639 1430 l 1,20,-1
798 1430 m 1,24,-1
 798 1275 l 1,25,-1
 952 1275 l 1,26,-1
 952 1430 l 1,27,-1
 798 1430 l 1,24,-1
957 1430 m 1,28,-1
 957 1275 l 1,29,-1
 1112 1275 l 1,30,-1
 1112 1430 l 1,31,-1
 957 1430 l 1,28,-1
1116 1430 m 1,32,-1
 1116 1275 l 1,33,-1
 1270 1275 l 1,34,-1
 1270 1430 l 1,35,-1
 1116 1430 l 1,32,-1
4 1271 m 1,36,-1
 4 1117 l 1,37,-1
 159 1117 l 1,38,-1
 159 1271 l 1,39,-1
 4 1271 l 1,36,-1
163 1271 m 1,40,-1
 163 1117 l 1,41,-1
 317 1117 l 1,42,-1
 317 1271 l 1,43,-1
 163 1271 l 1,40,-1
322 1271 m 1,44,-1
 322 1117 l 1,45,-1
 477 1117 l 1,46,-1
 477 1271 l 1,47,-1
 322 1271 l 1,44,-1
481 1271 m 1,48,-1
 481 1117 l 1,49,-1
 635 1117 l 1,50,-1
 635 1271 l 1,51,-1
 481 1271 l 1,48,-1
639 1271 m 1,52,-1
 639 1117 l 1,53,-1
 794 1117 l 1,54,-1
 794 1271 l 1,55,-1
 639 1271 l 1,52,-1
798 1271 m 1,56,-1
 798 1117 l 1,57,-1
 952 1117 l 1,58,-1
 952 1271 l 1,59,-1
 798 1271 l 1,56,-1
957 1271 m 1,60,-1
 957 1117 l 1,61,-1
 1112 1117 l 1,62,-1
 1112 1271 l 1,63,-1
 957 1271 l 1,60,-1
1116 1271 m 1,64,-1
 1116 1117 l 1,65,-1
 1270 1117 l 1,66,-1
 1270 1271 l 1,67,-1
 1116 1271 l 1,64,-1
175 1261 m 2,68,-1
 307 1261 l 1,69,-1
 307 1127 l 1,70,-1
 173 1127 l 1,71,-1
 173 1259 l 2,72,73
 174 1261 174 1261 175 1261 c 2,68,-1
333 1261 m 1,74,-1
 465 1261 l 1,75,-1
 465 1127 l 1,76,-1
 333 1127 l 1,77,-1
 333 1261 l 1,74,-1
650 1261 m 1,78,-1
 783 1261 l 1,79,-1
 783 1127 l 1,80,-1
 650 1127 l 1,81,-1
 650 1261 l 1,78,-1
809 1261 m 1,82,-1
 942 1261 l 1,83,-1
 942 1127 l 1,84,-1
 809 1127 l 1,85,-1
 809 1261 l 1,82,-1
4 1112 m 1,86,-1
 4 957 l 1,87,-1
 159 957 l 1,88,-1
 159 1112 l 1,89,-1
 4 1112 l 1,86,-1
163 1112 m 1,90,-1
 163 957 l 1,91,-1
 317 957 l 1,92,-1
 317 1112 l 1,93,-1
 163 1112 l 1,90,-1
322 1112 m 1,94,-1
 322 957 l 1,95,-1
 477 957 l 1,96,-1
 477 1112 l 1,97,-1
 322 1112 l 1,94,-1
481 1112 m 1,98,-1
 481 957 l 1,99,-1
 635 957 l 1,100,-1
 635 1112 l 1,101,-1
 481 1112 l 1,98,-1
639 1112 m 1,102,-1
 639 957 l 1,103,-1
 794 957 l 1,104,-1
 794 1112 l 1,105,-1
 639 1112 l 1,102,-1
798 1112 m 1,106,-1
 798 957 l 1,107,-1
 952 957 l 1,108,-1
 952 1112 l 1,109,-1
 798 1112 l 1,106,-1
957 1112 m 1,110,-1
 957 957 l 1,111,-1
 1112 957 l 1,112,-1
 1112 1112 l 1,113,-1
 957 1112 l 1,110,-1
1116 1112 m 1,114,-1
 1116 957 l 1,115,-1
 1270 957 l 1,116,-1
 1270 1112 l 1,117,-1
 1116 1112 l 1,114,-1
15 1101 m 1,118,-1
 148 1101 l 1,119,-1
 148 968 l 1,120,-1
 15 968 l 1,121,-1
 15 1101 l 1,118,-1
173 1101 m 1,122,-1
 307 1101 l 1,123,-1
 307 968 l 1,124,-1
 173 968 l 1,125,-1
 173 1101 l 1,122,-1
333 1101 m 1,126,-1
 465 1101 l 1,127,-1
 465 968 l 1,128,-1
 333 968 l 1,129,-1
 333 1101 l 1,126,-1
491 1101 m 1,130,-1
 625 1101 l 1,131,-1
 625 968 l 1,132,-1
 491 968 l 1,133,-1
 491 1101 l 1,130,-1
650 1101 m 1,134,-1
 783 1101 l 1,135,-1
 783 968 l 1,136,-1
 650 968 l 1,137,-1
 650 1101 l 1,134,-1
809 1101 m 1,138,-1
 942 1101 l 1,139,-1
 942 968 l 1,140,-1
 809 968 l 1,141,-1
 809 1101 l 1,138,-1
968 1101 m 1,142,-1
 1101 1101 l 1,143,-1
 1101 968 l 1,144,-1
 968 968 l 1,145,-1
 968 1101 l 1,142,-1
4 953 m 1,146,-1
 4 799 l 1,147,-1
 159 799 l 1,148,-1
 159 953 l 1,149,-1
 4 953 l 1,146,-1
163 953 m 1,150,-1
 163 799 l 1,151,-1
 317 799 l 1,152,-1
 317 953 l 1,153,-1
 163 953 l 1,150,-1
322 953 m 1,154,-1
 322 799 l 1,155,-1
 477 799 l 1,156,-1
 477 953 l 1,157,-1
 322 953 l 1,154,-1
481 953 m 1,158,-1
 481 799 l 1,159,-1
 635 799 l 1,160,-1
 635 953 l 1,161,-1
 481 953 l 1,158,-1
639 953 m 1,162,-1
 639 799 l 1,163,-1
 794 799 l 1,164,-1
 794 953 l 1,165,-1
 639 953 l 1,162,-1
798 953 m 1,166,-1
 798 799 l 1,167,-1
 952 799 l 1,168,-1
 952 953 l 1,169,-1
 798 953 l 1,166,-1
957 953 m 1,170,-1
 957 799 l 1,171,-1
 1112 799 l 1,172,-1
 1112 953 l 1,173,-1
 957 953 l 1,170,-1
1116 953 m 1,174,-1
 1116 799 l 1,175,-1
 1270 799 l 1,176,-1
 1270 953 l 1,177,-1
 1116 953 l 1,174,-1
15 943 m 1,178,-1
 148 943 l 1,179,-1
 148 809 l 1,180,-1
 15 809 l 1,181,-1
 15 943 l 1,178,-1
173 943 m 1,182,-1
 307 943 l 1,183,-1
 307 809 l 1,184,-1
 173 809 l 1,185,-1
 173 943 l 1,182,-1
333 943 m 1,186,-1
 465 943 l 1,187,-1
 465 809 l 1,188,-1
 333 809 l 1,189,-1
 333 943 l 1,186,-1
491 943 m 1,190,-1
 625 943 l 1,191,-1
 625 809 l 1,192,-1
 491 809 l 1,193,-1
 491 943 l 1,190,-1
650 943 m 1,194,-1
 783 943 l 1,195,-1
 783 809 l 1,196,-1
 650 809 l 1,197,-1
 650 943 l 1,194,-1
809 943 m 1,198,-1
 942 943 l 1,199,-1
 942 809 l 1,200,-1
 809 809 l 1,201,-1
 809 943 l 1,198,-1
968 943 m 1,202,-1
 1101 943 l 1,203,-1
 1101 809 l 1,204,-1
 968 809 l 1,205,-1
 968 943 l 1,202,-1
4 795 m 1,206,-1
 4 639 l 1,207,-1
 159 639 l 1,208,-1
 159 795 l 1,209,-1
 4 795 l 1,206,-1
163 795 m 1,210,-1
 163 639 l 1,211,-1
 317 639 l 1,212,-1
 317 795 l 1,213,-1
 163 795 l 1,210,-1
322 795 m 1,214,-1
 322 639 l 1,215,-1
 477 639 l 1,216,-1
 477 795 l 1,217,-1
 322 795 l 1,214,-1
481 795 m 1,218,-1
 481 639 l 1,219,-1
 635 639 l 1,220,-1
 635 795 l 1,221,-1
 481 795 l 1,218,-1
639 795 m 1,222,-1
 639 639 l 1,223,-1
 794 639 l 1,224,-1
 794 795 l 1,225,-1
 639 795 l 1,222,-1
798 795 m 1,226,-1
 798 639 l 1,227,-1
 952 639 l 1,228,-1
 952 795 l 1,229,-1
 798 795 l 1,226,-1
957 795 m 1,230,-1
 957 639 l 1,231,-1
 1112 639 l 1,232,-1
 1112 795 l 1,233,-1
 957 795 l 1,230,-1
1116 795 m 1,234,-1
 1116 639 l 1,235,-1
 1270 639 l 1,236,-1
 1270 795 l 1,237,-1
 1116 795 l 1,234,-1
173 783 m 1,238,-1
 307 783 l 1,239,-1
 307 651 l 1,240,-1
 173 651 l 1,241,-1
 173 783 l 1,238,-1
333 783 m 1,242,-1
 465 783 l 1,243,-1
 465 651 l 1,244,-1
 333 651 l 1,245,-1
 333 783 l 1,242,-1
650 783 m 1,246,-1
 783 783 l 1,247,-1
 783 651 l 1,248,-1
 650 651 l 1,249,-1
 650 783 l 1,246,-1
809 783 m 1,250,-1
 942 783 l 1,251,-1
 942 651 l 1,252,-1
 809 651 l 1,253,-1
 809 783 l 1,250,-1
4 635 m 1,254,-1
 4 481 l 1,255,-1
 159 481 l 1,256,-1
 159 635 l 1,257,-1
 4 635 l 1,254,-1
163 635 m 1,258,-1
 163 481 l 1,259,-1
 317 481 l 1,260,-1
 317 635 l 1,261,-1
 163 635 l 1,258,-1
322 635 m 1,262,-1
 322 481 l 1,263,-1
 477 481 l 1,264,-1
 477 635 l 1,265,-1
 322 635 l 1,262,-1
481 635 m 1,266,-1
 481 481 l 1,267,-1
 635 481 l 1,268,-1
 635 635 l 1,269,-1
 481 635 l 1,266,-1
639 635 m 1,270,-1
 639 481 l 1,271,-1
 794 481 l 1,272,-1
 794 635 l 1,273,-1
 639 635 l 1,270,-1
798 635 m 1,274,-1
 798 481 l 1,275,-1
 952 481 l 1,276,-1
 952 635 l 1,277,-1
 798 635 l 1,274,-1
957 635 m 1,278,-1
 957 481 l 1,279,-1
 1112 481 l 1,280,-1
 1112 635 l 1,281,-1
 957 635 l 1,278,-1
1116 635 m 1,282,-1
 1116 481 l 1,283,-1
 1270 481 l 1,284,-1
 1270 635 l 1,285,-1
 1116 635 l 1,282,-1
15 625 m 1,286,-1
 148 625 l 1,287,-1
 148 491 l 1,288,-1
 15 491 l 1,289,-1
 15 625 l 1,286,-1
173 625 m 1,290,-1
 307 625 l 1,291,-1
 307 491 l 1,292,-1
 173 491 l 1,293,-1
 173 625 l 1,290,-1
333 625 m 1,294,-1
 465 625 l 1,295,-1
 465 491 l 1,296,-1
 333 491 l 1,297,-1
 333 625 l 1,294,-1
491 625 m 1,298,-1
 625 625 l 1,299,-1
 625 491 l 1,300,-1
 491 491 l 1,301,-1
 491 625 l 1,298,-1
650 625 m 1,302,-1
 783 625 l 1,303,-1
 783 491 l 1,304,-1
 650 491 l 1,305,-1
 650 625 l 1,302,-1
809 625 m 1,306,-1
 942 625 l 1,307,-1
 942 491 l 1,308,-1
 809 491 l 1,309,-1
 809 625 l 1,306,-1
968 625 m 1,310,-1
 1101 625 l 1,311,-1
 1101 491 l 1,312,-1
 968 491 l 1,313,-1
 968 625 l 1,310,-1
4 477 m 1,314,-1
 4 322 l 1,315,-1
 159 322 l 1,316,-1
 159 477 l 1,317,-1
 4 477 l 1,314,-1
163 477 m 1,318,-1
 163 322 l 1,319,-1
 317 322 l 1,320,-1
 317 477 l 1,321,-1
 163 477 l 1,318,-1
322 477 m 1,322,-1
 322 322 l 1,323,-1
 477 322 l 1,324,-1
 477 477 l 1,325,-1
 322 477 l 1,322,-1
481 477 m 1,326,-1
 481 322 l 1,327,-1
 635 322 l 1,328,-1
 635 477 l 1,329,-1
 481 477 l 1,326,-1
639 477 m 1,330,-1
 639 322 l 1,331,-1
 794 322 l 1,332,-1
 794 477 l 1,333,-1
 639 477 l 1,330,-1
798 477 m 1,334,-1
 798 322 l 1,335,-1
 952 322 l 1,336,-1
 952 477 l 1,337,-1
 798 477 l 1,334,-1
957 477 m 1,338,-1
 957 322 l 1,339,-1
 1112 322 l 1,340,-1
 1112 477 l 1,341,-1
 957 477 l 1,338,-1
1116 477 m 1,342,-1
 1116 322 l 1,343,-1
 1270 322 l 1,344,-1
 1270 477 l 1,345,-1
 1116 477 l 1,342,-1
15 466 m 1,346,-1
 148 466 l 1,347,-1
 148 333 l 1,348,-1
 15 333 l 1,349,-1
 15 466 l 1,346,-1
173 466 m 1,350,-1
 307 466 l 1,351,-1
 307 333 l 1,352,-1
 173 333 l 1,353,-1
 173 466 l 1,350,-1
333 466 m 1,354,-1
 465 466 l 1,355,-1
 465 333 l 1,356,-1
 333 333 l 1,357,-1
 333 466 l 1,354,-1
491 466 m 1,358,-1
 625 466 l 1,359,-1
 625 333 l 1,360,-1
 491 333 l 1,361,-1
 491 466 l 1,358,-1
650 466 m 1,362,-1
 783 466 l 1,363,-1
 783 333 l 1,364,-1
 650 333 l 1,365,-1
 650 466 l 1,362,-1
809 466 m 1,366,-1
 942 466 l 1,367,-1
 942 333 l 1,368,-1
 809 333 l 1,369,-1
 809 466 l 1,366,-1
968 466 m 1,370,-1
 1101 466 l 1,371,-1
 1101 333 l 1,372,-1
 968 333 l 1,373,-1
 968 466 l 1,370,-1
4 317 m 1,374,-1
 4 163 l 1,375,-1
 159 163 l 1,376,-1
 159 317 l 1,377,-1
 4 317 l 1,374,-1
163 317 m 1,378,-1
 163 163 l 1,379,-1
 317 163 l 1,380,-1
 317 317 l 1,381,-1
 163 317 l 1,378,-1
322 317 m 1,382,-1
 322 163 l 1,383,-1
 477 163 l 1,384,-1
 477 317 l 1,385,-1
 322 317 l 1,382,-1
481 317 m 1,386,-1
 481 163 l 1,387,-1
 635 163 l 1,388,-1
 635 317 l 1,389,-1
 481 317 l 1,386,-1
639 317 m 1,390,-1
 639 163 l 1,391,-1
 794 163 l 1,392,-1
 794 317 l 1,393,-1
 639 317 l 1,390,-1
798 317 m 1,394,-1
 798 163 l 1,395,-1
 952 163 l 1,396,-1
 952 317 l 1,397,-1
 798 317 l 1,394,-1
957 317 m 1,398,-1
 957 163 l 1,399,-1
 1112 163 l 1,400,-1
 1112 317 l 1,401,-1
 957 317 l 1,398,-1
1116 317 m 1,402,-1
 1116 163 l 1,403,-1
 1270 163 l 1,404,-1
 1270 317 l 1,405,-1
 1116 317 l 1,402,-1
173 307 m 1,406,-1
 307 307 l 1,407,-1
 307 173 l 1,408,-1
 175 173 l 2,409,410
 173 173 173 173 173 175 c 2,411,-1
 173 307 l 1,406,-1
333 307 m 1,412,-1
 465 307 l 1,413,-1
 465 173 l 1,414,-1
 333 173 l 1,415,-1
 333 307 l 1,412,-1
650 307 m 1,416,-1
 783 307 l 1,417,-1
 783 173 l 1,418,-1
 650 173 l 1,419,-1
 650 307 l 1,416,-1
809 307 m 1,420,-1
 942 307 l 1,421,-1
 942 173 l 1,422,-1
 809 173 l 1,423,-1
 809 307 l 1,420,-1
4 159 m 1,424,-1
 4 4 l 1,425,-1
 159 4 l 1,426,-1
 159 159 l 1,427,-1
 4 159 l 1,424,-1
163 159 m 1,428,-1
 163 4 l 1,429,-1
 317 4 l 1,430,-1
 317 159 l 1,431,-1
 163 159 l 1,428,-1
322 159 m 1,432,-1
 322 4 l 1,433,-1
 477 4 l 1,434,-1
 477 159 l 1,435,-1
 322 159 l 1,432,-1
481 159 m 1,436,-1
 481 4 l 1,437,-1
 635 4 l 1,438,-1
 635 159 l 1,439,-1
 481 159 l 1,436,-1
639 159 m 1,440,-1
 639 4 l 1,441,-1
 794 4 l 1,442,-1
 794 159 l 1,443,-1
 639 159 l 1,440,-1
798 159 m 1,444,-1
 798 4 l 1,445,-1
 952 4 l 1,446,-1
 952 159 l 1,447,-1
 798 159 l 1,444,-1
957 159 m 1,448,-1
 957 4 l 1,449,-1
 1112 4 l 1,450,-1
 1112 159 l 1,451,-1
 957 159 l 1,448,-1
1116 159 m 1,452,-1
 1116 4 l 1,453,-1
 1270 4 l 1,454,-1
 1270 159 l 1,455,-1
 1116 159 l 1,452,-1
EndSplineSet
EndChar

StartChar: dollar
Encoding: 36 36 7
Width: 1270
Flags: W
LayerCount: 2
Fore
SplineSet
0 1435 m 1,0,-1
 1275 1435 l 1,1,-1
 1275 0 l 1,2,-1
 0 0 l 1,3,-1
 0 1435 l 1,0,-1
4 1431 m 1,4,-1
 4 1276 l 1,5,-1
 159 1276 l 1,6,-1
 159 1431 l 1,7,-1
 4 1431 l 1,4,-1
163 1431 m 1,8,-1
 163 1276 l 1,9,-1
 317 1276 l 1,10,-1
 317 1431 l 1,11,-1
 163 1431 l 1,8,-1
323 1431 m 1,12,-1
 323 1276 l 1,13,-1
 477 1276 l 1,14,-1
 477 1431 l 1,15,-1
 323 1431 l 1,12,-1
481 1431 m 1,16,-1
 481 1276 l 1,17,-1
 636 1276 l 1,18,-1
 636 1431 l 1,19,-1
 481 1431 l 1,16,-1
640 1431 m 1,20,-1
 640 1276 l 1,21,-1
 794 1276 l 1,22,-1
 794 1431 l 1,23,-1
 640 1431 l 1,20,-1
799 1431 m 1,24,-1
 799 1276 l 1,25,-1
 953 1276 l 1,26,-1
 953 1431 l 1,27,-1
 799 1431 l 1,24,-1
958 1431 m 1,28,-1
 958 1276 l 1,29,-1
 1112 1276 l 1,30,-1
 1112 1431 l 1,31,-1
 958 1431 l 1,28,-1
1117 1431 m 1,32,-1
 1117 1276 l 1,33,-1
 1271 1276 l 1,34,-1
 1271 1431 l 1,35,-1
 1117 1431 l 1,32,-1
4 1272 m 1,36,-1
 4 1118 l 1,37,-1
 159 1118 l 1,38,-1
 159 1272 l 1,39,-1
 4 1272 l 1,36,-1
163 1272 m 1,40,-1
 163 1118 l 1,41,-1
 317 1118 l 1,42,-1
 317 1272 l 1,43,-1
 163 1272 l 1,40,-1
323 1272 m 1,44,-1
 323 1118 l 1,45,-1
 477 1118 l 1,46,-1
 477 1272 l 1,47,-1
 323 1272 l 1,44,-1
481 1272 m 1,48,-1
 481 1118 l 1,49,-1
 636 1118 l 1,50,-1
 636 1272 l 1,51,-1
 481 1272 l 1,48,-1
640 1272 m 1,52,-1
 640 1118 l 1,53,-1
 794 1118 l 1,54,-1
 794 1272 l 1,55,-1
 640 1272 l 1,52,-1
799 1272 m 1,56,-1
 799 1118 l 1,57,-1
 953 1118 l 1,58,-1
 953 1272 l 1,59,-1
 799 1272 l 1,56,-1
958 1272 m 1,60,-1
 958 1118 l 1,61,-1
 1112 1118 l 1,62,-1
 1112 1272 l 1,63,-1
 958 1272 l 1,60,-1
1117 1272 m 1,64,-1
 1117 1118 l 1,65,-1
 1271 1118 l 1,66,-1
 1271 1272 l 1,67,-1
 1117 1272 l 1,64,-1
492 1262 m 1,68,-1
 625 1262 l 1,69,-1
 625 1128 l 1,70,-1
 492 1128 l 1,71,-1
 492 1262 l 1,68,-1
4 1112 m 1,72,-1
 4 958 l 1,73,-1
 159 958 l 1,74,-1
 159 1112 l 1,75,-1
 4 1112 l 1,72,-1
163 1112 m 1,76,-1
 163 958 l 1,77,-1
 317 958 l 1,78,-1
 317 1112 l 1,79,-1
 163 1112 l 1,76,-1
323 1112 m 1,80,-1
 323 958 l 1,81,-1
 477 958 l 1,82,-1
 477 1112 l 1,83,-1
 323 1112 l 1,80,-1
481 1112 m 1,84,-1
 481 958 l 1,85,-1
 636 958 l 1,86,-1
 636 1112 l 1,87,-1
 481 1112 l 1,84,-1
640 1112 m 1,88,-1
 640 958 l 1,89,-1
 794 958 l 1,90,-1
 794 1112 l 1,91,-1
 640 1112 l 1,88,-1
799 1112 m 1,92,-1
 799 958 l 1,93,-1
 953 958 l 1,94,-1
 953 1112 l 1,95,-1
 799 1112 l 1,92,-1
958 1112 m 1,96,-1
 958 958 l 1,97,-1
 1112 958 l 1,98,-1
 1112 1112 l 1,99,-1
 958 1112 l 1,96,-1
1117 1112 m 1,100,-1
 1117 958 l 1,101,-1
 1271 958 l 1,102,-1
 1271 1112 l 1,103,-1
 1117 1112 l 1,100,-1
173 1102 m 1,104,-1
 307 1102 l 1,105,-1
 307 969 l 1,106,-1
 173 969 l 1,107,-1
 173 1102 l 1,104,-1
333 1102 m 1,108,-1
 466 1102 l 1,109,-1
 466 969 l 1,110,-1
 333 969 l 1,111,-1
 333 1102 l 1,108,-1
492 1102 m 1,112,-1
 625 1102 l 1,113,-1
 625 969 l 1,114,-1
 492 969 l 1,115,-1
 492 1102 l 1,112,-1
650 1102 m 1,116,-1
 784 1102 l 1,117,-1
 784 969 l 1,118,-1
 650 969 l 1,119,-1
 650 1102 l 1,116,-1
810 1102 m 1,120,-1
 943 1102 l 1,121,-1
 943 969 l 1,122,-1
 810 969 l 1,123,-1
 810 1102 l 1,120,-1
4 954 m 1,124,-1
 4 799 l 1,125,-1
 159 799 l 1,126,-1
 159 954 l 1,127,-1
 4 954 l 1,124,-1
163 954 m 1,128,-1
 163 799 l 1,129,-1
 317 799 l 1,130,-1
 317 954 l 1,131,-1
 163 954 l 1,128,-1
323 954 m 1,132,-1
 323 799 l 1,133,-1
 477 799 l 1,134,-1
 477 954 l 1,135,-1
 323 954 l 1,132,-1
481 954 m 1,136,-1
 481 799 l 1,137,-1
 636 799 l 1,138,-1
 636 954 l 1,139,-1
 481 954 l 1,136,-1
640 954 m 1,140,-1
 640 799 l 1,141,-1
 794 799 l 1,142,-1
 794 954 l 1,143,-1
 640 954 l 1,140,-1
799 954 m 1,144,-1
 799 799 l 1,145,-1
 953 799 l 1,146,-1
 953 954 l 1,147,-1
 799 954 l 1,144,-1
958 954 m 1,148,-1
 958 799 l 1,149,-1
 1112 799 l 1,150,-1
 1112 954 l 1,151,-1
 958 954 l 1,148,-1
1117 954 m 1,152,-1
 1117 799 l 1,153,-1
 1271 799 l 1,154,-1
 1271 954 l 1,155,-1
 1117 954 l 1,152,-1
15 943 m 1,156,-1
 148 943 l 1,157,-1
 148 810 l 1,158,-1
 15 810 l 1,159,-1
 15 943 l 1,156,-1
173 943 m 1,160,-1
 307 943 l 1,161,-1
 307 810 l 1,162,-1
 173 810 l 1,163,-1
 173 943 l 1,160,-1
4 795 m 1,164,-1
 4 640 l 1,165,-1
 159 640 l 1,166,-1
 159 795 l 1,167,-1
 4 795 l 1,164,-1
163 795 m 1,168,-1
 163 640 l 1,169,-1
 317 640 l 1,170,-1
 317 795 l 1,171,-1
 163 795 l 1,168,-1
323 795 m 1,172,-1
 323 640 l 1,173,-1
 477 640 l 1,174,-1
 477 795 l 1,175,-1
 323 795 l 1,172,-1
481 795 m 1,176,-1
 481 640 l 1,177,-1
 636 640 l 1,178,-1
 636 795 l 1,179,-1
 481 795 l 1,176,-1
640 795 m 1,180,-1
 640 640 l 1,181,-1
 794 640 l 1,182,-1
 794 795 l 1,183,-1
 640 795 l 1,180,-1
799 795 m 1,184,-1
 799 640 l 1,185,-1
 953 640 l 1,186,-1
 953 795 l 1,187,-1
 799 795 l 1,184,-1
958 795 m 1,188,-1
 958 640 l 1,189,-1
 1112 640 l 1,190,-1
 1112 795 l 1,191,-1
 958 795 l 1,188,-1
1117 795 m 1,192,-1
 1117 640 l 1,193,-1
 1271 640 l 1,194,-1
 1271 795 l 1,195,-1
 1117 795 l 1,192,-1
173 784 m 1,196,-1
 307 784 l 1,197,-1
 307 651 l 1,198,-1
 173 651 l 1,199,-1
 173 784 l 1,196,-1
333 784 m 1,200,-1
 466 784 l 1,201,-1
 466 651 l 1,202,-1
 333 651 l 1,203,-1
 333 784 l 1,200,-1
492 784 m 1,204,-1
 625 784 l 1,205,-1
 625 651 l 1,206,-1
 492 651 l 1,207,-1
 492 784 l 1,204,-1
650 784 m 1,208,-1
 784 784 l 1,209,-1
 784 651 l 1,210,-1
 650 651 l 1,211,-1
 650 784 l 1,208,-1
810 784 m 1,212,-1
 943 784 l 1,213,-1
 943 651 l 1,214,-1
 810 651 l 1,215,-1
 810 784 l 1,212,-1
4 636 m 1,216,-1
 4 481 l 1,217,-1
 159 481 l 1,218,-1
 159 636 l 1,219,-1
 4 636 l 1,216,-1
163 636 m 1,220,-1
 163 481 l 1,221,-1
 317 481 l 1,222,-1
 317 636 l 1,223,-1
 163 636 l 1,220,-1
323 636 m 1,224,-1
 323 481 l 1,225,-1
 477 481 l 1,226,-1
 477 636 l 1,227,-1
 323 636 l 1,224,-1
481 636 m 1,228,-1
 481 481 l 1,229,-1
 636 481 l 1,230,-1
 636 636 l 1,231,-1
 481 636 l 1,228,-1
640 636 m 1,232,-1
 640 481 l 1,233,-1
 794 481 l 1,234,-1
 794 636 l 1,235,-1
 640 636 l 1,232,-1
799 636 m 1,236,-1
 799 481 l 1,237,-1
 953 481 l 1,238,-1
 953 636 l 1,239,-1
 799 636 l 1,236,-1
958 636 m 1,240,-1
 958 481 l 1,241,-1
 1112 481 l 1,242,-1
 1112 636 l 1,243,-1
 958 636 l 1,240,-1
1117 636 m 1,244,-1
 1117 481 l 1,245,-1
 1271 481 l 1,246,-1
 1271 636 l 1,247,-1
 1117 636 l 1,244,-1
810 625 m 1,248,-1
 943 625 l 1,249,-1
 943 492 l 1,250,-1
 810 492 l 1,251,-1
 810 625 l 1,248,-1
969 625 m 1,252,-1
 1102 625 l 1,253,-1
 1102 492 l 1,254,-1
 969 492 l 1,255,-1
 969 625 l 1,252,-1
4 477 m 1,256,-1
 4 323 l 1,257,-1
 159 323 l 1,258,-1
 159 477 l 1,259,-1
 4 477 l 1,256,-1
163 477 m 1,260,-1
 163 323 l 1,261,-1
 317 323 l 1,262,-1
 317 477 l 1,263,-1
 163 477 l 1,260,-1
323 477 m 1,264,-1
 323 323 l 1,265,-1
 477 323 l 1,266,-1
 477 477 l 1,267,-1
 323 477 l 1,264,-1
481 477 m 1,268,-1
 481 323 l 1,269,-1
 636 323 l 1,270,-1
 636 477 l 1,271,-1
 481 477 l 1,268,-1
640 477 m 1,272,-1
 640 323 l 1,273,-1
 794 323 l 1,274,-1
 794 477 l 1,275,-1
 640 477 l 1,272,-1
799 477 m 1,276,-1
 799 323 l 1,277,-1
 953 323 l 1,278,-1
 953 477 l 1,279,-1
 799 477 l 1,276,-1
958 477 m 1,280,-1
 958 323 l 1,281,-1
 1112 323 l 1,282,-1
 1112 477 l 1,283,-1
 958 477 l 1,280,-1
1117 477 m 1,284,-1
 1117 323 l 1,285,-1
 1271 323 l 1,286,-1
 1271 477 l 1,287,-1
 1117 477 l 1,284,-1
173 466 m 1,288,-1
 307 466 l 1,289,-1
 307 333 l 1,290,-1
 173 333 l 1,291,-1
 173 466 l 1,288,-1
333 466 m 1,292,-1
 466 466 l 1,293,-1
 466 333 l 1,294,-1
 333 333 l 1,295,-1
 333 466 l 1,292,-1
492 466 m 1,296,-1
 625 466 l 1,297,-1
 625 333 l 1,298,-1
 492 333 l 1,299,-1
 492 466 l 1,296,-1
650 466 m 1,300,-1
 784 466 l 1,301,-1
 784 333 l 1,302,-1
 650 333 l 1,303,-1
 650 466 l 1,300,-1
810 466 m 1,304,-1
 943 466 l 1,305,-1
 943 333 l 1,306,-1
 810 333 l 1,307,-1
 810 466 l 1,304,-1
4 317 m 1,308,-1
 4 163 l 1,309,-1
 159 163 l 1,310,-1
 159 317 l 1,311,-1
 4 317 l 1,308,-1
163 317 m 1,312,-1
 163 163 l 1,313,-1
 317 163 l 1,314,-1
 317 317 l 1,315,-1
 163 317 l 1,312,-1
323 317 m 1,316,-1
 323 163 l 1,317,-1
 477 163 l 1,318,-1
 477 317 l 1,319,-1
 323 317 l 1,316,-1
481 317 m 1,320,-1
 481 163 l 1,321,-1
 636 163 l 1,322,-1
 636 317 l 1,323,-1
 481 317 l 1,320,-1
640 317 m 1,324,-1
 640 163 l 1,325,-1
 794 163 l 1,326,-1
 794 317 l 1,327,-1
 640 317 l 1,324,-1
799 317 m 1,328,-1
 799 163 l 1,329,-1
 953 163 l 1,330,-1
 953 317 l 1,331,-1
 799 317 l 1,328,-1
958 317 m 1,332,-1
 958 163 l 1,333,-1
 1112 163 l 1,334,-1
 1112 317 l 1,335,-1
 958 317 l 1,332,-1
1117 317 m 1,336,-1
 1117 163 l 1,337,-1
 1271 163 l 1,338,-1
 1271 317 l 1,339,-1
 1117 317 l 1,336,-1
492 307 m 1,340,-1
 625 307 l 1,341,-1
 625 173 l 1,342,-1
 492 173 l 1,343,-1
 492 307 l 1,340,-1
4 159 m 1,344,-1
 4 4 l 1,345,-1
 159 4 l 1,346,-1
 159 159 l 1,347,-1
 4 159 l 1,344,-1
163 159 m 1,348,-1
 163 4 l 1,349,-1
 317 4 l 1,350,-1
 317 159 l 1,351,-1
 163 159 l 1,348,-1
323 159 m 1,352,-1
 323 4 l 1,353,-1
 477 4 l 1,354,-1
 477 159 l 1,355,-1
 323 159 l 1,352,-1
481 159 m 1,356,-1
 481 4 l 1,357,-1
 636 4 l 1,358,-1
 636 159 l 1,359,-1
 481 159 l 1,356,-1
640 159 m 1,360,-1
 640 4 l 1,361,-1
 794 4 l 1,362,-1
 794 159 l 1,363,-1
 640 159 l 1,360,-1
799 159 m 1,364,-1
 799 4 l 1,365,-1
 953 4 l 1,366,-1
 953 159 l 1,367,-1
 799 159 l 1,364,-1
958 159 m 1,368,-1
 958 4 l 1,369,-1
 1112 4 l 1,370,-1
 1112 159 l 1,371,-1
 958 159 l 1,368,-1
1117 159 m 1,372,-1
 1117 4 l 1,373,-1
 1271 4 l 1,374,-1
 1271 159 l 1,375,-1
 1117 159 l 1,372,-1
EndSplineSet
EndChar

StartChar: percent
Encoding: 37 37 8
Width: 1270
Flags: W
LayerCount: 2
Fore
SplineSet
0 1434 m 1,0,-1
 1275 1434 l 1,1,-1
 1275 0 l 1,2,-1
 0 0 l 1,3,-1
 0 1434 l 1,0,-1
4 1430 m 1,4,-1
 4 1275 l 1,5,-1
 159 1275 l 1,6,-1
 159 1430 l 1,7,-1
 4 1430 l 1,4,-1
163 1430 m 1,8,-1
 163 1275 l 1,9,-1
 317 1275 l 1,10,-1
 317 1430 l 1,11,-1
 163 1430 l 1,8,-1
322 1430 m 1,12,-1
 322 1275 l 1,13,-1
 477 1275 l 1,14,-1
 477 1430 l 1,15,-1
 322 1430 l 1,12,-1
481 1430 m 1,16,-1
 481 1275 l 1,17,-1
 635 1275 l 1,18,-1
 635 1430 l 1,19,-1
 481 1430 l 1,16,-1
639 1430 m 1,20,-1
 639 1275 l 1,21,-1
 794 1275 l 1,22,-1
 794 1430 l 1,23,-1
 639 1430 l 1,20,-1
798 1430 m 1,24,-1
 798 1275 l 1,25,-1
 952 1275 l 1,26,-1
 952 1430 l 1,27,-1
 798 1430 l 1,24,-1
957 1430 m 1,28,-1
 957 1275 l 1,29,-1
 1112 1275 l 1,30,-1
 1112 1430 l 1,31,-1
 957 1430 l 1,28,-1
1116 1430 m 1,32,-1
 1116 1275 l 1,33,-1
 1270 1275 l 1,34,-1
 1270 1430 l 1,35,-1
 1116 1430 l 1,32,-1
4 1271 m 1,36,-1
 4 1117 l 1,37,-1
 159 1117 l 1,38,-1
 159 1271 l 1,39,-1
 4 1271 l 1,36,-1
163 1271 m 1,40,-1
 163 1117 l 1,41,-1
 317 1117 l 1,42,-1
 317 1271 l 1,43,-1
 163 1271 l 1,40,-1
322 1271 m 1,44,-1
 322 1117 l 1,45,-1
 477 1117 l 1,46,-1
 477 1271 l 1,47,-1
 322 1271 l 1,44,-1
481 1271 m 1,48,-1
 481 1117 l 1,49,-1
 635 1117 l 1,50,-1
 635 1271 l 1,51,-1
 481 1271 l 1,48,-1
639 1271 m 1,52,-1
 639 1117 l 1,53,-1
 794 1117 l 1,54,-1
 794 1271 l 1,55,-1
 639 1271 l 1,52,-1
798 1271 m 1,56,-1
 798 1117 l 1,57,-1
 952 1117 l 1,58,-1
 952 1271 l 1,59,-1
 798 1271 l 1,56,-1
957 1271 m 1,60,-1
 957 1117 l 1,61,-1
 1112 1117 l 1,62,-1
 1112 1271 l 1,63,-1
 957 1271 l 1,60,-1
1116 1271 m 1,64,-1
 1116 1117 l 1,65,-1
 1270 1117 l 1,66,-1
 1270 1271 l 1,67,-1
 1116 1271 l 1,64,-1
15 1261 m 1,68,-1
 148 1261 l 1,69,-1
 148 1127 l 1,70,-1
 15 1127 l 1,71,-1
 15 1261 l 1,68,-1
175 1261 m 2,72,-1
 307 1261 l 1,73,-1
 307 1127 l 1,74,-1
 173 1127 l 1,75,-1
 173 1259 l 2,76,77
 174 1261 174 1261 175 1261 c 2,72,-1
809 1261 m 1,78,-1
 942 1261 l 1,79,-1
 942 1127 l 1,80,-1
 809 1127 l 1,81,-1
 809 1261 l 1,78,-1
968 1261 m 1,82,-1
 1100 1261 l 2,83,84
 1101 1260 1101 1260 1101 1259 c 2,85,-1
 1101 1127 l 1,86,-1
 968 1127 l 1,87,-1
 968 1261 l 1,82,-1
4 1112 m 1,88,-1
 4 957 l 1,89,-1
 159 957 l 1,90,-1
 159 1112 l 1,91,-1
 4 1112 l 1,88,-1
163 1112 m 1,92,-1
 163 957 l 1,93,-1
 317 957 l 1,94,-1
 317 1112 l 1,95,-1
 163 1112 l 1,92,-1
322 1112 m 1,96,-1
 322 957 l 1,97,-1
 477 957 l 1,98,-1
 477 1112 l 1,99,-1
 322 1112 l 1,96,-1
481 1112 m 1,100,-1
 481 957 l 1,101,-1
 635 957 l 1,102,-1
 635 1112 l 1,103,-1
 481 1112 l 1,100,-1
639 1112 m 1,104,-1
 639 957 l 1,105,-1
 794 957 l 1,106,-1
 794 1112 l 1,107,-1
 639 1112 l 1,104,-1
798 1112 m 1,108,-1
 798 957 l 1,109,-1
 952 957 l 1,110,-1
 952 1112 l 1,111,-1
 798 1112 l 1,108,-1
957 1112 m 1,112,-1
 957 957 l 1,113,-1
 1112 957 l 1,114,-1
 1112 1112 l 1,115,-1
 957 1112 l 1,112,-1
1116 1112 m 1,116,-1
 1116 957 l 1,117,-1
 1270 957 l 1,118,-1
 1270 1112 l 1,119,-1
 1116 1112 l 1,116,-1
15 1101 m 1,120,-1
 148 1101 l 1,121,-1
 148 968 l 1,122,-1
 15 968 l 1,123,-1
 15 1101 l 1,120,-1
173 1101 m 1,124,-1
 307 1101 l 1,125,-1
 307 968 l 1,126,-1
 173 968 l 1,127,-1
 173 1101 l 1,124,-1
650 1101 m 1,128,-1
 783 1101 l 1,129,-1
 783 968 l 1,130,-1
 650 968 l 1,131,-1
 650 1101 l 1,128,-1
809 1101 m 1,132,-1
 942 1101 l 1,133,-1
 942 968 l 1,134,-1
 809 968 l 1,135,-1
 809 1101 l 1,132,-1
968 1101 m 1,136,-1
 1101 1101 l 1,137,-1
 1101 968 l 1,138,-1
 968 968 l 1,139,-1
 968 1101 l 1,136,-1
4 953 m 1,140,-1
 4 799 l 1,141,-1
 159 799 l 1,142,-1
 159 953 l 1,143,-1
 4 953 l 1,140,-1
163 953 m 1,144,-1
 163 799 l 1,145,-1
 317 799 l 1,146,-1
 317 953 l 1,147,-1
 163 953 l 1,144,-1
322 953 m 1,148,-1
 322 799 l 1,149,-1
 477 799 l 1,150,-1
 477 953 l 1,151,-1
 322 953 l 1,148,-1
481 953 m 1,152,-1
 481 799 l 1,153,-1
 635 799 l 1,154,-1
 635 953 l 1,155,-1
 481 953 l 1,152,-1
639 953 m 1,156,-1
 639 799 l 1,157,-1
 794 799 l 1,158,-1
 794 953 l 1,159,-1
 639 953 l 1,156,-1
798 953 m 1,160,-1
 798 799 l 1,161,-1
 952 799 l 1,162,-1
 952 953 l 1,163,-1
 798 953 l 1,160,-1
957 953 m 1,164,-1
 957 799 l 1,165,-1
 1112 799 l 1,166,-1
 1112 953 l 1,167,-1
 957 953 l 1,164,-1
1116 953 m 1,168,-1
 1116 799 l 1,169,-1
 1270 799 l 1,170,-1
 1270 953 l 1,171,-1
 1116 953 l 1,168,-1
491 943 m 1,172,-1
 625 943 l 1,173,-1
 625 809 l 1,174,-1
 491 809 l 1,175,-1
 491 943 l 1,172,-1
650 943 m 1,176,-1
 783 943 l 1,177,-1
 783 809 l 1,178,-1
 650 809 l 1,179,-1
 650 943 l 1,176,-1
809 943 m 1,180,-1
 942 943 l 1,181,-1
 942 809 l 1,182,-1
 809 809 l 1,183,-1
 809 943 l 1,180,-1
4 795 m 1,184,-1
 4 639 l 1,185,-1
 159 639 l 1,186,-1
 159 795 l 1,187,-1
 4 795 l 1,184,-1
163 795 m 1,188,-1
 163 639 l 1,189,-1
 317 639 l 1,190,-1
 317 795 l 1,191,-1
 163 795 l 1,188,-1
322 795 m 1,192,-1
 322 639 l 1,193,-1
 477 639 l 1,194,-1
 477 795 l 1,195,-1
 322 795 l 1,192,-1
481 795 m 1,196,-1
 481 639 l 1,197,-1
 635 639 l 1,198,-1
 635 795 l 1,199,-1
 481 795 l 1,196,-1
639 795 m 1,200,-1
 639 639 l 1,201,-1
 794 639 l 1,202,-1
 794 795 l 1,203,-1
 639 795 l 1,200,-1
798 795 m 1,204,-1
 798 639 l 1,205,-1
 952 639 l 1,206,-1
 952 795 l 1,207,-1
 798 795 l 1,204,-1
957 795 m 1,208,-1
 957 639 l 1,209,-1
 1112 639 l 1,210,-1
 1112 795 l 1,211,-1
 957 795 l 1,208,-1
1116 795 m 1,212,-1
 1116 639 l 1,213,-1
 1270 639 l 1,214,-1
 1270 795 l 1,215,-1
 1116 795 l 1,212,-1
333 783 m 1,216,-1
 465 783 l 1,217,-1
 465 651 l 1,218,-1
 333 651 l 1,219,-1
 333 783 l 1,216,-1
491 783 m 1,220,-1
 625 783 l 1,221,-1
 625 651 l 1,222,-1
 491 651 l 1,223,-1
 491 783 l 1,220,-1
650 783 m 1,224,-1
 783 783 l 1,225,-1
 783 651 l 1,226,-1
 650 651 l 1,227,-1
 650 783 l 1,224,-1
4 635 m 1,228,-1
 4 481 l 1,229,-1
 159 481 l 1,230,-1
 159 635 l 1,231,-1
 4 635 l 1,228,-1
163 635 m 1,232,-1
 163 481 l 1,233,-1
 317 481 l 1,234,-1
 317 635 l 1,235,-1
 163 635 l 1,232,-1
322 635 m 1,236,-1
 322 481 l 1,237,-1
 477 481 l 1,238,-1
 477 635 l 1,239,-1
 322 635 l 1,236,-1
481 635 m 1,240,-1
 481 481 l 1,241,-1
 635 481 l 1,242,-1
 635 635 l 1,243,-1
 481 635 l 1,240,-1
639 635 m 1,244,-1
 639 481 l 1,245,-1
 794 481 l 1,246,-1
 794 635 l 1,247,-1
 639 635 l 1,244,-1
798 635 m 1,248,-1
 798 481 l 1,249,-1
 952 481 l 1,250,-1
 952 635 l 1,251,-1
 798 635 l 1,248,-1
957 635 m 1,252,-1
 957 481 l 1,253,-1
 1112 481 l 1,254,-1
 1112 635 l 1,255,-1
 957 635 l 1,252,-1
1116 635 m 1,256,-1
 1116 481 l 1,257,-1
 1270 481 l 1,258,-1
 1270 635 l 1,259,-1
 1116 635 l 1,256,-1
173 625 m 1,260,-1
 307 625 l 1,261,-1
 307 491 l 1,262,-1
 173 491 l 1,263,-1
 173 625 l 1,260,-1
333 625 m 1,264,-1
 465 625 l 1,265,-1
 465 491 l 1,266,-1
 333 491 l 1,267,-1
 333 625 l 1,264,-1
491 625 m 1,268,-1
 625 625 l 1,269,-1
 625 491 l 1,270,-1
 491 491 l 1,271,-1
 491 625 l 1,268,-1
4 477 m 1,272,-1
 4 322 l 1,273,-1
 159 322 l 1,274,-1
 159 477 l 1,275,-1
 4 477 l 1,272,-1
163 477 m 1,276,-1
 163 322 l 1,277,-1
 317 322 l 1,278,-1
 317 477 l 1,279,-1
 163 477 l 1,276,-1
322 477 m 1,280,-1
 322 322 l 1,281,-1
 477 322 l 1,282,-1
 477 477 l 1,283,-1
 322 477 l 1,280,-1
481 477 m 1,284,-1
 481 322 l 1,285,-1
 635 322 l 1,286,-1
 635 477 l 1,287,-1
 481 477 l 1,284,-1
639 477 m 1,288,-1
 639 322 l 1,289,-1
 794 322 l 1,290,-1
 794 477 l 1,291,-1
 639 477 l 1,288,-1
798 477 m 1,292,-1
 798 322 l 1,293,-1
 952 322 l 1,294,-1
 952 477 l 1,295,-1
 798 477 l 1,292,-1
957 477 m 1,296,-1
 957 322 l 1,297,-1
 1112 322 l 1,298,-1
 1112 477 l 1,299,-1
 957 477 l 1,296,-1
1116 477 m 1,300,-1
 1116 322 l 1,301,-1
 1270 322 l 1,302,-1
 1270 477 l 1,303,-1
 1116 477 l 1,300,-1
15 466 m 1,304,-1
 148 466 l 1,305,-1
 148 333 l 1,306,-1
 15 333 l 1,307,-1
 15 466 l 1,304,-1
173 466 m 1,308,-1
 307 466 l 1,309,-1
 307 333 l 1,310,-1
 173 333 l 1,311,-1
 173 466 l 1,308,-1
333 466 m 1,312,-1
 465 466 l 1,313,-1
 465 333 l 1,314,-1
 333 333 l 1,315,-1
 333 466 l 1,312,-1
809 466 m 1,316,-1
 942 466 l 1,317,-1
 942 333 l 1,318,-1
 809 333 l 1,319,-1
 809 466 l 1,316,-1
968 466 m 1,320,-1
 1101 466 l 1,321,-1
 1101 333 l 1,322,-1
 968 333 l 1,323,-1
 968 466 l 1,320,-1
4 317 m 1,324,-1
 4 163 l 1,325,-1
 159 163 l 1,326,-1
 159 317 l 1,327,-1
 4 317 l 1,324,-1
163 317 m 1,328,-1
 163 163 l 1,329,-1
 317 163 l 1,330,-1
 317 317 l 1,331,-1
 163 317 l 1,328,-1
322 317 m 1,332,-1
 322 163 l 1,333,-1
 477 163 l 1,334,-1
 477 317 l 1,335,-1
 322 317 l 1,332,-1
481 317 m 1,336,-1
 481 163 l 1,337,-1
 635 163 l 1,338,-1
 635 317 l 1,339,-1
 481 317 l 1,336,-1
639 317 m 1,340,-1
 639 163 l 1,341,-1
 794 163 l 1,342,-1
 794 317 l 1,343,-1
 639 317 l 1,340,-1
798 317 m 1,344,-1
 798 163 l 1,345,-1
 952 163 l 1,346,-1
 952 317 l 1,347,-1
 798 317 l 1,344,-1
957 317 m 1,348,-1
 957 163 l 1,349,-1
 1112 163 l 1,350,-1
 1112 317 l 1,351,-1
 957 317 l 1,348,-1
1116 317 m 1,352,-1
 1116 163 l 1,353,-1
 1270 163 l 1,354,-1
 1270 317 l 1,355,-1
 1116 317 l 1,352,-1
15 307 m 1,356,-1
 148 307 l 1,357,-1
 148 173 l 1,358,-1
 15 173 l 1,359,-1
 15 307 l 1,356,-1
173 307 m 1,360,-1
 307 307 l 1,361,-1
 307 173 l 1,362,-1
 175 173 l 2,363,364
 173 173 173 173 173 175 c 2,365,-1
 173 307 l 1,360,-1
809 307 m 1,366,-1
 942 307 l 1,367,-1
 942 173 l 1,368,-1
 809 173 l 1,369,-1
 809 307 l 1,366,-1
968 307 m 1,370,-1
 1101 307 l 1,371,-1
 1101 175 l 2,372,373
 1101 173 1101 173 1100 173 c 2,374,-1
 968 173 l 1,375,-1
 968 307 l 1,370,-1
4 159 m 1,376,-1
 4 4 l 1,377,-1
 159 4 l 1,378,-1
 159 159 l 1,379,-1
 4 159 l 1,376,-1
163 159 m 1,380,-1
 163 4 l 1,381,-1
 317 4 l 1,382,-1
 317 159 l 1,383,-1
 163 159 l 1,380,-1
322 159 m 1,384,-1
 322 4 l 1,385,-1
 477 4 l 1,386,-1
 477 159 l 1,387,-1
 322 159 l 1,384,-1
481 159 m 1,388,-1
 481 4 l 1,389,-1
 635 4 l 1,390,-1
 635 159 l 1,391,-1
 481 159 l 1,388,-1
639 159 m 1,392,-1
 639 4 l 1,393,-1
 794 4 l 1,394,-1
 794 159 l 1,395,-1
 639 159 l 1,392,-1
798 159 m 1,396,-1
 798 4 l 1,397,-1
 952 4 l 1,398,-1
 952 159 l 1,399,-1
 798 159 l 1,396,-1
957 159 m 1,400,-1
 957 4 l 1,401,-1
 1112 4 l 1,402,-1
 1112 159 l 1,403,-1
 957 159 l 1,400,-1
1116 159 m 1,404,-1
 1116 4 l 1,405,-1
 1270 4 l 1,406,-1
 1270 159 l 1,407,-1
 1116 159 l 1,404,-1
EndSplineSet
EndChar

StartChar: ampersand
Encoding: 38 38 9
Width: 1270
Flags: W
LayerCount: 2
Fore
SplineSet
0 1434 m 1,0,-1
 1275 1434 l 1,1,-1
 1275 0 l 1,2,-1
 0 0 l 1,3,-1
 0 1434 l 1,0,-1
4 1430 m 1,4,-1
 4 1275 l 1,5,-1
 159 1275 l 1,6,-1
 159 1430 l 1,7,-1
 4 1430 l 1,4,-1
163 1430 m 1,8,-1
 163 1275 l 1,9,-1
 317 1275 l 1,10,-1
 317 1430 l 1,11,-1
 163 1430 l 1,8,-1
322 1430 m 1,12,-1
 322 1275 l 1,13,-1
 477 1275 l 1,14,-1
 477 1430 l 1,15,-1
 322 1430 l 1,12,-1
481 1430 m 1,16,-1
 481 1275 l 1,17,-1
 635 1275 l 1,18,-1
 635 1430 l 1,19,-1
 481 1430 l 1,16,-1
639 1430 m 1,20,-1
 639 1275 l 1,21,-1
 794 1275 l 1,22,-1
 794 1430 l 1,23,-1
 639 1430 l 1,20,-1
798 1430 m 1,24,-1
 798 1275 l 1,25,-1
 952 1275 l 1,26,-1
 952 1430 l 1,27,-1
 798 1430 l 1,24,-1
957 1430 m 1,28,-1
 957 1275 l 1,29,-1
 1112 1275 l 1,30,-1
 1112 1430 l 1,31,-1
 957 1430 l 1,28,-1
1116 1430 m 1,32,-1
 1116 1275 l 1,33,-1
 1270 1275 l 1,34,-1
 1270 1430 l 1,35,-1
 1116 1430 l 1,32,-1
4 1271 m 1,36,-1
 4 1117 l 1,37,-1
 159 1117 l 1,38,-1
 159 1271 l 1,39,-1
 4 1271 l 1,36,-1
163 1271 m 1,40,-1
 163 1117 l 1,41,-1
 317 1117 l 1,42,-1
 317 1271 l 1,43,-1
 163 1271 l 1,40,-1
322 1271 m 1,44,-1
 322 1117 l 1,45,-1
 477 1117 l 1,46,-1
 477 1271 l 1,47,-1
 322 1271 l 1,44,-1
481 1271 m 1,48,-1
 481 1117 l 1,49,-1
 635 1117 l 1,50,-1
 635 1271 l 1,51,-1
 481 1271 l 1,48,-1
639 1271 m 1,52,-1
 639 1117 l 1,53,-1
 794 1117 l 1,54,-1
 794 1271 l 1,55,-1
 639 1271 l 1,52,-1
798 1271 m 1,56,-1
 798 1117 l 1,57,-1
 952 1117 l 1,58,-1
 952 1271 l 1,59,-1
 798 1271 l 1,56,-1
957 1271 m 1,60,-1
 957 1117 l 1,61,-1
 1112 1117 l 1,62,-1
 1112 1271 l 1,63,-1
 957 1271 l 1,60,-1
1116 1271 m 1,64,-1
 1116 1117 l 1,65,-1
 1270 1117 l 1,66,-1
 1270 1271 l 1,67,-1
 1116 1271 l 1,64,-1
175 1261 m 2,68,-1
 307 1261 l 1,69,-1
 307 1127 l 1,70,-1
 173 1127 l 1,71,-1
 173 1259 l 2,72,73
 174 1261 174 1261 175 1261 c 2,68,-1
333 1261 m 1,74,-1
 465 1261 l 1,75,-1
 465 1127 l 1,76,-1
 333 1127 l 1,77,-1
 333 1261 l 1,74,-1
491 1261 m 1,78,-1
 625 1261 l 1,79,-1
 625 1127 l 1,80,-1
 491 1127 l 1,81,-1
 491 1261 l 1,78,-1
650 1261 m 1,82,-1
 783 1261 l 1,83,-1
 783 1127 l 1,84,-1
 650 1127 l 1,85,-1
 650 1261 l 1,82,-1
4 1112 m 1,86,-1
 4 957 l 1,87,-1
 159 957 l 1,88,-1
 159 1112 l 1,89,-1
 4 1112 l 1,86,-1
163 1112 m 1,90,-1
 163 957 l 1,91,-1
 317 957 l 1,92,-1
 317 1112 l 1,93,-1
 163 1112 l 1,90,-1
322 1112 m 1,94,-1
 322 957 l 1,95,-1
 477 957 l 1,96,-1
 477 1112 l 1,97,-1
 322 1112 l 1,94,-1
481 1112 m 1,98,-1
 481 957 l 1,99,-1
 635 957 l 1,100,-1
 635 1112 l 1,101,-1
 481 1112 l 1,98,-1
639 1112 m 1,102,-1
 639 957 l 1,103,-1
 794 957 l 1,104,-1
 794 1112 l 1,105,-1
 639 1112 l 1,102,-1
798 1112 m 1,106,-1
 798 957 l 1,107,-1
 952 957 l 1,108,-1
 952 1112 l 1,109,-1
 798 1112 l 1,106,-1
957 1112 m 1,110,-1
 957 957 l 1,111,-1
 1112 957 l 1,112,-1
 1112 1112 l 1,113,-1
 957 1112 l 1,110,-1
1116 1112 m 1,114,-1
 1116 957 l 1,115,-1
 1270 957 l 1,116,-1
 1270 1112 l 1,117,-1
 1116 1112 l 1,114,-1
15 1101 m 1,118,-1
 148 1101 l 1,119,-1
 148 968 l 1,120,-1
 15 968 l 1,121,-1
 15 1101 l 1,118,-1
173 1101 m 1,122,-1
 307 1101 l 1,123,-1
 307 968 l 1,124,-1
 173 968 l 1,125,-1
 173 1101 l 1,122,-1
650 1101 m 1,126,-1
 783 1101 l 1,127,-1
 783 968 l 1,128,-1
 650 968 l 1,129,-1
 650 1101 l 1,126,-1
809 1101 m 1,130,-1
 942 1101 l 1,131,-1
 942 968 l 1,132,-1
 809 968 l 1,133,-1
 809 1101 l 1,130,-1
4 953 m 1,134,-1
 4 799 l 1,135,-1
 159 799 l 1,136,-1
 159 953 l 1,137,-1
 4 953 l 1,134,-1
163 953 m 1,138,-1
 163 799 l 1,139,-1
 317 799 l 1,140,-1
 317 953 l 1,141,-1
 163 953 l 1,138,-1
322 953 m 1,142,-1
 322 799 l 1,143,-1
 477 799 l 1,144,-1
 477 953 l 1,145,-1
 322 953 l 1,142,-1
481 953 m 1,146,-1
 481 799 l 1,147,-1
 635 799 l 1,148,-1
 635 953 l 1,149,-1
 481 953 l 1,146,-1
639 953 m 1,150,-1
 639 799 l 1,151,-1
 794 799 l 1,152,-1
 794 953 l 1,153,-1
 639 953 l 1,150,-1
798 953 m 1,154,-1
 798 799 l 1,155,-1
 952 799 l 1,156,-1
 952 953 l 1,157,-1
 798 953 l 1,154,-1
957 953 m 1,158,-1
 957 799 l 1,159,-1
 1112 799 l 1,160,-1
 1112 953 l 1,161,-1
 957 953 l 1,158,-1
1116 953 m 1,162,-1
 1116 799 l 1,163,-1
 1270 799 l 1,164,-1
 1270 953 l 1,165,-1
 1116 953 l 1,162,-1
15 943 m 1,166,-1
 148 943 l 1,167,-1
 148 809 l 1,168,-1
 15 809 l 1,169,-1
 15 943 l 1,166,-1
173 943 m 1,170,-1
 307 943 l 1,171,-1
 307 809 l 1,172,-1
 173 809 l 1,173,-1
 173 943 l 1,170,-1
4 795 m 1,174,-1
 4 639 l 1,175,-1
 159 639 l 1,176,-1
 159 795 l 1,177,-1
 4 795 l 1,174,-1
163 795 m 1,178,-1
 163 639 l 1,179,-1
 317 639 l 1,180,-1
 317 795 l 1,181,-1
 163 795 l 1,178,-1
322 795 m 1,182,-1
 322 639 l 1,183,-1
 477 639 l 1,184,-1
 477 795 l 1,185,-1
 322 795 l 1,182,-1
481 795 m 1,186,-1
 481 639 l 1,187,-1
 635 639 l 1,188,-1
 635 795 l 1,189,-1
 481 795 l 1,186,-1
639 795 m 1,190,-1
 639 639 l 1,191,-1
 794 639 l 1,192,-1
 794 795 l 1,193,-1
 639 795 l 1,190,-1
798 795 m 1,194,-1
 798 639 l 1,195,-1
 952 639 l 1,196,-1
 952 795 l 1,197,-1
 798 795 l 1,194,-1
957 795 m 1,198,-1
 957 639 l 1,199,-1
 1112 639 l 1,200,-1
 1112 795 l 1,201,-1
 957 795 l 1,198,-1
1116 795 m 1,202,-1
 1116 639 l 1,203,-1
 1270 639 l 1,204,-1
 1270 795 l 1,205,-1
 1116 795 l 1,202,-1
173 783 m 1,206,-1
 307 783 l 1,207,-1
 307 651 l 1,208,-1
 173 651 l 1,209,-1
 173 783 l 1,206,-1
333 783 m 1,210,-1
 465 783 l 1,211,-1
 465 651 l 1,212,-1
 333 651 l 1,213,-1
 333 783 l 1,210,-1
491 783 m 1,214,-1
 625 783 l 1,215,-1
 625 651 l 1,216,-1
 491 651 l 1,217,-1
 491 783 l 1,214,-1
650 783 m 1,218,-1
 783 783 l 1,219,-1
 783 651 l 1,220,-1
 650 651 l 1,221,-1
 650 783 l 1,218,-1
809 783 m 1,222,-1
 942 783 l 1,223,-1
 942 651 l 1,224,-1
 809 651 l 1,225,-1
 809 783 l 1,222,-1
968 783 m 1,226,-1
 1101 783 l 1,227,-1
 1101 651 l 1,228,-1
 968 651 l 1,229,-1
 968 783 l 1,226,-1
4 635 m 1,230,-1
 4 481 l 1,231,-1
 159 481 l 1,232,-1
 159 635 l 1,233,-1
 4 635 l 1,230,-1
163 635 m 1,234,-1
 163 481 l 1,235,-1
 317 481 l 1,236,-1
 317 635 l 1,237,-1
 163 635 l 1,234,-1
322 635 m 1,238,-1
 322 481 l 1,239,-1
 477 481 l 1,240,-1
 477 635 l 1,241,-1
 322 635 l 1,238,-1
481 635 m 1,242,-1
 481 481 l 1,243,-1
 635 481 l 1,244,-1
 635 635 l 1,245,-1
 481 635 l 1,242,-1
639 635 m 1,246,-1
 639 481 l 1,247,-1
 794 481 l 1,248,-1
 794 635 l 1,249,-1
 639 635 l 1,246,-1
798 635 m 1,250,-1
 798 481 l 1,251,-1
 952 481 l 1,252,-1
 952 635 l 1,253,-1
 798 635 l 1,250,-1
957 635 m 1,254,-1
 957 481 l 1,255,-1
 1112 481 l 1,256,-1
 1112 635 l 1,257,-1
 957 635 l 1,254,-1
1116 635 m 1,258,-1
 1116 481 l 1,259,-1
 1270 481 l 1,260,-1
 1270 635 l 1,261,-1
 1116 635 l 1,258,-1
15 625 m 1,262,-1
 148 625 l 1,263,-1
 148 491 l 1,264,-1
 15 491 l 1,265,-1
 15 625 l 1,262,-1
173 625 m 1,266,-1
 307 625 l 1,267,-1
 307 491 l 1,268,-1
 173 491 l 1,269,-1
 173 625 l 1,266,-1
491 625 m 1,270,-1
 625 625 l 1,271,-1
 625 491 l 1,272,-1
 491 491 l 1,273,-1
 491 625 l 1,270,-1
650 625 m 1,274,-1
 783 625 l 1,275,-1
 783 491 l 1,276,-1
 650 491 l 1,277,-1
 650 625 l 1,274,-1
4 477 m 1,278,-1
 4 322 l 1,279,-1
 159 322 l 1,280,-1
 159 477 l 1,281,-1
 4 477 l 1,278,-1
163 477 m 1,282,-1
 163 322 l 1,283,-1
 317 322 l 1,284,-1
 317 477 l 1,285,-1
 163 477 l 1,282,-1
322 477 m 1,286,-1
 322 322 l 1,287,-1
 477 322 l 1,288,-1
 477 477 l 1,289,-1
 322 477 l 1,286,-1
481 477 m 1,290,-1
 481 322 l 1,291,-1
 635 322 l 1,292,-1
 635 477 l 1,293,-1
 481 477 l 1,290,-1
639 477 m 1,294,-1
 639 322 l 1,295,-1
 794 322 l 1,296,-1
 794 477 l 1,297,-1
 639 477 l 1,294,-1
798 477 m 1,298,-1
 798 322 l 1,299,-1
 952 322 l 1,300,-1
 952 477 l 1,301,-1
 798 477 l 1,298,-1
957 477 m 1,302,-1
 957 322 l 1,303,-1
 1112 322 l 1,304,-1
 1112 477 l 1,305,-1
 957 477 l 1,302,-1
1116 477 m 1,306,-1
 1116 322 l 1,307,-1
 1270 322 l 1,308,-1
 1270 477 l 1,309,-1
 1116 477 l 1,306,-1
15 466 m 1,310,-1
 148 466 l 1,311,-1
 148 333 l 1,312,-1
 15 333 l 1,313,-1
 15 466 l 1,310,-1
173 466 m 1,314,-1
 307 466 l 1,315,-1
 307 333 l 1,316,-1
 173 333 l 1,317,-1
 173 466 l 1,314,-1
491 466 m 1,318,-1
 625 466 l 1,319,-1
 625 333 l 1,320,-1
 491 333 l 1,321,-1
 491 466 l 1,318,-1
650 466 m 1,322,-1
 783 466 l 1,323,-1
 783 333 l 1,324,-1
 650 333 l 1,325,-1
 650 466 l 1,322,-1
809 466 m 1,326,-1
 942 466 l 1,327,-1
 942 333 l 1,328,-1
 809 333 l 1,329,-1
 809 466 l 1,326,-1
4 317 m 1,330,-1
 4 163 l 1,331,-1
 159 163 l 1,332,-1
 159 317 l 1,333,-1
 4 317 l 1,330,-1
163 317 m 1,334,-1
 163 163 l 1,335,-1
 317 163 l 1,336,-1
 317 317 l 1,337,-1
 163 317 l 1,334,-1
322 317 m 1,338,-1
 322 163 l 1,339,-1
 477 163 l 1,340,-1
 477 317 l 1,341,-1
 322 317 l 1,338,-1
481 317 m 1,342,-1
 481 163 l 1,343,-1
 635 163 l 1,344,-1
 635 317 l 1,345,-1
 481 317 l 1,342,-1
639 317 m 1,346,-1
 639 163 l 1,347,-1
 794 163 l 1,348,-1
 794 317 l 1,349,-1
 639 317 l 1,346,-1
798 317 m 1,350,-1
 798 163 l 1,351,-1
 952 163 l 1,352,-1
 952 317 l 1,353,-1
 798 317 l 1,350,-1
957 317 m 1,354,-1
 957 163 l 1,355,-1
 1112 163 l 1,356,-1
 1112 317 l 1,357,-1
 957 317 l 1,354,-1
1116 317 m 1,358,-1
 1116 163 l 1,359,-1
 1270 163 l 1,360,-1
 1270 317 l 1,361,-1
 1116 317 l 1,358,-1
173 307 m 1,362,-1
 307 307 l 1,363,-1
 307 173 l 1,364,-1
 175 173 l 2,365,366
 173 173 173 173 173 175 c 2,367,-1
 173 307 l 1,362,-1
333 307 m 1,368,-1
 465 307 l 1,369,-1
 465 173 l 1,370,-1
 333 173 l 1,371,-1
 333 307 l 1,368,-1
491 307 m 1,372,-1
 625 307 l 1,373,-1
 625 173 l 1,374,-1
 491 173 l 1,375,-1
 491 307 l 1,372,-1
809 307 m 1,376,-1
 942 307 l 1,377,-1
 942 173 l 1,378,-1
 809 173 l 1,379,-1
 809 307 l 1,376,-1
968 307 m 1,380,-1
 1101 307 l 1,381,-1
 1101 175 l 2,382,383
 1101 173 1101 173 1100 173 c 2,384,-1
 968 173 l 1,385,-1
 968 307 l 1,380,-1
4 159 m 1,386,-1
 4 4 l 1,387,-1
 159 4 l 1,388,-1
 159 159 l 1,389,-1
 4 159 l 1,386,-1
163 159 m 1,390,-1
 163 4 l 1,391,-1
 317 4 l 1,392,-1
 317 159 l 1,393,-1
 163 159 l 1,390,-1
322 159 m 1,394,-1
 322 4 l 1,395,-1
 477 4 l 1,396,-1
 477 159 l 1,397,-1
 322 159 l 1,394,-1
481 159 m 1,398,-1
 481 4 l 1,399,-1
 635 4 l 1,400,-1
 635 159 l 1,401,-1
 481 159 l 1,398,-1
639 159 m 1,402,-1
 639 4 l 1,403,-1
 794 4 l 1,404,-1
 794 159 l 1,405,-1
 639 159 l 1,402,-1
798 159 m 1,406,-1
 798 4 l 1,407,-1
 952 4 l 1,408,-1
 952 159 l 1,409,-1
 798 159 l 1,406,-1
957 159 m 1,410,-1
 957 4 l 1,411,-1
 1112 4 l 1,412,-1
 1112 159 l 1,413,-1
 957 159 l 1,410,-1
1116 159 m 1,414,-1
 1116 4 l 1,415,-1
 1270 4 l 1,416,-1
 1270 159 l 1,417,-1
 1116 159 l 1,414,-1
EndSplineSet
EndChar

StartChar: quotesingle
Encoding: 39 39 10
Width: 476
Flags: W
LayerCount: 2
Fore
SplineSet
0 1434 m 1,0,-1
 481 1434 l 1,1,-1
 481 0 l 1,2,-1
 0 0 l 1,3,-1
 0 1434 l 1,0,-1
4 1430 m 1,4,-1
 4 1276 l 1,5,-1
 159 1276 l 1,6,-1
 159 1430 l 1,7,-1
 4 1430 l 1,4,-1
163 1430 m 1,8,-1
 163 1276 l 1,9,-1
 318 1276 l 1,10,-1
 318 1430 l 1,11,-1
 163 1430 l 1,8,-1
322 1430 m 1,12,-1
 322 1276 l 1,13,-1
 477 1276 l 1,14,-1
 477 1430 l 1,15,-1
 322 1430 l 1,12,-1
4 1271 m 1,16,-1
 4 1117 l 1,17,-1
 159 1117 l 1,18,-1
 159 1271 l 1,19,-1
 4 1271 l 1,16,-1
163 1271 m 1,20,-1
 163 1117 l 1,21,-1
 318 1117 l 1,22,-1
 318 1271 l 1,23,-1
 163 1271 l 1,20,-1
322 1271 m 1,24,-1
 322 1117 l 1,25,-1
 477 1117 l 1,26,-1
 477 1271 l 1,27,-1
 322 1271 l 1,24,-1
15 1261 m 1,28,-1
 148 1261 l 1,29,-1
 148 1128 l 1,30,-1
 15 1128 l 1,31,-1
 15 1261 l 1,28,-1
174 1261 m 1,32,-1
 307 1261 l 1,33,-1
 307 1128 l 1,34,-1
 174 1128 l 1,35,-1
 174 1261 l 1,32,-1
4 1112 m 1,36,-1
 4 958 l 1,37,-1
 159 958 l 1,38,-1
 159 1112 l 1,39,-1
 4 1112 l 1,36,-1
163 1112 m 1,40,-1
 163 958 l 1,41,-1
 318 958 l 1,42,-1
 318 1112 l 1,43,-1
 163 1112 l 1,40,-1
322 1112 m 1,44,-1
 322 958 l 1,45,-1
 477 958 l 1,46,-1
 477 1112 l 1,47,-1
 322 1112 l 1,44,-1
15 1102 m 1,48,-1
 148 1102 l 1,49,-1
 148 968 l 1,50,-1
 15 968 l 1,51,-1
 15 1102 l 1,48,-1
174 1102 m 1,52,-1
 307 1102 l 1,53,-1
 307 968 l 1,54,-1
 174 968 l 1,55,-1
 174 1102 l 1,52,-1
4 953 m 1,56,-1
 4 799 l 1,57,-1
 159 799 l 1,58,-1
 159 953 l 1,59,-1
 4 953 l 1,56,-1
163 953 m 1,60,-1
 163 799 l 1,61,-1
 318 799 l 1,62,-1
 318 953 l 1,63,-1
 163 953 l 1,60,-1
322 953 m 1,64,-1
 322 799 l 1,65,-1
 477 799 l 1,66,-1
 477 953 l 1,67,-1
 322 953 l 1,64,-1
15 943 m 1,68,-1
 148 943 l 1,69,-1
 148 809 l 1,70,-1
 15 809 l 1,71,-1
 15 943 l 1,68,-1
174 943 m 1,72,-1
 307 943 l 1,73,-1
 307 809 l 1,74,-1
 174 809 l 1,75,-1
 174 943 l 1,72,-1
4 795 m 1,76,-1
 4 640 l 1,77,-1
 159 640 l 1,78,-1
 159 795 l 1,79,-1
 4 795 l 1,76,-1
163 795 m 1,80,-1
 163 640 l 1,81,-1
 318 640 l 1,82,-1
 318 795 l 1,83,-1
 163 795 l 1,80,-1
322 795 m 1,84,-1
 322 640 l 1,85,-1
 477 640 l 1,86,-1
 477 795 l 1,87,-1
 322 795 l 1,84,-1
4 635 m 1,88,-1
 4 481 l 1,89,-1
 159 481 l 1,90,-1
 159 635 l 1,91,-1
 4 635 l 1,88,-1
163 635 m 1,92,-1
 163 481 l 1,93,-1
 318 481 l 1,94,-1
 318 635 l 1,95,-1
 163 635 l 1,92,-1
322 635 m 1,96,-1
 322 481 l 1,97,-1
 477 481 l 1,98,-1
 477 635 l 1,99,-1
 322 635 l 1,96,-1
4 477 m 1,100,-1
 4 322 l 1,101,-1
 159 322 l 1,102,-1
 159 477 l 1,103,-1
 4 477 l 1,100,-1
163 477 m 1,104,-1
 163 322 l 1,105,-1
 318 322 l 1,106,-1
 318 477 l 1,107,-1
 163 477 l 1,104,-1
322 477 m 1,108,-1
 322 322 l 1,109,-1
 477 322 l 1,110,-1
 477 477 l 1,111,-1
 322 477 l 1,108,-1
4 317 m 1,112,-1
 4 163 l 1,113,-1
 159 163 l 1,114,-1
 159 317 l 1,115,-1
 4 317 l 1,112,-1
163 317 m 1,116,-1
 163 163 l 1,117,-1
 318 163 l 1,118,-1
 318 317 l 1,119,-1
 163 317 l 1,116,-1
322 317 m 1,120,-1
 322 163 l 1,121,-1
 477 163 l 1,122,-1
 477 317 l 1,123,-1
 322 317 l 1,120,-1
4 159 m 1,124,-1
 4 4 l 1,125,-1
 159 4 l 1,126,-1
 159 159 l 1,127,-1
 4 159 l 1,124,-1
163 159 m 1,128,-1
 163 4 l 1,129,-1
 318 4 l 1,130,-1
 318 159 l 1,131,-1
 163 159 l 1,128,-1
322 159 m 1,132,-1
 322 4 l 1,133,-1
 477 4 l 1,134,-1
 477 159 l 1,135,-1
 322 159 l 1,132,-1
EndSplineSet
EndChar

StartChar: parenleft
Encoding: 40 40 11
Width: 794
Flags: W
LayerCount: 2
Fore
SplineSet
0 1434 m 1,0,-1
 798 1434 l 1,1,-1
 798 0 l 1,2,-1
 0 0 l 1,3,-1
 0 1434 l 1,0,-1
4 1430 m 1,4,-1
 4 1275 l 1,5,-1
 159 1275 l 1,6,-1
 159 1430 l 1,7,-1
 4 1430 l 1,4,-1
163 1430 m 1,8,-1
 163 1275 l 1,9,-1
 317 1275 l 1,10,-1
 317 1430 l 1,11,-1
 163 1430 l 1,8,-1
322 1430 m 1,12,-1
 322 1275 l 1,13,-1
 476 1275 l 1,14,-1
 476 1430 l 1,15,-1
 322 1430 l 1,12,-1
481 1430 m 1,16,-1
 481 1275 l 1,17,-1
 635 1275 l 1,18,-1
 635 1430 l 1,19,-1
 481 1430 l 1,16,-1
639 1430 m 1,20,-1
 639 1275 l 1,21,-1
 794 1275 l 1,22,-1
 794 1430 l 1,23,-1
 639 1430 l 1,20,-1
4 1271 m 1,24,-1
 4 1117 l 1,25,-1
 159 1117 l 1,26,-1
 159 1271 l 1,27,-1
 4 1271 l 1,24,-1
163 1271 m 1,28,-1
 163 1117 l 1,29,-1
 317 1117 l 1,30,-1
 317 1271 l 1,31,-1
 163 1271 l 1,28,-1
322 1271 m 1,32,-1
 322 1117 l 1,33,-1
 476 1117 l 1,34,-1
 476 1271 l 1,35,-1
 322 1271 l 1,32,-1
481 1271 m 1,36,-1
 481 1117 l 1,37,-1
 635 1117 l 1,38,-1
 635 1271 l 1,39,-1
 481 1271 l 1,36,-1
639 1271 m 1,40,-1
 639 1117 l 1,41,-1
 794 1117 l 1,42,-1
 794 1271 l 1,43,-1
 639 1271 l 1,40,-1
333 1261 m 1,44,-1
 465 1261 l 1,45,-1
 465 1127 l 1,46,-1
 333 1127 l 1,47,-1
 333 1261 l 1,44,-1
491 1261 m 1,48,-1
 625 1261 l 1,49,-1
 625 1127 l 1,50,-1
 491 1127 l 1,51,-1
 491 1261 l 1,48,-1
4 1112 m 1,52,-1
 4 957 l 1,53,-1
 159 957 l 1,54,-1
 159 1112 l 1,55,-1
 4 1112 l 1,52,-1
163 1112 m 1,56,-1
 163 957 l 1,57,-1
 317 957 l 1,58,-1
 317 1112 l 1,59,-1
 163 1112 l 1,56,-1
322 1112 m 1,60,-1
 322 957 l 1,61,-1
 476 957 l 1,62,-1
 476 1112 l 1,63,-1
 322 1112 l 1,60,-1
481 1112 m 1,64,-1
 481 957 l 1,65,-1
 635 957 l 1,66,-1
 635 1112 l 1,67,-1
 481 1112 l 1,64,-1
639 1112 m 1,68,-1
 639 957 l 1,69,-1
 794 957 l 1,70,-1
 794 1112 l 1,71,-1
 639 1112 l 1,68,-1
173 1101 m 1,72,-1
 307 1101 l 1,73,-1
 307 968 l 1,74,-1
 173 968 l 1,75,-1
 173 1101 l 1,72,-1
333 1101 m 1,76,-1
 465 1101 l 1,77,-1
 465 968 l 1,78,-1
 333 968 l 1,79,-1
 333 1101 l 1,76,-1
4 953 m 1,80,-1
 4 799 l 1,81,-1
 159 799 l 1,82,-1
 159 953 l 1,83,-1
 4 953 l 1,80,-1
163 953 m 1,84,-1
 163 799 l 1,85,-1
 317 799 l 1,86,-1
 317 953 l 1,87,-1
 163 953 l 1,84,-1
322 953 m 1,88,-1
 322 799 l 1,89,-1
 476 799 l 1,90,-1
 476 953 l 1,91,-1
 322 953 l 1,88,-1
481 953 m 1,92,-1
 481 799 l 1,93,-1
 635 799 l 1,94,-1
 635 953 l 1,95,-1
 481 953 l 1,92,-1
639 953 m 1,96,-1
 639 799 l 1,97,-1
 794 799 l 1,98,-1
 794 953 l 1,99,-1
 639 953 l 1,96,-1
15 943 m 1,100,-1
 148 943 l 1,101,-1
 148 809 l 1,102,-1
 15 809 l 1,103,-1
 15 943 l 1,100,-1
173 943 m 1,104,-1
 307 943 l 1,105,-1
 307 809 l 1,106,-1
 173 809 l 1,107,-1
 173 943 l 1,104,-1
4 795 m 1,108,-1
 4 639 l 1,109,-1
 159 639 l 1,110,-1
 159 795 l 1,111,-1
 4 795 l 1,108,-1
163 795 m 1,112,-1
 163 639 l 1,113,-1
 317 639 l 1,114,-1
 317 795 l 1,115,-1
 163 795 l 1,112,-1
322 795 m 1,116,-1
 322 639 l 1,117,-1
 476 639 l 1,118,-1
 476 795 l 1,119,-1
 322 795 l 1,116,-1
481 795 m 1,120,-1
 481 639 l 1,121,-1
 635 639 l 1,122,-1
 635 795 l 1,123,-1
 481 795 l 1,120,-1
639 795 m 1,124,-1
 639 639 l 1,125,-1
 794 639 l 1,126,-1
 794 795 l 1,127,-1
 639 795 l 1,124,-1
15 783 m 1,128,-1
 148 783 l 1,129,-1
 148 651 l 1,130,-1
 15 651 l 1,131,-1
 15 783 l 1,128,-1
173 783 m 1,132,-1
 307 783 l 1,133,-1
 307 651 l 1,134,-1
 173 651 l 1,135,-1
 173 783 l 1,132,-1
4 635 m 1,136,-1
 4 481 l 1,137,-1
 159 481 l 1,138,-1
 159 635 l 1,139,-1
 4 635 l 1,136,-1
163 635 m 1,140,-1
 163 481 l 1,141,-1
 317 481 l 1,142,-1
 317 635 l 1,143,-1
 163 635 l 1,140,-1
322 635 m 1,144,-1
 322 481 l 1,145,-1
 476 481 l 1,146,-1
 476 635 l 1,147,-1
 322 635 l 1,144,-1
481 635 m 1,148,-1
 481 481 l 1,149,-1
 635 481 l 1,150,-1
 635 635 l 1,151,-1
 481 635 l 1,148,-1
639 635 m 1,152,-1
 639 481 l 1,153,-1
 794 481 l 1,154,-1
 794 635 l 1,155,-1
 639 635 l 1,152,-1
15 625 m 1,156,-1
 148 625 l 1,157,-1
 148 491 l 1,158,-1
 15 491 l 1,159,-1
 15 625 l 1,156,-1
173 625 m 1,160,-1
 307 625 l 1,161,-1
 307 491 l 1,162,-1
 173 491 l 1,163,-1
 173 625 l 1,160,-1
4 477 m 1,164,-1
 4 322 l 1,165,-1
 159 322 l 1,166,-1
 159 477 l 1,167,-1
 4 477 l 1,164,-1
163 477 m 1,168,-1
 163 322 l 1,169,-1
 317 322 l 1,170,-1
 317 477 l 1,171,-1
 163 477 l 1,168,-1
322 477 m 1,172,-1
 322 322 l 1,173,-1
 476 322 l 1,174,-1
 476 477 l 1,175,-1
 322 477 l 1,172,-1
481 477 m 1,176,-1
 481 322 l 1,177,-1
 635 322 l 1,178,-1
 635 477 l 1,179,-1
 481 477 l 1,176,-1
639 477 m 1,180,-1
 639 322 l 1,181,-1
 794 322 l 1,182,-1
 794 477 l 1,183,-1
 639 477 l 1,180,-1
173 466 m 1,184,-1
 307 466 l 1,185,-1
 307 333 l 1,186,-1
 173 333 l 1,187,-1
 173 466 l 1,184,-1
333 466 m 1,188,-1
 465 466 l 1,189,-1
 465 333 l 1,190,-1
 333 333 l 1,191,-1
 333 466 l 1,188,-1
4 317 m 1,192,-1
 4 163 l 1,193,-1
 159 163 l 1,194,-1
 159 317 l 1,195,-1
 4 317 l 1,192,-1
163 317 m 1,196,-1
 163 163 l 1,197,-1
 317 163 l 1,198,-1
 317 317 l 1,199,-1
 163 317 l 1,196,-1
322 317 m 1,200,-1
 322 163 l 1,201,-1
 476 163 l 1,202,-1
 476 317 l 1,203,-1
 322 317 l 1,200,-1
481 317 m 1,204,-1
 481 163 l 1,205,-1
 635 163 l 1,206,-1
 635 317 l 1,207,-1
 481 317 l 1,204,-1
639 317 m 1,208,-1
 639 163 l 1,209,-1
 794 163 l 1,210,-1
 794 317 l 1,211,-1
 639 317 l 1,208,-1
333 307 m 1,212,-1
 465 307 l 1,213,-1
 465 173 l 1,214,-1
 333 173 l 1,215,-1
 333 307 l 1,212,-1
491 307 m 1,216,-1
 625 307 l 1,217,-1
 625 173 l 1,218,-1
 491 173 l 1,219,-1
 491 307 l 1,216,-1
4 159 m 1,220,-1
 4 4 l 1,221,-1
 159 4 l 1,222,-1
 159 159 l 1,223,-1
 4 159 l 1,220,-1
163 159 m 1,224,-1
 163 4 l 1,225,-1
 317 4 l 1,226,-1
 317 159 l 1,227,-1
 163 159 l 1,224,-1
322 159 m 1,228,-1
 322 4 l 1,229,-1
 476 4 l 1,230,-1
 476 159 l 1,231,-1
 322 159 l 1,228,-1
481 159 m 1,232,-1
 481 4 l 1,233,-1
 635 4 l 1,234,-1
 635 159 l 1,235,-1
 481 159 l 1,232,-1
639 159 m 1,236,-1
 639 4 l 1,237,-1
 794 4 l 1,238,-1
 794 159 l 1,239,-1
 639 159 l 1,236,-1
EndSplineSet
EndChar

StartChar: parenright
Encoding: 41 41 12
Width: 794
Flags: W
LayerCount: 2
Fore
SplineSet
0 1434 m 1,0,-1
 798 1434 l 1,1,-1
 798 0 l 1,2,-1
 0 0 l 1,3,-1
 0 1434 l 1,0,-1
4 1430 m 1,4,-1
 4 1275 l 1,5,-1
 159 1275 l 1,6,-1
 159 1430 l 1,7,-1
 4 1430 l 1,4,-1
163 1430 m 1,8,-1
 163 1275 l 1,9,-1
 317 1275 l 1,10,-1
 317 1430 l 1,11,-1
 163 1430 l 1,8,-1
322 1430 m 1,12,-1
 322 1275 l 1,13,-1
 476 1275 l 1,14,-1
 476 1430 l 1,15,-1
 322 1430 l 1,12,-1
481 1430 m 1,16,-1
 481 1275 l 1,17,-1
 635 1275 l 1,18,-1
 635 1430 l 1,19,-1
 481 1430 l 1,16,-1
639 1430 m 1,20,-1
 639 1275 l 1,21,-1
 794 1275 l 1,22,-1
 794 1430 l 1,23,-1
 639 1430 l 1,20,-1
4 1271 m 1,24,-1
 4 1117 l 1,25,-1
 159 1117 l 1,26,-1
 159 1271 l 1,27,-1
 4 1271 l 1,24,-1
163 1271 m 1,28,-1
 163 1117 l 1,29,-1
 317 1117 l 1,30,-1
 317 1271 l 1,31,-1
 163 1271 l 1,28,-1
322 1271 m 1,32,-1
 322 1117 l 1,33,-1
 476 1117 l 1,34,-1
 476 1271 l 1,35,-1
 322 1271 l 1,32,-1
481 1271 m 1,36,-1
 481 1117 l 1,37,-1
 635 1117 l 1,38,-1
 635 1271 l 1,39,-1
 481 1271 l 1,36,-1
639 1271 m 1,40,-1
 639 1117 l 1,41,-1
 794 1117 l 1,42,-1
 794 1271 l 1,43,-1
 639 1271 l 1,40,-1
15 1261 m 1,44,-1
 148 1261 l 1,45,-1
 148 1127 l 1,46,-1
 15 1127 l 1,47,-1
 15 1261 l 1,44,-1
173 1261 m 1,48,-1
 307 1261 l 1,49,-1
 307 1127 l 1,50,-1
 173 1127 l 1,51,-1
 173 1261 l 1,48,-1
4 1112 m 1,52,-1
 4 957 l 1,53,-1
 159 957 l 1,54,-1
 159 1112 l 1,55,-1
 4 1112 l 1,52,-1
163 1112 m 1,56,-1
 163 957 l 1,57,-1
 317 957 l 1,58,-1
 317 1112 l 1,59,-1
 163 1112 l 1,56,-1
322 1112 m 1,60,-1
 322 957 l 1,61,-1
 476 957 l 1,62,-1
 476 1112 l 1,63,-1
 322 1112 l 1,60,-1
481 1112 m 1,64,-1
 481 957 l 1,65,-1
 635 957 l 1,66,-1
 635 1112 l 1,67,-1
 481 1112 l 1,64,-1
639 1112 m 1,68,-1
 639 957 l 1,69,-1
 794 957 l 1,70,-1
 794 1112 l 1,71,-1
 639 1112 l 1,68,-1
173 1101 m 1,72,-1
 307 1101 l 1,73,-1
 307 968 l 1,74,-1
 173 968 l 1,75,-1
 173 1101 l 1,72,-1
333 1101 m 1,76,-1
 465 1101 l 1,77,-1
 465 968 l 1,78,-1
 333 968 l 1,79,-1
 333 1101 l 1,76,-1
4 953 m 1,80,-1
 4 799 l 1,81,-1
 159 799 l 1,82,-1
 159 953 l 1,83,-1
 4 953 l 1,80,-1
163 953 m 1,84,-1
 163 799 l 1,85,-1
 317 799 l 1,86,-1
 317 953 l 1,87,-1
 163 953 l 1,84,-1
322 953 m 1,88,-1
 322 799 l 1,89,-1
 476 799 l 1,90,-1
 476 953 l 1,91,-1
 322 953 l 1,88,-1
481 953 m 1,92,-1
 481 799 l 1,93,-1
 635 799 l 1,94,-1
 635 953 l 1,95,-1
 481 953 l 1,92,-1
639 953 m 1,96,-1
 639 799 l 1,97,-1
 794 799 l 1,98,-1
 794 953 l 1,99,-1
 639 953 l 1,96,-1
333 943 m 1,100,-1
 465 943 l 1,101,-1
 465 809 l 1,102,-1
 333 809 l 1,103,-1
 333 943 l 1,100,-1
491 943 m 1,104,-1
 625 943 l 1,105,-1
 625 809 l 1,106,-1
 491 809 l 1,107,-1
 491 943 l 1,104,-1
4 795 m 1,108,-1
 4 639 l 1,109,-1
 159 639 l 1,110,-1
 159 795 l 1,111,-1
 4 795 l 1,108,-1
163 795 m 1,112,-1
 163 639 l 1,113,-1
 317 639 l 1,114,-1
 317 795 l 1,115,-1
 163 795 l 1,112,-1
322 795 m 1,116,-1
 322 639 l 1,117,-1
 476 639 l 1,118,-1
 476 795 l 1,119,-1
 322 795 l 1,116,-1
481 795 m 1,120,-1
 481 639 l 1,121,-1
 635 639 l 1,122,-1
 635 795 l 1,123,-1
 481 795 l 1,120,-1
639 795 m 1,124,-1
 639 639 l 1,125,-1
 794 639 l 1,126,-1
 794 795 l 1,127,-1
 639 795 l 1,124,-1
333 783 m 1,128,-1
 465 783 l 1,129,-1
 465 651 l 1,130,-1
 333 651 l 1,131,-1
 333 783 l 1,128,-1
491 783 m 1,132,-1
 625 783 l 1,133,-1
 625 651 l 1,134,-1
 491 651 l 1,135,-1
 491 783 l 1,132,-1
4 635 m 1,136,-1
 4 481 l 1,137,-1
 159 481 l 1,138,-1
 159 635 l 1,139,-1
 4 635 l 1,136,-1
163 635 m 1,140,-1
 163 481 l 1,141,-1
 317 481 l 1,142,-1
 317 635 l 1,143,-1
 163 635 l 1,140,-1
322 635 m 1,144,-1
 322 481 l 1,145,-1
 476 481 l 1,146,-1
 476 635 l 1,147,-1
 322 635 l 1,144,-1
481 635 m 1,148,-1
 481 481 l 1,149,-1
 635 481 l 1,150,-1
 635 635 l 1,151,-1
 481 635 l 1,148,-1
639 635 m 1,152,-1
 639 481 l 1,153,-1
 794 481 l 1,154,-1
 794 635 l 1,155,-1
 639 635 l 1,152,-1
333 625 m 1,156,-1
 465 625 l 1,157,-1
 465 491 l 1,158,-1
 333 491 l 1,159,-1
 333 625 l 1,156,-1
491 625 m 1,160,-1
 625 625 l 1,161,-1
 625 491 l 1,162,-1
 491 491 l 1,163,-1
 491 625 l 1,160,-1
4 477 m 1,164,-1
 4 322 l 1,165,-1
 159 322 l 1,166,-1
 159 477 l 1,167,-1
 4 477 l 1,164,-1
163 477 m 1,168,-1
 163 322 l 1,169,-1
 317 322 l 1,170,-1
 317 477 l 1,171,-1
 163 477 l 1,168,-1
322 477 m 1,172,-1
 322 322 l 1,173,-1
 476 322 l 1,174,-1
 476 477 l 1,175,-1
 322 477 l 1,172,-1
481 477 m 1,176,-1
 481 322 l 1,177,-1
 635 322 l 1,178,-1
 635 477 l 1,179,-1
 481 477 l 1,176,-1
639 477 m 1,180,-1
 639 322 l 1,181,-1
 794 322 l 1,182,-1
 794 477 l 1,183,-1
 639 477 l 1,180,-1
173 466 m 1,184,-1
 307 466 l 1,185,-1
 307 333 l 1,186,-1
 173 333 l 1,187,-1
 173 466 l 1,184,-1
333 466 m 1,188,-1
 465 466 l 1,189,-1
 465 333 l 1,190,-1
 333 333 l 1,191,-1
 333 466 l 1,188,-1
4 317 m 1,192,-1
 4 163 l 1,193,-1
 159 163 l 1,194,-1
 159 317 l 1,195,-1
 4 317 l 1,192,-1
163 317 m 1,196,-1
 163 163 l 1,197,-1
 317 163 l 1,198,-1
 317 317 l 1,199,-1
 163 317 l 1,196,-1
322 317 m 1,200,-1
 322 163 l 1,201,-1
 476 163 l 1,202,-1
 476 317 l 1,203,-1
 322 317 l 1,200,-1
481 317 m 1,204,-1
 481 163 l 1,205,-1
 635 163 l 1,206,-1
 635 317 l 1,207,-1
 481 317 l 1,204,-1
639 317 m 1,208,-1
 639 163 l 1,209,-1
 794 163 l 1,210,-1
 794 317 l 1,211,-1
 639 317 l 1,208,-1
15 307 m 1,212,-1
 148 307 l 1,213,-1
 148 173 l 1,214,-1
 15 173 l 1,215,-1
 15 307 l 1,212,-1
173 307 m 1,216,-1
 307 307 l 1,217,-1
 307 173 l 1,218,-1
 173 173 l 1,219,-1
 173 307 l 1,216,-1
4 159 m 1,220,-1
 4 4 l 1,221,-1
 159 4 l 1,222,-1
 159 159 l 1,223,-1
 4 159 l 1,220,-1
163 159 m 1,224,-1
 163 4 l 1,225,-1
 317 4 l 1,226,-1
 317 159 l 1,227,-1
 163 159 l 1,224,-1
322 159 m 1,228,-1
 322 4 l 1,229,-1
 476 4 l 1,230,-1
 476 159 l 1,231,-1
 322 159 l 1,228,-1
481 159 m 1,232,-1
 481 4 l 1,233,-1
 635 4 l 1,234,-1
 635 159 l 1,235,-1
 481 159 l 1,232,-1
639 159 m 1,236,-1
 639 4 l 1,237,-1
 794 4 l 1,238,-1
 794 159 l 1,239,-1
 639 159 l 1,236,-1
EndSplineSet
EndChar

StartChar: asterisk
Encoding: 42 42 13
Width: 1112
Flags: WO
LayerCount: 2
Fore
SplineSet
0 1434 m 1,0,-1
 1116 1434 l 1,1,-1
 1116 0 l 1,2,-1
 0 0 l 1,3,-1
 0 1434 l 1,0,-1
4 1430 m 1,4,-1
 4 1275 l 1,5,-1
 159 1275 l 1,6,-1
 159 1430 l 1,7,-1
 4 1430 l 1,4,-1
163 1430 m 1,8,-1
 163 1275 l 1,9,-1
 317 1275 l 1,10,-1
 317 1430 l 1,11,-1
 163 1430 l 1,8,-1
322 1430 m 1,12,-1
 322 1275 l 1,13,-1
 477 1275 l 1,14,-1
 477 1430 l 1,15,-1
 322 1430 l 1,12,-1
481 1430 m 1,16,-1
 481 1275 l 1,17,-1
 635 1275 l 1,18,-1
 635 1430 l 1,19,-1
 481 1430 l 1,16,-1
639 1430 m 1,20,-1
 639 1275 l 1,21,-1
 794 1275 l 1,22,-1
 794 1430 l 1,23,-1
 639 1430 l 1,20,-1
799 1430 m 1,24,-1
 799 1275 l 1,25,-1
 953 1275 l 1,26,-1
 953 1430 l 1,27,-1
 799 1430 l 1,24,-1
957 1430 m 1,28,-1
 957 1275 l 1,29,-1
 1112 1275 l 1,30,-1
 1112 1430 l 1,31,-1
 957 1430 l 1,28,-1
4 1271 m 1,32,-1
 4 1117 l 1,33,-1
 159 1117 l 1,34,-1
 159 1271 l 1,35,-1
 4 1271 l 1,32,-1
163 1271 m 1,36,-1
 163 1117 l 1,37,-1
 317 1117 l 1,38,-1
 317 1271 l 1,39,-1
 163 1271 l 1,36,-1
322 1271 m 1,40,-1
 322 1117 l 1,41,-1
 477 1117 l 1,42,-1
 477 1271 l 1,43,-1
 322 1271 l 1,40,-1
481 1271 m 1,44,-1
 481 1117 l 1,45,-1
 635 1117 l 1,46,-1
 635 1271 l 1,47,-1
 481 1271 l 1,44,-1
639 1271 m 1,48,-1
 639 1117 l 1,49,-1
 794 1117 l 1,50,-1
 794 1271 l 1,51,-1
 639 1271 l 1,48,-1
799 1271 m 1,52,-1
 799 1117 l 1,53,-1
 953 1117 l 1,54,-1
 953 1271 l 1,55,-1
 799 1271 l 1,52,-1
957 1271 m 1,56,-1
 957 1117 l 1,57,-1
 1112 1117 l 1,58,-1
 1112 1271 l 1,59,-1
 957 1271 l 1,56,-1
333 1261 m 1,60,-1
 464 1261 l 2,61,62
 466 1260 466 1260 466 1259 c 2,63,-1
 466 1127 l 1,64,-1
 333 1127 l 1,65,-1
 333 1261 l 1,60,-1
491 1261 m 1,66,-1
 625 1261 l 1,67,-1
 625 1127 l 1,68,-1
 491 1127 l 1,69,-1
 491 1261 l 1,66,-1
943 1259 m 1026,70,-1
4 1112 m 1,71,-1
 4 957 l 1,72,-1
 159 957 l 1,73,-1
 159 1112 l 1,74,-1
 4 1112 l 1,71,-1
163 1112 m 1,75,-1
 163 957 l 1,76,-1
 317 957 l 1,77,-1
 317 1112 l 1,78,-1
 163 1112 l 1,75,-1
322 1112 m 1,79,-1
 322 957 l 1,80,-1
 477 957 l 1,81,-1
 477 1112 l 1,82,-1
 322 1112 l 1,79,-1
481 1112 m 1,83,-1
 481 957 l 1,84,-1
 635 957 l 1,85,-1
 635 1112 l 1,86,-1
 481 1112 l 1,83,-1
639 1112 m 1,87,-1
 639 957 l 1,88,-1
 794 957 l 1,89,-1
 794 1112 l 1,90,-1
 639 1112 l 1,87,-1
799 1112 m 1,91,-1
 799 957 l 1,92,-1
 953 957 l 1,93,-1
 953 1112 l 1,94,-1
 799 1112 l 1,91,-1
957 1112 m 1,95,-1
 957 957 l 1,96,-1
 1112 957 l 1,97,-1
 1112 1112 l 1,98,-1
 957 1112 l 1,95,-1
173 1101 m 1,99,-1
 307 1101 l 1,100,-1
 307 968 l 1,101,-1
 173 968 l 1,102,-1
 173 1101 l 1,99,-1
333 1101 m 1,103,-1
 466 1101 l 1,104,-1
 466 968 l 1,105,-1
 333 968 l 1,106,-1
 333 1101 l 1,103,-1
491 1101 m 1,107,-1
 625 1101 l 1,108,-1
 625 968 l 1,109,-1
 491 968 l 1,110,-1
 491 1101 l 1,107,-1
650 1101 m 1,111,-1
 783 1101 l 1,112,-1
 783 968 l 1,113,-1
 650 968 l 1,114,-1
 650 1101 l 1,111,-1
4 953 m 1,115,-1
 4 799 l 1,116,-1
 159 799 l 1,117,-1
 159 953 l 1,118,-1
 4 953 l 1,115,-1
163 953 m 1,119,-1
 163 799 l 1,120,-1
 317 799 l 1,121,-1
 317 953 l 1,122,-1
 163 953 l 1,119,-1
322 953 m 1,123,-1
 322 799 l 1,124,-1
 477 799 l 1,125,-1
 477 953 l 1,126,-1
 322 953 l 1,123,-1
481 953 m 1,127,-1
 481 799 l 1,128,-1
 635 799 l 1,129,-1
 635 953 l 1,130,-1
 481 953 l 1,127,-1
639 953 m 1,131,-1
 639 799 l 1,132,-1
 794 799 l 1,133,-1
 794 953 l 1,134,-1
 639 953 l 1,131,-1
799 953 m 1,135,-1
 799 799 l 1,136,-1
 953 799 l 1,137,-1
 953 953 l 1,138,-1
 799 953 l 1,135,-1
957 953 m 1,139,-1
 957 799 l 1,140,-1
 1112 799 l 1,141,-1
 1112 953 l 1,142,-1
 957 953 l 1,139,-1
15 943 m 1,143,-1
 148 943 l 1,144,-1
 148 809 l 1,145,-1
 15 809 l 1,146,-1
 15 943 l 1,143,-1
173 943 m 1,147,-1
 307 943 l 1,148,-1
 307 809 l 1,149,-1
 173 809 l 1,150,-1
 173 943 l 1,147,-1
333 943 m 1,151,-1
 466 943 l 1,152,-1
 466 809 l 1,153,-1
 333 809 l 1,154,-1
 333 943 l 1,151,-1
491 943 m 1,155,-1
 625 943 l 1,156,-1
 625 809 l 1,157,-1
 491 809 l 1,158,-1
 491 943 l 1,155,-1
650 943 m 1,159,-1
 783 943 l 1,160,-1
 783 809 l 1,161,-1
 650 809 l 1,162,-1
 650 943 l 1,159,-1
809 943 m 1,163,-1
 943 943 l 1,164,-1
 943 809 l 1,165,-1
 809 809 l 1,166,-1
 809 943 l 1,163,-1
4 795 m 1,167,-1
 4 639 l 1,168,-1
 159 639 l 1,169,-1
 159 795 l 1,170,-1
 4 795 l 1,167,-1
163 795 m 1,171,-1
 163 639 l 1,172,-1
 317 639 l 1,173,-1
 317 795 l 1,174,-1
 163 795 l 1,171,-1
322 795 m 1,175,-1
 322 639 l 1,176,-1
 477 639 l 1,177,-1
 477 795 l 1,178,-1
 322 795 l 1,175,-1
481 795 m 1,179,-1
 481 639 l 1,180,-1
 635 639 l 1,181,-1
 635 795 l 1,182,-1
 481 795 l 1,179,-1
639 795 m 1,183,-1
 639 639 l 1,184,-1
 794 639 l 1,185,-1
 794 795 l 1,186,-1
 639 795 l 1,183,-1
799 795 m 1,187,-1
 799 639 l 1,188,-1
 953 639 l 1,189,-1
 953 795 l 1,190,-1
 799 795 l 1,187,-1
957 795 m 1,191,-1
 957 639 l 1,192,-1
 1112 639 l 1,193,-1
 1112 795 l 1,194,-1
 957 795 l 1,191,-1
173 783 m 1,195,-1
 307 783 l 1,196,-1
 307 651 l 1,197,-1
 173 651 l 1,198,-1
 173 783 l 1,195,-1
333 783 m 1,199,-1
 466 783 l 1,200,-1
 466 651 l 1,201,-1
 333 651 l 1,202,-1
 333 783 l 1,199,-1
491 783 m 1,203,-1
 625 783 l 1,204,-1
 625 651 l 1,205,-1
 491 651 l 1,206,-1
 491 783 l 1,203,-1
650 783 m 1,207,-1
 783 783 l 1,208,-1
 783 651 l 1,209,-1
 650 651 l 1,210,-1
 650 783 l 1,207,-1
4 635 m 1,211,-1
 4 481 l 1,212,-1
 159 481 l 1,213,-1
 159 635 l 1,214,-1
 4 635 l 1,211,-1
163 635 m 1,215,-1
 163 481 l 1,216,-1
 317 481 l 1,217,-1
 317 635 l 1,218,-1
 163 635 l 1,215,-1
322 635 m 1,219,-1
 322 481 l 1,220,-1
 477 481 l 1,221,-1
 477 635 l 1,222,-1
 322 635 l 1,219,-1
481 635 m 1,223,-1
 481 481 l 1,224,-1
 635 481 l 1,225,-1
 635 635 l 1,226,-1
 481 635 l 1,223,-1
639 635 m 1,227,-1
 639 481 l 1,228,-1
 794 481 l 1,229,-1
 794 635 l 1,230,-1
 639 635 l 1,227,-1
799 635 m 1,231,-1
 799 481 l 1,232,-1
 953 481 l 1,233,-1
 953 635 l 1,234,-1
 799 635 l 1,231,-1
957 635 m 1,235,-1
 957 481 l 1,236,-1
 1112 481 l 1,237,-1
 1112 635 l 1,238,-1
 957 635 l 1,235,-1
333 625 m 1,239,-1
 466 625 l 1,240,-1
 466 491 l 1,241,-1
 333 491 l 1,242,-1
 333 625 l 1,239,-1
491 625 m 1,243,-1
 625 625 l 1,244,-1
 625 491 l 1,245,-1
 491 491 l 1,246,-1
 491 625 l 1,243,-1
4 477 m 1,247,-1
 4 322 l 1,248,-1
 159 322 l 1,249,-1
 159 477 l 1,250,-1
 4 477 l 1,247,-1
163 477 m 1,251,-1
 163 322 l 1,252,-1
 317 322 l 1,253,-1
 317 477 l 1,254,-1
 163 477 l 1,251,-1
322 477 m 1,255,-1
 322 322 l 1,256,-1
 477 322 l 1,257,-1
 477 477 l 1,258,-1
 322 477 l 1,255,-1
481 477 m 1,259,-1
 481 322 l 1,260,-1
 635 322 l 1,261,-1
 635 477 l 1,262,-1
 481 477 l 1,259,-1
639 477 m 1,263,-1
 639 322 l 1,264,-1
 794 322 l 1,265,-1
 794 477 l 1,266,-1
 639 477 l 1,263,-1
799 477 m 1,267,-1
 799 322 l 1,268,-1
 953 322 l 1,269,-1
 953 477 l 1,270,-1
 799 477 l 1,267,-1
957 477 m 1,271,-1
 957 322 l 1,272,-1
 1112 322 l 1,273,-1
 1112 477 l 1,274,-1
 957 477 l 1,271,-1
4 317 m 1,275,-1
 4 163 l 1,276,-1
 159 163 l 1,277,-1
 159 317 l 1,278,-1
 4 317 l 1,275,-1
163 317 m 1,279,-1
 163 163 l 1,280,-1
 317 163 l 1,281,-1
 317 317 l 1,282,-1
 163 317 l 1,279,-1
322 317 m 1,283,-1
 322 163 l 1,284,-1
 477 163 l 1,285,-1
 477 317 l 1,286,-1
 322 317 l 1,283,-1
481 317 m 1,287,-1
 481 163 l 1,288,-1
 635 163 l 1,289,-1
 635 317 l 1,290,-1
 481 317 l 1,287,-1
639 317 m 1,291,-1
 639 163 l 1,292,-1
 794 163 l 1,293,-1
 794 317 l 1,294,-1
 639 317 l 1,291,-1
799 317 m 1,295,-1
 799 163 l 1,296,-1
 953 163 l 1,297,-1
 953 317 l 1,298,-1
 799 317 l 1,295,-1
957 317 m 1,299,-1
 957 163 l 1,300,-1
 1112 163 l 1,301,-1
 1112 317 l 1,302,-1
 957 317 l 1,299,-1
4 159 m 1,303,-1
 4 4 l 1,304,-1
 159 4 l 1,305,-1
 159 159 l 1,306,-1
 4 159 l 1,303,-1
163 159 m 1,307,-1
 163 4 l 1,308,-1
 317 4 l 1,309,-1
 317 159 l 1,310,-1
 163 159 l 1,307,-1
322 159 m 1,311,-1
 322 4 l 1,312,-1
 477 4 l 1,313,-1
 477 159 l 1,314,-1
 322 159 l 1,311,-1
481 159 m 1,315,-1
 481 4 l 1,316,-1
 635 4 l 1,317,-1
 635 159 l 1,318,-1
 481 159 l 1,315,-1
639 159 m 1,319,-1
 639 4 l 1,320,-1
 794 4 l 1,321,-1
 794 159 l 1,322,-1
 639 159 l 1,319,-1
799 159 m 1,323,-1
 799 4 l 1,324,-1
 953 4 l 1,325,-1
 953 159 l 1,326,-1
 799 159 l 1,323,-1
957 159 m 1,327,-1
 957 4 l 1,328,-1
 1112 4 l 1,329,-1
 1112 159 l 1,330,-1
 957 159 l 1,327,-1
EndSplineSet
EndChar

StartChar: plus
Encoding: 43 43 14
Width: 1111
Flags: W
LayerCount: 2
Fore
SplineSet
0 1434 m 1,0,-1
 1116 1434 l 1,1,-1
 1116 0 l 1,2,-1
 0 0 l 1,3,-1
 0 1434 l 1,0,-1
4 1429 m 1,4,-1
 4 1275 l 1,5,-1
 159 1275 l 1,6,-1
 159 1429 l 1,7,-1
 4 1429 l 1,4,-1
163 1429 m 1,8,-1
 163 1275 l 1,9,-1
 317 1275 l 1,10,-1
 317 1429 l 1,11,-1
 163 1429 l 1,8,-1
322 1429 m 1,12,-1
 322 1275 l 1,13,-1
 476 1275 l 1,14,-1
 476 1429 l 1,15,-1
 322 1429 l 1,12,-1
481 1429 m 1,16,-1
 481 1275 l 1,17,-1
 635 1275 l 1,18,-1
 635 1429 l 1,19,-1
 481 1429 l 1,16,-1
639 1429 m 1,20,-1
 639 1275 l 1,21,-1
 793 1275 l 1,22,-1
 793 1429 l 1,23,-1
 639 1429 l 1,20,-1
799 1429 m 1,24,-1
 799 1275 l 1,25,-1
 953 1275 l 1,26,-1
 953 1429 l 1,27,-1
 799 1429 l 1,24,-1
957 1429 m 1,28,-1
 957 1275 l 1,29,-1
 1111 1275 l 1,30,-1
 1111 1429 l 1,31,-1
 957 1429 l 1,28,-1
4 1271 m 1,32,-1
 4 1117 l 1,33,-1
 159 1117 l 1,34,-1
 159 1271 l 1,35,-1
 4 1271 l 1,32,-1
163 1271 m 1,36,-1
 163 1117 l 1,37,-1
 317 1117 l 1,38,-1
 317 1271 l 1,39,-1
 163 1271 l 1,36,-1
322 1271 m 1,40,-1
 322 1117 l 1,41,-1
 476 1117 l 1,42,-1
 476 1271 l 1,43,-1
 322 1271 l 1,40,-1
481 1271 m 1,44,-1
 481 1117 l 1,45,-1
 635 1117 l 1,46,-1
 635 1271 l 1,47,-1
 481 1271 l 1,44,-1
639 1271 m 1,48,-1
 639 1117 l 1,49,-1
 793 1117 l 1,50,-1
 793 1271 l 1,51,-1
 639 1271 l 1,48,-1
799 1271 m 1,52,-1
 799 1117 l 1,53,-1
 953 1117 l 1,54,-1
 953 1271 l 1,55,-1
 799 1271 l 1,52,-1
957 1271 m 1,56,-1
 957 1117 l 1,57,-1
 1111 1117 l 1,58,-1
 1111 1271 l 1,59,-1
 957 1271 l 1,56,-1
4 1111 m 1,60,-1
 4 957 l 1,61,-1
 159 957 l 1,62,-1
 159 1111 l 1,63,-1
 4 1111 l 1,60,-1
163 1111 m 1,64,-1
 163 957 l 1,65,-1
 317 957 l 1,66,-1
 317 1111 l 1,67,-1
 163 1111 l 1,64,-1
322 1111 m 1,68,-1
 322 957 l 1,69,-1
 476 957 l 1,70,-1
 476 1111 l 1,71,-1
 322 1111 l 1,68,-1
481 1111 m 1,72,-1
 481 957 l 1,73,-1
 635 957 l 1,74,-1
 635 1111 l 1,75,-1
 481 1111 l 1,72,-1
639 1111 m 1,76,-1
 639 957 l 1,77,-1
 793 957 l 1,78,-1
 793 1111 l 1,79,-1
 639 1111 l 1,76,-1
799 1111 m 1,80,-1
 799 957 l 1,81,-1
 953 957 l 1,82,-1
 953 1111 l 1,83,-1
 799 1111 l 1,80,-1
957 1111 m 1,84,-1
 957 957 l 1,85,-1
 1111 957 l 1,86,-1
 1111 1111 l 1,87,-1
 957 1111 l 1,84,-1
333 1101 m 1,88,-1
 466 1101 l 1,89,-1
 466 968 l 1,90,-1
 333 968 l 1,91,-1
 333 1101 l 1,88,-1
491 1101 m 1,92,-1
 625 1101 l 1,93,-1
 625 968 l 1,94,-1
 491 968 l 1,95,-1
 491 1101 l 1,92,-1
4 953 m 1,96,-1
 4 799 l 1,97,-1
 159 799 l 1,98,-1
 159 953 l 1,99,-1
 4 953 l 1,96,-1
163 953 m 1,100,-1
 163 799 l 1,101,-1
 317 799 l 1,102,-1
 317 953 l 1,103,-1
 163 953 l 1,100,-1
322 953 m 1,104,-1
 322 799 l 1,105,-1
 476 799 l 1,106,-1
 476 953 l 1,107,-1
 322 953 l 1,104,-1
481 953 m 1,108,-1
 481 799 l 1,109,-1
 635 799 l 1,110,-1
 635 953 l 1,111,-1
 481 953 l 1,108,-1
639 953 m 1,112,-1
 639 799 l 1,113,-1
 793 799 l 1,114,-1
 793 953 l 1,115,-1
 639 953 l 1,112,-1
799 953 m 1,116,-1
 799 799 l 1,117,-1
 953 799 l 1,118,-1
 953 953 l 1,119,-1
 799 953 l 1,116,-1
957 953 m 1,120,-1
 957 799 l 1,121,-1
 1111 799 l 1,122,-1
 1111 953 l 1,123,-1
 957 953 l 1,120,-1
333 942 m 1,124,-1
 466 942 l 1,125,-1
 466 809 l 1,126,-1
 333 809 l 1,127,-1
 333 942 l 1,124,-1
491 942 m 1,128,-1
 625 942 l 1,129,-1
 625 809 l 1,130,-1
 491 809 l 1,131,-1
 491 942 l 1,128,-1
4 794 m 1,132,-1
 4 639 l 1,133,-1
 159 639 l 1,134,-1
 159 794 l 1,135,-1
 4 794 l 1,132,-1
163 794 m 1,136,-1
 163 639 l 1,137,-1
 317 639 l 1,138,-1
 317 794 l 1,139,-1
 163 794 l 1,136,-1
322 794 m 1,140,-1
 322 639 l 1,141,-1
 476 639 l 1,142,-1
 476 794 l 1,143,-1
 322 794 l 1,140,-1
481 794 m 1,144,-1
 481 639 l 1,145,-1
 635 639 l 1,146,-1
 635 794 l 1,147,-1
 481 794 l 1,144,-1
639 794 m 1,148,-1
 639 639 l 1,149,-1
 793 639 l 1,150,-1
 793 794 l 1,151,-1
 639 794 l 1,148,-1
799 794 m 1,152,-1
 799 639 l 1,153,-1
 953 639 l 1,154,-1
 953 794 l 1,155,-1
 799 794 l 1,152,-1
957 794 m 1,156,-1
 957 639 l 1,157,-1
 1111 639 l 1,158,-1
 1111 794 l 1,159,-1
 957 794 l 1,156,-1
15 783 m 1,160,-1
 148 783 l 1,161,-1
 148 651 l 1,162,-1
 15 651 l 1,163,-1
 15 783 l 1,160,-1
173 783 m 1,164,-1
 307 783 l 1,165,-1
 307 651 l 1,166,-1
 173 651 l 1,167,-1
 173 783 l 1,164,-1
333 783 m 1,168,-1
 466 783 l 1,169,-1
 466 651 l 1,170,-1
 333 651 l 1,171,-1
 333 783 l 1,168,-1
491 783 m 1,172,-1
 625 783 l 1,173,-1
 625 651 l 1,174,-1
 491 651 l 1,175,-1
 491 783 l 1,172,-1
650 783 m 1,176,-1
 783 783 l 1,177,-1
 783 651 l 1,178,-1
 650 651 l 1,179,-1
 650 783 l 1,176,-1
809 783 m 1,180,-1
 942 783 l 1,181,-1
 942 651 l 1,182,-1
 809 651 l 1,183,-1
 809 783 l 1,180,-1
4 635 m 1,184,-1
 4 481 l 1,185,-1
 159 481 l 1,186,-1
 159 635 l 1,187,-1
 4 635 l 1,184,-1
163 635 m 1,188,-1
 163 481 l 1,189,-1
 317 481 l 1,190,-1
 317 635 l 1,191,-1
 163 635 l 1,188,-1
322 635 m 1,192,-1
 322 481 l 1,193,-1
 476 481 l 1,194,-1
 476 635 l 1,195,-1
 322 635 l 1,192,-1
481 635 m 1,196,-1
 481 481 l 1,197,-1
 635 481 l 1,198,-1
 635 635 l 1,199,-1
 481 635 l 1,196,-1
639 635 m 1,200,-1
 639 481 l 1,201,-1
 793 481 l 1,202,-1
 793 635 l 1,203,-1
 639 635 l 1,200,-1
799 635 m 1,204,-1
 799 481 l 1,205,-1
 953 481 l 1,206,-1
 953 635 l 1,207,-1
 799 635 l 1,204,-1
957 635 m 1,208,-1
 957 481 l 1,209,-1
 1111 481 l 1,210,-1
 1111 635 l 1,211,-1
 957 635 l 1,208,-1
15 625 m 1,212,-1
 148 625 l 1,213,-1
 148 491 l 1,214,-1
 15 491 l 1,215,-1
 15 625 l 1,212,-1
173 625 m 1,216,-1
 307 625 l 1,217,-1
 307 491 l 1,218,-1
 173 491 l 1,219,-1
 173 625 l 1,216,-1
333 625 m 1,220,-1
 466 625 l 1,221,-1
 466 491 l 1,222,-1
 333 491 l 1,223,-1
 333 625 l 1,220,-1
491 625 m 1,224,-1
 625 625 l 1,225,-1
 625 491 l 1,226,-1
 491 491 l 1,227,-1
 491 625 l 1,224,-1
650 625 m 1,228,-1
 783 625 l 1,229,-1
 783 491 l 1,230,-1
 650 491 l 1,231,-1
 650 625 l 1,228,-1
809 625 m 1,232,-1
 942 625 l 1,233,-1
 942 491 l 1,234,-1
 809 491 l 1,235,-1
 809 625 l 1,232,-1
4 476 m 1,236,-1
 4 322 l 1,237,-1
 159 322 l 1,238,-1
 159 476 l 1,239,-1
 4 476 l 1,236,-1
163 476 m 1,240,-1
 163 322 l 1,241,-1
 317 322 l 1,242,-1
 317 476 l 1,243,-1
 163 476 l 1,240,-1
322 476 m 1,244,-1
 322 322 l 1,245,-1
 476 322 l 1,246,-1
 476 476 l 1,247,-1
 322 476 l 1,244,-1
481 476 m 1,248,-1
 481 322 l 1,249,-1
 635 322 l 1,250,-1
 635 476 l 1,251,-1
 481 476 l 1,248,-1
639 476 m 1,252,-1
 639 322 l 1,253,-1
 793 322 l 1,254,-1
 793 476 l 1,255,-1
 639 476 l 1,252,-1
799 476 m 1,256,-1
 799 322 l 1,257,-1
 953 322 l 1,258,-1
 953 476 l 1,259,-1
 799 476 l 1,256,-1
957 476 m 1,260,-1
 957 322 l 1,261,-1
 1111 322 l 1,262,-1
 1111 476 l 1,263,-1
 957 476 l 1,260,-1
333 466 m 1,264,-1
 466 466 l 1,265,-1
 466 333 l 1,266,-1
 333 333 l 1,267,-1
 333 466 l 1,264,-1
491 466 m 1,268,-1
 625 466 l 1,269,-1
 625 333 l 1,270,-1
 491 333 l 1,271,-1
 491 466 l 1,268,-1
4 317 m 1,272,-1
 4 163 l 1,273,-1
 159 163 l 1,274,-1
 159 317 l 1,275,-1
 4 317 l 1,272,-1
163 317 m 1,276,-1
 163 163 l 1,277,-1
 317 163 l 1,278,-1
 317 317 l 1,279,-1
 163 317 l 1,276,-1
322 317 m 1,280,-1
 322 163 l 1,281,-1
 476 163 l 1,282,-1
 476 317 l 1,283,-1
 322 317 l 1,280,-1
481 317 m 1,284,-1
 481 163 l 1,285,-1
 635 163 l 1,286,-1
 635 317 l 1,287,-1
 481 317 l 1,284,-1
639 317 m 1,288,-1
 639 163 l 1,289,-1
 793 163 l 1,290,-1
 793 317 l 1,291,-1
 639 317 l 1,288,-1
799 317 m 1,292,-1
 799 163 l 1,293,-1
 953 163 l 1,294,-1
 953 317 l 1,295,-1
 799 317 l 1,292,-1
957 317 m 1,296,-1
 957 163 l 1,297,-1
 1111 163 l 1,298,-1
 1111 317 l 1,299,-1
 957 317 l 1,296,-1
333 307 m 1,300,-1
 466 307 l 1,301,-1
 466 175 l 2,302,303
 466 173 466 173 464 173 c 2,304,-1
 333 173 l 1,305,-1
 333 307 l 1,300,-1
491 307 m 1,306,-1
 625 307 l 1,307,-1
 625 173 l 1,308,-1
 491 173 l 1,309,-1
 491 307 l 1,306,-1
4 159 m 1,310,-1
 4 4 l 1,311,-1
 159 4 l 1,312,-1
 159 159 l 1,313,-1
 4 159 l 1,310,-1
163 159 m 1,314,-1
 163 4 l 1,315,-1
 317 4 l 1,316,-1
 317 159 l 1,317,-1
 163 159 l 1,314,-1
322 159 m 1,318,-1
 322 4 l 1,319,-1
 476 4 l 1,320,-1
 476 159 l 1,321,-1
 322 159 l 1,318,-1
481 159 m 1,322,-1
 481 4 l 1,323,-1
 635 4 l 1,324,-1
 635 159 l 1,325,-1
 481 159 l 1,322,-1
639 159 m 1,326,-1
 639 4 l 1,327,-1
 793 4 l 1,328,-1
 793 159 l 1,329,-1
 639 159 l 1,326,-1
799 159 m 1,330,-1
 799 4 l 1,331,-1
 953 4 l 1,332,-1
 953 159 l 1,333,-1
 799 159 l 1,330,-1
957 159 m 1,334,-1
 957 4 l 1,335,-1
 1111 4 l 1,336,-1
 1111 159 l 1,337,-1
 957 159 l 1,334,-1
EndSplineSet
EndChar

StartChar: comma
Encoding: 44 44 15
Width: 476
Flags: W
LayerCount: 2
Fore
SplineSet
0 1434 m 1,0,-1
 481 1434 l 1,1,-1
 481 0 l 1,2,-1
 0 0 l 1,3,-1
 0 1434 l 1,0,-1
4 1429 m 1,4,-1
 4 1275 l 1,5,-1
 159 1275 l 1,6,-1
 159 1429 l 1,7,-1
 4 1429 l 1,4,-1
163 1429 m 1,8,-1
 163 1275 l 1,9,-1
 318 1275 l 1,10,-1
 318 1429 l 1,11,-1
 163 1429 l 1,8,-1
322 1429 m 1,12,-1
 322 1275 l 1,13,-1
 476 1275 l 1,14,-1
 476 1429 l 1,15,-1
 322 1429 l 1,12,-1
4 1271 m 1,16,-1
 4 1117 l 1,17,-1
 159 1117 l 1,18,-1
 159 1271 l 1,19,-1
 4 1271 l 1,16,-1
163 1271 m 1,20,-1
 163 1117 l 1,21,-1
 318 1117 l 1,22,-1
 318 1271 l 1,23,-1
 163 1271 l 1,20,-1
322 1271 m 1,24,-1
 322 1117 l 1,25,-1
 476 1117 l 1,26,-1
 476 1271 l 1,27,-1
 322 1271 l 1,24,-1
4 1112 m 1,28,-1
 4 957 l 1,29,-1
 159 957 l 1,30,-1
 159 1112 l 1,31,-1
 4 1112 l 1,28,-1
163 1112 m 1,32,-1
 163 957 l 1,33,-1
 318 957 l 1,34,-1
 318 1112 l 1,35,-1
 163 1112 l 1,32,-1
322 1112 m 1,36,-1
 322 957 l 1,37,-1
 476 957 l 1,38,-1
 476 1112 l 1,39,-1
 322 1112 l 1,36,-1
4 953 m 1,40,-1
 4 799 l 1,41,-1
 159 799 l 1,42,-1
 159 953 l 1,43,-1
 4 953 l 1,40,-1
163 953 m 1,44,-1
 163 799 l 1,45,-1
 318 799 l 1,46,-1
 318 953 l 1,47,-1
 163 953 l 1,44,-1
322 953 m 1,48,-1
 322 799 l 1,49,-1
 476 799 l 1,50,-1
 476 953 l 1,51,-1
 322 953 l 1,48,-1
4 794 m 1,52,-1
 4 639 l 1,53,-1
 159 639 l 1,54,-1
 159 794 l 1,55,-1
 4 794 l 1,52,-1
163 794 m 1,56,-1
 163 639 l 1,57,-1
 318 639 l 1,58,-1
 318 794 l 1,59,-1
 163 794 l 1,56,-1
322 794 m 1,60,-1
 322 639 l 1,61,-1
 476 639 l 1,62,-1
 476 794 l 1,63,-1
 322 794 l 1,60,-1
15 783 m 1,64,-1
 148 783 l 1,65,-1
 148 651 l 1,66,-1
 15 651 l 1,67,-1
 15 783 l 1,64,-1
174 783 m 1,68,-1
 307 783 l 1,69,-1
 307 651 l 1,70,-1
 174 651 l 1,71,-1
 174 783 l 1,68,-1
4 635 m 1,72,-1
 4 481 l 1,73,-1
 159 481 l 1,74,-1
 159 635 l 1,75,-1
 4 635 l 1,72,-1
163 635 m 1,76,-1
 163 481 l 1,77,-1
 318 481 l 1,78,-1
 318 635 l 1,79,-1
 163 635 l 1,76,-1
322 635 m 1,80,-1
 322 481 l 1,81,-1
 476 481 l 1,82,-1
 476 635 l 1,83,-1
 322 635 l 1,80,-1
15 625 m 1,84,-1
 148 625 l 1,85,-1
 148 491 l 1,86,-1
 15 491 l 1,87,-1
 15 625 l 1,84,-1
174 625 m 1,88,-1
 307 625 l 1,89,-1
 307 491 l 1,90,-1
 174 491 l 1,91,-1
 174 625 l 1,88,-1
4 476 m 1,92,-1
 4 322 l 1,93,-1
 159 322 l 1,94,-1
 159 476 l 1,95,-1
 4 476 l 1,92,-1
163 476 m 1,96,-1
 163 322 l 1,97,-1
 318 322 l 1,98,-1
 318 476 l 1,99,-1
 163 476 l 1,96,-1
322 476 m 1,100,-1
 322 322 l 1,101,-1
 476 322 l 1,102,-1
 476 476 l 1,103,-1
 322 476 l 1,100,-1
174 466 m 1,104,-1
 307 466 l 1,105,-1
 307 333 l 1,106,-1
 174 333 l 1,107,-1
 174 466 l 1,104,-1
4 317 m 1,108,-1
 4 163 l 1,109,-1
 159 163 l 1,110,-1
 159 317 l 1,111,-1
 4 317 l 1,108,-1
163 317 m 1,112,-1
 163 163 l 1,113,-1
 318 163 l 1,114,-1
 318 317 l 1,115,-1
 163 317 l 1,112,-1
322 317 m 1,116,-1
 322 163 l 1,117,-1
 476 163 l 1,118,-1
 476 317 l 1,119,-1
 322 317 l 1,116,-1
15 307 m 1,120,-1
 148 307 l 1,121,-1
 148 173 l 1,122,-1
 15 173 l 1,123,-1
 15 307 l 1,120,-1
4 159 m 1,124,-1
 4 4 l 1,125,-1
 159 4 l 1,126,-1
 159 159 l 1,127,-1
 4 159 l 1,124,-1
163 159 m 1,128,-1
 163 4 l 1,129,-1
 318 4 l 1,130,-1
 318 159 l 1,131,-1
 163 159 l 1,128,-1
322 159 m 1,132,-1
 322 4 l 1,133,-1
 476 4 l 1,134,-1
 476 159 l 1,135,-1
 322 159 l 1,132,-1
EndSplineSet
EndChar

StartChar: hyphen
Encoding: 45 45 16
AltUni2: 0000ad.ffffffff.0
Width: 1112
Flags: W
LayerCount: 2
Fore
SplineSet
0 1434 m 1,0,-1
 1116 1434 l 1,1,-1
 1116 0 l 1,2,-1
 0 0 l 1,3,-1
 0 1434 l 1,0,-1
4 1430 m 1,4,-1
 4 1275 l 1,5,-1
 159 1275 l 1,6,-1
 159 1430 l 1,7,-1
 4 1430 l 1,4,-1
163 1430 m 1,8,-1
 163 1275 l 1,9,-1
 317 1275 l 1,10,-1
 317 1430 l 1,11,-1
 163 1430 l 1,8,-1
322 1430 m 1,12,-1
 322 1275 l 1,13,-1
 477 1275 l 1,14,-1
 477 1430 l 1,15,-1
 322 1430 l 1,12,-1
481 1430 m 1,16,-1
 481 1275 l 1,17,-1
 635 1275 l 1,18,-1
 635 1430 l 1,19,-1
 481 1430 l 1,16,-1
639 1430 m 1,20,-1
 639 1275 l 1,21,-1
 794 1275 l 1,22,-1
 794 1430 l 1,23,-1
 639 1430 l 1,20,-1
799 1430 m 1,24,-1
 799 1275 l 1,25,-1
 953 1275 l 1,26,-1
 953 1430 l 1,27,-1
 799 1430 l 1,24,-1
957 1430 m 1,28,-1
 957 1275 l 1,29,-1
 1112 1275 l 1,30,-1
 1112 1430 l 1,31,-1
 957 1430 l 1,28,-1
4 1271 m 1,32,-1
 4 1117 l 1,33,-1
 159 1117 l 1,34,-1
 159 1271 l 1,35,-1
 4 1271 l 1,32,-1
163 1271 m 1,36,-1
 163 1117 l 1,37,-1
 317 1117 l 1,38,-1
 317 1271 l 1,39,-1
 163 1271 l 1,36,-1
322 1271 m 1,40,-1
 322 1117 l 1,41,-1
 477 1117 l 1,42,-1
 477 1271 l 1,43,-1
 322 1271 l 1,40,-1
481 1271 m 1,44,-1
 481 1117 l 1,45,-1
 635 1117 l 1,46,-1
 635 1271 l 1,47,-1
 481 1271 l 1,44,-1
639 1271 m 1,48,-1
 639 1117 l 1,49,-1
 794 1117 l 1,50,-1
 794 1271 l 1,51,-1
 639 1271 l 1,48,-1
799 1271 m 1,52,-1
 799 1117 l 1,53,-1
 953 1117 l 1,54,-1
 953 1271 l 1,55,-1
 799 1271 l 1,52,-1
957 1271 m 1,56,-1
 957 1117 l 1,57,-1
 1112 1117 l 1,58,-1
 1112 1271 l 1,59,-1
 957 1271 l 1,56,-1
4 1112 m 1,60,-1
 4 957 l 1,61,-1
 159 957 l 1,62,-1
 159 1112 l 1,63,-1
 4 1112 l 1,60,-1
163 1112 m 1,64,-1
 163 957 l 1,65,-1
 317 957 l 1,66,-1
 317 1112 l 1,67,-1
 163 1112 l 1,64,-1
322 1112 m 1,68,-1
 322 957 l 1,69,-1
 477 957 l 1,70,-1
 477 1112 l 1,71,-1
 322 1112 l 1,68,-1
481 1112 m 1,72,-1
 481 957 l 1,73,-1
 635 957 l 1,74,-1
 635 1112 l 1,75,-1
 481 1112 l 1,72,-1
639 1112 m 1,76,-1
 639 957 l 1,77,-1
 794 957 l 1,78,-1
 794 1112 l 1,79,-1
 639 1112 l 1,76,-1
799 1112 m 1,80,-1
 799 957 l 1,81,-1
 953 957 l 1,82,-1
 953 1112 l 1,83,-1
 799 1112 l 1,80,-1
957 1112 m 1,84,-1
 957 957 l 1,85,-1
 1112 957 l 1,86,-1
 1112 1112 l 1,87,-1
 957 1112 l 1,84,-1
4 953 m 1,88,-1
 4 799 l 1,89,-1
 159 799 l 1,90,-1
 159 953 l 1,91,-1
 4 953 l 1,88,-1
163 953 m 1,92,-1
 163 799 l 1,93,-1
 317 799 l 1,94,-1
 317 953 l 1,95,-1
 163 953 l 1,92,-1
322 953 m 1,96,-1
 322 799 l 1,97,-1
 477 799 l 1,98,-1
 477 953 l 1,99,-1
 322 953 l 1,96,-1
481 953 m 1,100,-1
 481 799 l 1,101,-1
 635 799 l 1,102,-1
 635 953 l 1,103,-1
 481 953 l 1,100,-1
639 953 m 1,104,-1
 639 799 l 1,105,-1
 794 799 l 1,106,-1
 794 953 l 1,107,-1
 639 953 l 1,104,-1
799 953 m 1,108,-1
 799 799 l 1,109,-1
 953 799 l 1,110,-1
 953 953 l 1,111,-1
 799 953 l 1,108,-1
957 953 m 1,112,-1
 957 799 l 1,113,-1
 1112 799 l 1,114,-1
 1112 953 l 1,115,-1
 957 953 l 1,112,-1
4 795 m 1,116,-1
 4 639 l 1,117,-1
 159 639 l 1,118,-1
 159 795 l 1,119,-1
 4 795 l 1,116,-1
163 795 m 1,120,-1
 163 639 l 1,121,-1
 317 639 l 1,122,-1
 317 795 l 1,123,-1
 163 795 l 1,120,-1
322 795 m 1,124,-1
 322 639 l 1,125,-1
 477 639 l 1,126,-1
 477 795 l 1,127,-1
 322 795 l 1,124,-1
481 795 m 1,128,-1
 481 639 l 1,129,-1
 635 639 l 1,130,-1
 635 795 l 1,131,-1
 481 795 l 1,128,-1
639 795 m 1,132,-1
 639 639 l 1,133,-1
 794 639 l 1,134,-1
 794 795 l 1,135,-1
 639 795 l 1,132,-1
799 795 m 1,136,-1
 799 639 l 1,137,-1
 953 639 l 1,138,-1
 953 795 l 1,139,-1
 799 795 l 1,136,-1
957 795 m 1,140,-1
 957 639 l 1,141,-1
 1112 639 l 1,142,-1
 1112 795 l 1,143,-1
 957 795 l 1,140,-1
15 783 m 1,144,-1
 148 783 l 1,145,-1
 148 651 l 1,146,-1
 15 651 l 1,147,-1
 15 783 l 1,144,-1
173 783 m 1,148,-1
 307 783 l 1,149,-1
 307 651 l 1,150,-1
 173 651 l 1,151,-1
 173 783 l 1,148,-1
333 783 m 1,152,-1
 466 783 l 1,153,-1
 466 651 l 1,154,-1
 333 651 l 1,155,-1
 333 783 l 1,152,-1
491 783 m 1,156,-1
 625 783 l 1,157,-1
 625 651 l 1,158,-1
 491 651 l 1,159,-1
 491 783 l 1,156,-1
650 783 m 1,160,-1
 783 783 l 1,161,-1
 783 651 l 1,162,-1
 650 651 l 1,163,-1
 650 783 l 1,160,-1
809 783 m 1,164,-1
 943 783 l 1,165,-1
 943 651 l 1,166,-1
 809 651 l 1,167,-1
 809 783 l 1,164,-1
4 635 m 1,168,-1
 4 481 l 1,169,-1
 159 481 l 1,170,-1
 159 635 l 1,171,-1
 4 635 l 1,168,-1
163 635 m 1,172,-1
 163 481 l 1,173,-1
 317 481 l 1,174,-1
 317 635 l 1,175,-1
 163 635 l 1,172,-1
322 635 m 1,176,-1
 322 481 l 1,177,-1
 477 481 l 1,178,-1
 477 635 l 1,179,-1
 322 635 l 1,176,-1
481 635 m 1,180,-1
 481 481 l 1,181,-1
 635 481 l 1,182,-1
 635 635 l 1,183,-1
 481 635 l 1,180,-1
639 635 m 1,184,-1
 639 481 l 1,185,-1
 794 481 l 1,186,-1
 794 635 l 1,187,-1
 639 635 l 1,184,-1
799 635 m 1,188,-1
 799 481 l 1,189,-1
 953 481 l 1,190,-1
 953 635 l 1,191,-1
 799 635 l 1,188,-1
957 635 m 1,192,-1
 957 481 l 1,193,-1
 1112 481 l 1,194,-1
 1112 635 l 1,195,-1
 957 635 l 1,192,-1
15 625 m 1,196,-1
 148 625 l 1,197,-1
 148 491 l 1,198,-1
 15 491 l 1,199,-1
 15 625 l 1,196,-1
173 625 m 1,200,-1
 307 625 l 1,201,-1
 307 491 l 1,202,-1
 173 491 l 1,203,-1
 173 625 l 1,200,-1
333 625 m 1,204,-1
 466 625 l 1,205,-1
 466 491 l 1,206,-1
 333 491 l 1,207,-1
 333 625 l 1,204,-1
491 625 m 1,208,-1
 625 625 l 1,209,-1
 625 491 l 1,210,-1
 491 491 l 1,211,-1
 491 625 l 1,208,-1
650 625 m 1,212,-1
 783 625 l 1,213,-1
 783 491 l 1,214,-1
 650 491 l 1,215,-1
 650 625 l 1,212,-1
809 625 m 1,216,-1
 943 625 l 1,217,-1
 943 491 l 1,218,-1
 809 491 l 1,219,-1
 809 625 l 1,216,-1
4 477 m 1,220,-1
 4 322 l 1,221,-1
 159 322 l 1,222,-1
 159 477 l 1,223,-1
 4 477 l 1,220,-1
163 477 m 1,224,-1
 163 322 l 1,225,-1
 317 322 l 1,226,-1
 317 477 l 1,227,-1
 163 477 l 1,224,-1
322 477 m 1,228,-1
 322 322 l 1,229,-1
 477 322 l 1,230,-1
 477 477 l 1,231,-1
 322 477 l 1,228,-1
481 477 m 1,232,-1
 481 322 l 1,233,-1
 635 322 l 1,234,-1
 635 477 l 1,235,-1
 481 477 l 1,232,-1
639 477 m 1,236,-1
 639 322 l 1,237,-1
 794 322 l 1,238,-1
 794 477 l 1,239,-1
 639 477 l 1,236,-1
799 477 m 1,240,-1
 799 322 l 1,241,-1
 953 322 l 1,242,-1
 953 477 l 1,243,-1
 799 477 l 1,240,-1
957 477 m 1,244,-1
 957 322 l 1,245,-1
 1112 322 l 1,246,-1
 1112 477 l 1,247,-1
 957 477 l 1,244,-1
4 317 m 1,248,-1
 4 163 l 1,249,-1
 159 163 l 1,250,-1
 159 317 l 1,251,-1
 4 317 l 1,248,-1
163 317 m 1,252,-1
 163 163 l 1,253,-1
 317 163 l 1,254,-1
 317 317 l 1,255,-1
 163 317 l 1,252,-1
322 317 m 1,256,-1
 322 163 l 1,257,-1
 477 163 l 1,258,-1
 477 317 l 1,259,-1
 322 317 l 1,256,-1
481 317 m 1,260,-1
 481 163 l 1,261,-1
 635 163 l 1,262,-1
 635 317 l 1,263,-1
 481 317 l 1,260,-1
639 317 m 1,264,-1
 639 163 l 1,265,-1
 794 163 l 1,266,-1
 794 317 l 1,267,-1
 639 317 l 1,264,-1
799 317 m 1,268,-1
 799 163 l 1,269,-1
 953 163 l 1,270,-1
 953 317 l 1,271,-1
 799 317 l 1,268,-1
957 317 m 1,272,-1
 957 163 l 1,273,-1
 1112 163 l 1,274,-1
 1112 317 l 1,275,-1
 957 317 l 1,272,-1
4 159 m 1,276,-1
 4 4 l 1,277,-1
 159 4 l 1,278,-1
 159 159 l 1,279,-1
 4 159 l 1,276,-1
163 159 m 1,280,-1
 163 4 l 1,281,-1
 317 4 l 1,282,-1
 317 159 l 1,283,-1
 163 159 l 1,280,-1
322 159 m 1,284,-1
 322 4 l 1,285,-1
 477 4 l 1,286,-1
 477 159 l 1,287,-1
 322 159 l 1,284,-1
481 159 m 1,288,-1
 481 4 l 1,289,-1
 635 4 l 1,290,-1
 635 159 l 1,291,-1
 481 159 l 1,288,-1
639 159 m 1,292,-1
 639 4 l 1,293,-1
 794 4 l 1,294,-1
 794 159 l 1,295,-1
 639 159 l 1,292,-1
799 159 m 1,296,-1
 799 4 l 1,297,-1
 953 4 l 1,298,-1
 953 159 l 1,299,-1
 799 159 l 1,296,-1
957 159 m 1,300,-1
 957 4 l 1,301,-1
 1112 4 l 1,302,-1
 1112 159 l 1,303,-1
 957 159 l 1,300,-1
EndSplineSet
EndChar

StartChar: period
Encoding: 46 46 17
Width: 478
Flags: W
LayerCount: 2
Fore
SplineSet
0 1434 m 1,0,-1
 481 1434 l 1,1,-1
 481 0 l 1,2,-1
 0 0 l 1,3,-1
 0 1434 l 1,0,-1
4 1430 m 1,4,-1
 4 1276 l 1,5,-1
 159 1276 l 1,6,-1
 159 1430 l 1,7,-1
 4 1430 l 1,4,-1
163 1430 m 1,8,-1
 163 1276 l 1,9,-1
 318 1276 l 1,10,-1
 318 1430 l 1,11,-1
 163 1430 l 1,8,-1
322 1430 m 1,12,-1
 322 1276 l 1,13,-1
 477 1276 l 1,14,-1
 477 1430 l 1,15,-1
 322 1430 l 1,12,-1
4 1271 m 1,16,-1
 4 1117 l 1,17,-1
 159 1117 l 1,18,-1
 159 1271 l 1,19,-1
 4 1271 l 1,16,-1
163 1271 m 1,20,-1
 163 1117 l 1,21,-1
 318 1117 l 1,22,-1
 318 1271 l 1,23,-1
 163 1271 l 1,20,-1
322 1271 m 1,24,-1
 322 1117 l 1,25,-1
 477 1117 l 1,26,-1
 477 1271 l 1,27,-1
 322 1271 l 1,24,-1
4 1112 m 1,28,-1
 4 958 l 1,29,-1
 159 958 l 1,30,-1
 159 1112 l 1,31,-1
 4 1112 l 1,28,-1
163 1112 m 1,32,-1
 163 958 l 1,33,-1
 318 958 l 1,34,-1
 318 1112 l 1,35,-1
 163 1112 l 1,32,-1
322 1112 m 1,36,-1
 322 958 l 1,37,-1
 477 958 l 1,38,-1
 477 1112 l 1,39,-1
 322 1112 l 1,36,-1
4 953 m 1,40,-1
 4 799 l 1,41,-1
 159 799 l 1,42,-1
 159 953 l 1,43,-1
 4 953 l 1,40,-1
163 953 m 1,44,-1
 163 799 l 1,45,-1
 318 799 l 1,46,-1
 318 953 l 1,47,-1
 163 953 l 1,44,-1
322 953 m 1,48,-1
 322 799 l 1,49,-1
 477 799 l 1,50,-1
 477 953 l 1,51,-1
 322 953 l 1,48,-1
4 795 m 1,52,-1
 4 640 l 1,53,-1
 159 640 l 1,54,-1
 159 795 l 1,55,-1
 4 795 l 1,52,-1
163 795 m 1,56,-1
 163 640 l 1,57,-1
 318 640 l 1,58,-1
 318 795 l 1,59,-1
 163 795 l 1,56,-1
322 795 m 1,60,-1
 322 640 l 1,61,-1
 477 640 l 1,62,-1
 477 795 l 1,63,-1
 322 795 l 1,60,-1
4 635 m 1,64,-1
 4 481 l 1,65,-1
 159 481 l 1,66,-1
 159 635 l 1,67,-1
 4 635 l 1,64,-1
163 635 m 1,68,-1
 163 481 l 1,69,-1
 318 481 l 1,70,-1
 318 635 l 1,71,-1
 163 635 l 1,68,-1
322 635 m 1,72,-1
 322 481 l 1,73,-1
 477 481 l 1,74,-1
 477 635 l 1,75,-1
 322 635 l 1,72,-1
4 477 m 1,76,-1
 4 322 l 1,77,-1
 159 322 l 1,78,-1
 159 477 l 1,79,-1
 4 477 l 1,76,-1
163 477 m 1,80,-1
 163 322 l 1,81,-1
 318 322 l 1,82,-1
 318 477 l 1,83,-1
 163 477 l 1,80,-1
322 477 m 1,84,-1
 322 322 l 1,85,-1
 477 322 l 1,86,-1
 477 477 l 1,87,-1
 322 477 l 1,84,-1
15 466 m 1,88,-1
 148 466 l 1,89,-1
 148 333 l 1,90,-1
 15 333 l 1,91,-1
 15 466 l 1,88,-1
174 466 m 1,92,-1
 307 466 l 1,93,-1
 307 333 l 1,94,-1
 174 333 l 1,95,-1
 174 466 l 1,92,-1
4 317 m 1,96,-1
 4 163 l 1,97,-1
 159 163 l 1,98,-1
 159 317 l 1,99,-1
 4 317 l 1,96,-1
163 317 m 1,100,-1
 163 163 l 1,101,-1
 318 163 l 1,102,-1
 318 317 l 1,103,-1
 163 317 l 1,100,-1
322 317 m 1,104,-1
 322 163 l 1,105,-1
 477 163 l 1,106,-1
 477 317 l 1,107,-1
 322 317 l 1,104,-1
15 307 m 1,108,-1
 148 307 l 1,109,-1
 148 173 l 1,110,-1
 15 173 l 1,111,-1
 15 307 l 1,108,-1
174 307 m 1,112,-1
 307 307 l 1,113,-1
 307 173 l 1,114,-1
 174 173 l 1,115,-1
 174 307 l 1,112,-1
4 159 m 1,116,-1
 4 4 l 1,117,-1
 159 4 l 1,118,-1
 159 159 l 1,119,-1
 4 159 l 1,116,-1
163 159 m 1,120,-1
 163 4 l 1,121,-1
 318 4 l 1,122,-1
 318 159 l 1,123,-1
 163 159 l 1,120,-1
322 159 m 1,124,-1
 322 4 l 1,125,-1
 477 4 l 1,126,-1
 477 159 l 1,127,-1
 322 159 l 1,124,-1
EndSplineSet
EndChar

StartChar: slash
Encoding: 47 47 18
Width: 1270
Flags: W
LayerCount: 2
Fore
SplineSet
0 1434 m 1,0,-1
 1275 1434 l 1,1,-1
 1275 0 l 1,2,-1
 0 0 l 1,3,-1
 0 1434 l 1,0,-1
4 1430 m 1,4,-1
 4 1276 l 1,5,-1
 159 1276 l 1,6,-1
 159 1430 l 1,7,-1
 4 1430 l 1,4,-1
163 1430 m 1,8,-1
 163 1276 l 1,9,-1
 317 1276 l 1,10,-1
 317 1430 l 1,11,-1
 163 1430 l 1,8,-1
322 1430 m 1,12,-1
 322 1276 l 1,13,-1
 477 1276 l 1,14,-1
 477 1430 l 1,15,-1
 322 1430 l 1,12,-1
481 1430 m 1,16,-1
 481 1276 l 1,17,-1
 635 1276 l 1,18,-1
 635 1430 l 1,19,-1
 481 1430 l 1,16,-1
639 1430 m 1,20,-1
 639 1276 l 1,21,-1
 794 1276 l 1,22,-1
 794 1430 l 1,23,-1
 639 1430 l 1,20,-1
798 1430 m 1,24,-1
 798 1276 l 1,25,-1
 952 1276 l 1,26,-1
 952 1430 l 1,27,-1
 798 1430 l 1,24,-1
958 1430 m 1,28,-1
 958 1276 l 1,29,-1
 1112 1276 l 1,30,-1
 1112 1430 l 1,31,-1
 958 1430 l 1,28,-1
1116 1430 m 1,32,-1
 1116 1276 l 1,33,-1
 1270 1276 l 1,34,-1
 1270 1430 l 1,35,-1
 1116 1430 l 1,32,-1
4 1271 m 1,36,-1
 4 1117 l 1,37,-1
 159 1117 l 1,38,-1
 159 1271 l 1,39,-1
 4 1271 l 1,36,-1
163 1271 m 1,40,-1
 163 1117 l 1,41,-1
 317 1117 l 1,42,-1
 317 1271 l 1,43,-1
 163 1271 l 1,40,-1
322 1271 m 1,44,-1
 322 1117 l 1,45,-1
 477 1117 l 1,46,-1
 477 1271 l 1,47,-1
 322 1271 l 1,44,-1
481 1271 m 1,48,-1
 481 1117 l 1,49,-1
 635 1117 l 1,50,-1
 635 1271 l 1,51,-1
 481 1271 l 1,48,-1
639 1271 m 1,52,-1
 639 1117 l 1,53,-1
 794 1117 l 1,54,-1
 794 1271 l 1,55,-1
 639 1271 l 1,52,-1
798 1271 m 1,56,-1
 798 1117 l 1,57,-1
 952 1117 l 1,58,-1
 952 1271 l 1,59,-1
 798 1271 l 1,56,-1
958 1271 m 1,60,-1
 958 1117 l 1,61,-1
 1112 1117 l 1,62,-1
 1112 1271 l 1,63,-1
 958 1271 l 1,60,-1
1116 1271 m 1,64,-1
 1116 1117 l 1,65,-1
 1270 1117 l 1,66,-1
 1270 1271 l 1,67,-1
 1116 1271 l 1,64,-1
809 1261 m 1,68,-1
 942 1261 l 1,69,-1
 942 1127 l 1,70,-1
 809 1127 l 1,71,-1
 809 1261 l 1,68,-1
968 1261 m 1,72,-1
 1100 1261 l 2,73,74
 1101 1261 1101 1261 1101 1259 c 2,75,-1
 1101 1127 l 1,76,-1
 968 1127 l 1,77,-1
 968 1261 l 1,72,-1
4 1112 m 1,78,-1
 4 958 l 1,79,-1
 159 958 l 1,80,-1
 159 1112 l 1,81,-1
 4 1112 l 1,78,-1
163 1112 m 1,82,-1
 163 958 l 1,83,-1
 317 958 l 1,84,-1
 317 1112 l 1,85,-1
 163 1112 l 1,82,-1
322 1112 m 1,86,-1
 322 958 l 1,87,-1
 477 958 l 1,88,-1
 477 1112 l 1,89,-1
 322 1112 l 1,86,-1
481 1112 m 1,90,-1
 481 958 l 1,91,-1
 635 958 l 1,92,-1
 635 1112 l 1,93,-1
 481 1112 l 1,90,-1
639 1112 m 1,94,-1
 639 958 l 1,95,-1
 794 958 l 1,96,-1
 794 1112 l 1,97,-1
 639 1112 l 1,94,-1
798 1112 m 1,98,-1
 798 958 l 1,99,-1
 952 958 l 1,100,-1
 952 1112 l 1,101,-1
 798 1112 l 1,98,-1
958 1112 m 1,102,-1
 958 958 l 1,103,-1
 1112 958 l 1,104,-1
 1112 1112 l 1,105,-1
 958 1112 l 1,102,-1
1116 1112 m 1,106,-1
 1116 958 l 1,107,-1
 1270 958 l 1,108,-1
 1270 1112 l 1,109,-1
 1116 1112 l 1,106,-1
650 1101 m 1,110,-1
 783 1101 l 1,111,-1
 783 968 l 1,112,-1
 650 968 l 1,113,-1
 650 1101 l 1,110,-1
809 1101 m 1,114,-1
 942 1101 l 1,115,-1
 942 968 l 1,116,-1
 809 968 l 1,117,-1
 809 1101 l 1,114,-1
968 1101 m 1,118,-1
 1101 1101 l 1,119,-1
 1101 968 l 1,120,-1
 968 968 l 1,121,-1
 968 1101 l 1,118,-1
4 953 m 1,122,-1
 4 799 l 1,123,-1
 159 799 l 1,124,-1
 159 953 l 1,125,-1
 4 953 l 1,122,-1
163 953 m 1,126,-1
 163 799 l 1,127,-1
 317 799 l 1,128,-1
 317 953 l 1,129,-1
 163 953 l 1,126,-1
322 953 m 1,130,-1
 322 799 l 1,131,-1
 477 799 l 1,132,-1
 477 953 l 1,133,-1
 322 953 l 1,130,-1
481 953 m 1,134,-1
 481 799 l 1,135,-1
 635 799 l 1,136,-1
 635 953 l 1,137,-1
 481 953 l 1,134,-1
639 953 m 1,138,-1
 639 799 l 1,139,-1
 794 799 l 1,140,-1
 794 953 l 1,141,-1
 639 953 l 1,138,-1
798 953 m 1,142,-1
 798 799 l 1,143,-1
 952 799 l 1,144,-1
 952 953 l 1,145,-1
 798 953 l 1,142,-1
958 953 m 1,146,-1
 958 799 l 1,147,-1
 1112 799 l 1,148,-1
 1112 953 l 1,149,-1
 958 953 l 1,146,-1
1116 953 m 1,150,-1
 1116 799 l 1,151,-1
 1270 799 l 1,152,-1
 1270 953 l 1,153,-1
 1116 953 l 1,150,-1
491 943 m 1,154,-1
 625 943 l 1,155,-1
 625 809 l 1,156,-1
 491 809 l 1,157,-1
 491 943 l 1,154,-1
650 943 m 1,158,-1
 783 943 l 1,159,-1
 783 809 l 1,160,-1
 650 809 l 1,161,-1
 650 943 l 1,158,-1
809 943 m 1,162,-1
 942 943 l 1,163,-1
 942 809 l 1,164,-1
 809 809 l 1,165,-1
 809 943 l 1,162,-1
4 795 m 1,166,-1
 4 639 l 1,167,-1
 159 639 l 1,168,-1
 159 795 l 1,169,-1
 4 795 l 1,166,-1
163 795 m 1,170,-1
 163 639 l 1,171,-1
 317 639 l 1,172,-1
 317 795 l 1,173,-1
 163 795 l 1,170,-1
322 795 m 1,174,-1
 322 639 l 1,175,-1
 477 639 l 1,176,-1
 477 795 l 1,177,-1
 322 795 l 1,174,-1
481 795 m 1,178,-1
 481 639 l 1,179,-1
 635 639 l 1,180,-1
 635 795 l 1,181,-1
 481 795 l 1,178,-1
639 795 m 1,182,-1
 639 639 l 1,183,-1
 794 639 l 1,184,-1
 794 795 l 1,185,-1
 639 795 l 1,182,-1
798 795 m 1,186,-1
 798 639 l 1,187,-1
 952 639 l 1,188,-1
 952 795 l 1,189,-1
 798 795 l 1,186,-1
958 795 m 1,190,-1
 958 639 l 1,191,-1
 1112 639 l 1,192,-1
 1112 795 l 1,193,-1
 958 795 l 1,190,-1
1116 795 m 1,194,-1
 1116 639 l 1,195,-1
 1270 639 l 1,196,-1
 1270 795 l 1,197,-1
 1116 795 l 1,194,-1
333 783 m 1,198,-1
 465 783 l 1,199,-1
 465 651 l 1,200,-1
 333 651 l 1,201,-1
 333 783 l 1,198,-1
491 783 m 1,202,-1
 625 783 l 1,203,-1
 625 651 l 1,204,-1
 491 651 l 1,205,-1
 491 783 l 1,202,-1
650 783 m 1,206,-1
 783 783 l 1,207,-1
 783 651 l 1,208,-1
 650 651 l 1,209,-1
 650 783 l 1,206,-1
4 635 m 1,210,-1
 4 481 l 1,211,-1
 159 481 l 1,212,-1
 159 635 l 1,213,-1
 4 635 l 1,210,-1
163 635 m 1,214,-1
 163 481 l 1,215,-1
 317 481 l 1,216,-1
 317 635 l 1,217,-1
 163 635 l 1,214,-1
322 635 m 1,218,-1
 322 481 l 1,219,-1
 477 481 l 1,220,-1
 477 635 l 1,221,-1
 322 635 l 1,218,-1
481 635 m 1,222,-1
 481 481 l 1,223,-1
 635 481 l 1,224,-1
 635 635 l 1,225,-1
 481 635 l 1,222,-1
639 635 m 1,226,-1
 639 481 l 1,227,-1
 794 481 l 1,228,-1
 794 635 l 1,229,-1
 639 635 l 1,226,-1
798 635 m 1,230,-1
 798 481 l 1,231,-1
 952 481 l 1,232,-1
 952 635 l 1,233,-1
 798 635 l 1,230,-1
958 635 m 1,234,-1
 958 481 l 1,235,-1
 1112 481 l 1,236,-1
 1112 635 l 1,237,-1
 958 635 l 1,234,-1
1116 635 m 1,238,-1
 1116 481 l 1,239,-1
 1270 481 l 1,240,-1
 1270 635 l 1,241,-1
 1116 635 l 1,238,-1
173 625 m 1,242,-1
 307 625 l 1,243,-1
 307 491 l 1,244,-1
 173 491 l 1,245,-1
 173 625 l 1,242,-1
333 625 m 1,246,-1
 465 625 l 1,247,-1
 465 491 l 1,248,-1
 333 491 l 1,249,-1
 333 625 l 1,246,-1
491 625 m 1,250,-1
 625 625 l 1,251,-1
 625 491 l 1,252,-1
 491 491 l 1,253,-1
 491 625 l 1,250,-1
4 477 m 1,254,-1
 4 322 l 1,255,-1
 159 322 l 1,256,-1
 159 477 l 1,257,-1
 4 477 l 1,254,-1
163 477 m 1,258,-1
 163 322 l 1,259,-1
 317 322 l 1,260,-1
 317 477 l 1,261,-1
 163 477 l 1,258,-1
322 477 m 1,262,-1
 322 322 l 1,263,-1
 477 322 l 1,264,-1
 477 477 l 1,265,-1
 322 477 l 1,262,-1
481 477 m 1,266,-1
 481 322 l 1,267,-1
 635 322 l 1,268,-1
 635 477 l 1,269,-1
 481 477 l 1,266,-1
639 477 m 1,270,-1
 639 322 l 1,271,-1
 794 322 l 1,272,-1
 794 477 l 1,273,-1
 639 477 l 1,270,-1
798 477 m 1,274,-1
 798 322 l 1,275,-1
 952 322 l 1,276,-1
 952 477 l 1,277,-1
 798 477 l 1,274,-1
958 477 m 1,278,-1
 958 322 l 1,279,-1
 1112 322 l 1,280,-1
 1112 477 l 1,281,-1
 958 477 l 1,278,-1
1116 477 m 1,282,-1
 1116 322 l 1,283,-1
 1270 322 l 1,284,-1
 1270 477 l 1,285,-1
 1116 477 l 1,282,-1
15 466 m 1,286,-1
 148 466 l 1,287,-1
 148 333 l 1,288,-1
 15 333 l 1,289,-1
 15 466 l 1,286,-1
173 466 m 1,290,-1
 307 466 l 1,291,-1
 307 333 l 1,292,-1
 173 333 l 1,293,-1
 173 466 l 1,290,-1
333 466 m 1,294,-1
 465 466 l 1,295,-1
 465 333 l 1,296,-1
 333 333 l 1,297,-1
 333 466 l 1,294,-1
4 317 m 1,298,-1
 4 163 l 1,299,-1
 159 163 l 1,300,-1
 159 317 l 1,301,-1
 4 317 l 1,298,-1
163 317 m 1,302,-1
 163 163 l 1,303,-1
 317 163 l 1,304,-1
 317 317 l 1,305,-1
 163 317 l 1,302,-1
322 317 m 1,306,-1
 322 163 l 1,307,-1
 477 163 l 1,308,-1
 477 317 l 1,309,-1
 322 317 l 1,306,-1
481 317 m 1,310,-1
 481 163 l 1,311,-1
 635 163 l 1,312,-1
 635 317 l 1,313,-1
 481 317 l 1,310,-1
639 317 m 1,314,-1
 639 163 l 1,315,-1
 794 163 l 1,316,-1
 794 317 l 1,317,-1
 639 317 l 1,314,-1
798 317 m 1,318,-1
 798 163 l 1,319,-1
 952 163 l 1,320,-1
 952 317 l 1,321,-1
 798 317 l 1,318,-1
958 317 m 1,322,-1
 958 163 l 1,323,-1
 1112 163 l 1,324,-1
 1112 317 l 1,325,-1
 958 317 l 1,322,-1
1116 317 m 1,326,-1
 1116 163 l 1,327,-1
 1270 163 l 1,328,-1
 1270 317 l 1,329,-1
 1116 317 l 1,326,-1
15 307 m 1,330,-1
 148 307 l 1,331,-1
 148 173 l 1,332,-1
 15 173 l 1,333,-1
 15 307 l 1,330,-1
173 307 m 1,334,-1
 307 307 l 1,335,-1
 307 173 l 1,336,-1
 175 173 l 2,337,338
 173 173 173 173 173 175 c 2,339,-1
 173 307 l 1,334,-1
4 159 m 1,340,-1
 4 4 l 1,341,-1
 159 4 l 1,342,-1
 159 159 l 1,343,-1
 4 159 l 1,340,-1
163 159 m 1,344,-1
 163 4 l 1,345,-1
 317 4 l 1,346,-1
 317 159 l 1,347,-1
 163 159 l 1,344,-1
322 159 m 1,348,-1
 322 4 l 1,349,-1
 477 4 l 1,350,-1
 477 159 l 1,351,-1
 322 159 l 1,348,-1
481 159 m 1,352,-1
 481 4 l 1,353,-1
 635 4 l 1,354,-1
 635 159 l 1,355,-1
 481 159 l 1,352,-1
639 159 m 1,356,-1
 639 4 l 1,357,-1
 794 4 l 1,358,-1
 794 159 l 1,359,-1
 639 159 l 1,356,-1
798 159 m 1,360,-1
 798 4 l 1,361,-1
 952 4 l 1,362,-1
 952 159 l 1,363,-1
 798 159 l 1,360,-1
958 159 m 1,364,-1
 958 4 l 1,365,-1
 1112 4 l 1,366,-1
 1112 159 l 1,367,-1
 958 159 l 1,364,-1
1116 159 m 1,368,-1
 1116 4 l 1,369,-1
 1270 4 l 1,370,-1
 1270 159 l 1,371,-1
 1116 159 l 1,368,-1
EndSplineSet
EndChar

StartChar: zero
Encoding: 48 48 19
Width: 1270
Flags: W
LayerCount: 2
Fore
SplineSet
0 1434 m 1,0,-1
 1275 1434 l 1,1,-1
 1275 0 l 1,2,-1
 0 0 l 1,3,-1
 0 1434 l 1,0,-1
4 1430 m 1,4,-1
 4 1276 l 1,5,-1
 159 1276 l 1,6,-1
 159 1430 l 1,7,-1
 4 1430 l 1,4,-1
163 1430 m 1,8,-1
 163 1276 l 1,9,-1
 317 1276 l 1,10,-1
 317 1430 l 1,11,-1
 163 1430 l 1,8,-1
322 1430 m 1,12,-1
 322 1276 l 1,13,-1
 477 1276 l 1,14,-1
 477 1430 l 1,15,-1
 322 1430 l 1,12,-1
481 1430 m 1,16,-1
 481 1276 l 1,17,-1
 635 1276 l 1,18,-1
 635 1430 l 1,19,-1
 481 1430 l 1,16,-1
640 1430 m 1,20,-1
 640 1276 l 1,21,-1
 794 1276 l 1,22,-1
 794 1430 l 1,23,-1
 640 1430 l 1,20,-1
798 1430 m 1,24,-1
 798 1276 l 1,25,-1
 952 1276 l 1,26,-1
 952 1430 l 1,27,-1
 798 1430 l 1,24,-1
958 1430 m 1,28,-1
 958 1276 l 1,29,-1
 1112 1276 l 1,30,-1
 1112 1430 l 1,31,-1
 958 1430 l 1,28,-1
1116 1430 m 1,32,-1
 1116 1276 l 1,33,-1
 1271 1276 l 1,34,-1
 1271 1430 l 1,35,-1
 1116 1430 l 1,32,-1
4 1271 m 1,36,-1
 4 1117 l 1,37,-1
 159 1117 l 1,38,-1
 159 1271 l 1,39,-1
 4 1271 l 1,36,-1
163 1271 m 1,40,-1
 163 1117 l 1,41,-1
 317 1117 l 1,42,-1
 317 1271 l 1,43,-1
 163 1271 l 1,40,-1
322 1271 m 1,44,-1
 322 1117 l 1,45,-1
 477 1117 l 1,46,-1
 477 1271 l 1,47,-1
 322 1271 l 1,44,-1
481 1271 m 1,48,-1
 481 1117 l 1,49,-1
 635 1117 l 1,50,-1
 635 1271 l 1,51,-1
 481 1271 l 1,48,-1
640 1271 m 1,52,-1
 640 1117 l 1,53,-1
 794 1117 l 1,54,-1
 794 1271 l 1,55,-1
 640 1271 l 1,52,-1
798 1271 m 1,56,-1
 798 1117 l 1,57,-1
 952 1117 l 1,58,-1
 952 1271 l 1,59,-1
 798 1271 l 1,56,-1
958 1271 m 1,60,-1
 958 1117 l 1,61,-1
 1112 1117 l 1,62,-1
 1112 1271 l 1,63,-1
 958 1271 l 1,60,-1
1116 1271 m 1,64,-1
 1116 1117 l 1,65,-1
 1271 1117 l 1,66,-1
 1271 1271 l 1,67,-1
 1116 1271 l 1,64,-1
333 1261 m 1,68,-1
 465 1261 l 1,69,-1
 465 1128 l 1,70,-1
 333 1128 l 1,71,-1
 333 1261 l 1,68,-1
491 1261 m 1,72,-1
 625 1261 l 1,73,-1
 625 1128 l 1,74,-1
 491 1128 l 1,75,-1
 491 1261 l 1,72,-1
650 1261 m 1,76,-1
 783 1261 l 1,77,-1
 783 1128 l 1,78,-1
 650 1128 l 1,79,-1
 650 1261 l 1,76,-1
4 1112 m 1,80,-1
 4 958 l 1,81,-1
 159 958 l 1,82,-1
 159 1112 l 1,83,-1
 4 1112 l 1,80,-1
163 1112 m 1,84,-1
 163 958 l 1,85,-1
 317 958 l 1,86,-1
 317 1112 l 1,87,-1
 163 1112 l 1,84,-1
322 1112 m 1,88,-1
 322 958 l 1,89,-1
 477 958 l 1,90,-1
 477 1112 l 1,91,-1
 322 1112 l 1,88,-1
481 1112 m 1,92,-1
 481 958 l 1,93,-1
 635 958 l 1,94,-1
 635 1112 l 1,95,-1
 481 1112 l 1,92,-1
640 1112 m 1,96,-1
 640 958 l 1,97,-1
 794 958 l 1,98,-1
 794 1112 l 1,99,-1
 640 1112 l 1,96,-1
798 1112 m 1,100,-1
 798 958 l 1,101,-1
 952 958 l 1,102,-1
 952 1112 l 1,103,-1
 798 1112 l 1,100,-1
958 1112 m 1,104,-1
 958 958 l 1,105,-1
 1112 958 l 1,106,-1
 1112 1112 l 1,107,-1
 958 1112 l 1,104,-1
1116 1112 m 1,108,-1
 1116 958 l 1,109,-1
 1271 958 l 1,110,-1
 1271 1112 l 1,111,-1
 1116 1112 l 1,108,-1
173 1102 m 1,112,-1
 307 1102 l 1,113,-1
 307 968 l 1,114,-1
 173 968 l 1,115,-1
 173 1102 l 1,112,-1
650 1102 m 1,116,-1
 783 1102 l 1,117,-1
 783 968 l 1,118,-1
 650 968 l 1,119,-1
 650 1102 l 1,116,-1
809 1102 m 1,120,-1
 942 1102 l 1,121,-1
 942 968 l 1,122,-1
 809 968 l 1,123,-1
 809 1102 l 1,120,-1
4 953 m 1,124,-1
 4 799 l 1,125,-1
 159 799 l 1,126,-1
 159 953 l 1,127,-1
 4 953 l 1,124,-1
163 953 m 1,128,-1
 163 799 l 1,129,-1
 317 799 l 1,130,-1
 317 953 l 1,131,-1
 163 953 l 1,128,-1
322 953 m 1,132,-1
 322 799 l 1,133,-1
 477 799 l 1,134,-1
 477 953 l 1,135,-1
 322 953 l 1,132,-1
481 953 m 1,136,-1
 481 799 l 1,137,-1
 635 799 l 1,138,-1
 635 953 l 1,139,-1
 481 953 l 1,136,-1
640 953 m 1,140,-1
 640 799 l 1,141,-1
 794 799 l 1,142,-1
 794 953 l 1,143,-1
 640 953 l 1,140,-1
798 953 m 1,144,-1
 798 799 l 1,145,-1
 952 799 l 1,146,-1
 952 953 l 1,147,-1
 798 953 l 1,144,-1
958 953 m 1,148,-1
 958 799 l 1,149,-1
 1112 799 l 1,150,-1
 1112 953 l 1,151,-1
 958 953 l 1,148,-1
1116 953 m 1,152,-1
 1116 799 l 1,153,-1
 1271 799 l 1,154,-1
 1271 953 l 1,155,-1
 1116 953 l 1,152,-1
15 943 m 1,156,-1
 148 943 l 1,157,-1
 148 809 l 1,158,-1
 15 809 l 1,159,-1
 15 943 l 1,156,-1
173 943 m 1,160,-1
 307 943 l 1,161,-1
 307 809 l 1,162,-1
 173 809 l 1,163,-1
 173 943 l 1,160,-1
809 943 m 1,164,-1
 942 943 l 1,165,-1
 942 809 l 1,166,-1
 809 809 l 1,167,-1
 809 943 l 1,164,-1
968 943 m 1,168,-1
 1102 943 l 1,169,-1
 1102 809 l 1,170,-1
 968 809 l 1,171,-1
 968 943 l 1,168,-1
4 795 m 1,172,-1
 4 640 l 1,173,-1
 159 640 l 1,174,-1
 159 795 l 1,175,-1
 4 795 l 1,172,-1
163 795 m 1,176,-1
 163 640 l 1,177,-1
 317 640 l 1,178,-1
 317 795 l 1,179,-1
 163 795 l 1,176,-1
322 795 m 1,180,-1
 322 640 l 1,181,-1
 477 640 l 1,182,-1
 477 795 l 1,183,-1
 322 795 l 1,180,-1
481 795 m 1,184,-1
 481 640 l 1,185,-1
 635 640 l 1,186,-1
 635 795 l 1,187,-1
 481 795 l 1,184,-1
640 795 m 1,188,-1
 640 640 l 1,189,-1
 794 640 l 1,190,-1
 794 795 l 1,191,-1
 640 795 l 1,188,-1
798 795 m 1,192,-1
 798 640 l 1,193,-1
 952 640 l 1,194,-1
 952 795 l 1,195,-1
 798 795 l 1,192,-1
958 795 m 1,196,-1
 958 640 l 1,197,-1
 1112 640 l 1,198,-1
 1112 795 l 1,199,-1
 958 795 l 1,196,-1
1116 795 m 1,200,-1
 1116 640 l 1,201,-1
 1271 640 l 1,202,-1
 1271 795 l 1,203,-1
 1116 795 l 1,200,-1
15 783 m 1,204,-1
 148 783 l 1,205,-1
 148 651 l 1,206,-1
 15 651 l 1,207,-1
 15 783 l 1,204,-1
173 783 m 1,208,-1
 307 783 l 1,209,-1
 307 651 l 1,210,-1
 173 651 l 1,211,-1
 173 783 l 1,208,-1
809 783 m 1,212,-1
 942 783 l 1,213,-1
 942 651 l 1,214,-1
 809 651 l 1,215,-1
 809 783 l 1,212,-1
968 783 m 1,216,-1
 1102 783 l 1,217,-1
 1102 651 l 1,218,-1
 968 651 l 1,219,-1
 968 783 l 1,216,-1
4 635 m 1,220,-1
 4 481 l 1,221,-1
 159 481 l 1,222,-1
 159 635 l 1,223,-1
 4 635 l 1,220,-1
163 635 m 1,224,-1
 163 481 l 1,225,-1
 317 481 l 1,226,-1
 317 635 l 1,227,-1
 163 635 l 1,224,-1
322 635 m 1,228,-1
 322 481 l 1,229,-1
 477 481 l 1,230,-1
 477 635 l 1,231,-1
 322 635 l 1,228,-1
481 635 m 1,232,-1
 481 481 l 1,233,-1
 635 481 l 1,234,-1
 635 635 l 1,235,-1
 481 635 l 1,232,-1
640 635 m 1,236,-1
 640 481 l 1,237,-1
 794 481 l 1,238,-1
 794 635 l 1,239,-1
 640 635 l 1,236,-1
798 635 m 1,240,-1
 798 481 l 1,241,-1
 952 481 l 1,242,-1
 952 635 l 1,243,-1
 798 635 l 1,240,-1
958 635 m 1,244,-1
 958 481 l 1,245,-1
 1112 481 l 1,246,-1
 1112 635 l 1,247,-1
 958 635 l 1,244,-1
1116 635 m 1,248,-1
 1116 481 l 1,249,-1
 1271 481 l 1,250,-1
 1271 635 l 1,251,-1
 1116 635 l 1,248,-1
15 625 m 1,252,-1
 148 625 l 1,253,-1
 148 491 l 1,254,-1
 15 491 l 1,255,-1
 15 625 l 1,252,-1
173 625 m 1,256,-1
 307 625 l 1,257,-1
 307 491 l 1,258,-1
 173 491 l 1,259,-1
 173 625 l 1,256,-1
809 625 m 1,260,-1
 942 625 l 1,261,-1
 942 491 l 1,262,-1
 809 491 l 1,263,-1
 809 625 l 1,260,-1
968 625 m 1,264,-1
 1102 625 l 1,265,-1
 1102 491 l 1,266,-1
 968 491 l 1,267,-1
 968 625 l 1,264,-1
4 477 m 1,268,-1
 4 322 l 1,269,-1
 159 322 l 1,270,-1
 159 477 l 1,271,-1
 4 477 l 1,268,-1
163 477 m 1,272,-1
 163 322 l 1,273,-1
 317 322 l 1,274,-1
 317 477 l 1,275,-1
 163 477 l 1,272,-1
322 477 m 1,276,-1
 322 322 l 1,277,-1
 477 322 l 1,278,-1
 477 477 l 1,279,-1
 322 477 l 1,276,-1
481 477 m 1,280,-1
 481 322 l 1,281,-1
 635 322 l 1,282,-1
 635 477 l 1,283,-1
 481 477 l 1,280,-1
640 477 m 1,284,-1
 640 322 l 1,285,-1
 794 322 l 1,286,-1
 794 477 l 1,287,-1
 640 477 l 1,284,-1
798 477 m 1,288,-1
 798 322 l 1,289,-1
 952 322 l 1,290,-1
 952 477 l 1,291,-1
 798 477 l 1,288,-1
958 477 m 1,292,-1
 958 322 l 1,293,-1
 1112 322 l 1,294,-1
 1112 477 l 1,295,-1
 958 477 l 1,292,-1
1116 477 m 1,296,-1
 1116 322 l 1,297,-1
 1271 322 l 1,298,-1
 1271 477 l 1,299,-1
 1116 477 l 1,296,-1
173 466 m 1,300,-1
 307 466 l 1,301,-1
 307 333 l 1,302,-1
 173 333 l 1,303,-1
 173 466 l 1,300,-1
333 466 m 1,304,-1
 465 466 l 1,305,-1
 465 333 l 1,306,-1
 333 333 l 1,307,-1
 333 466 l 1,304,-1
809 466 m 1,308,-1
 942 466 l 1,309,-1
 942 333 l 1,310,-1
 809 333 l 1,311,-1
 809 466 l 1,308,-1
4 317 m 1,312,-1
 4 163 l 1,313,-1
 159 163 l 1,314,-1
 159 317 l 1,315,-1
 4 317 l 1,312,-1
163 317 m 1,316,-1
 163 163 l 1,317,-1
 317 163 l 1,318,-1
 317 317 l 1,319,-1
 163 317 l 1,316,-1
322 317 m 1,320,-1
 322 163 l 1,321,-1
 477 163 l 1,322,-1
 477 317 l 1,323,-1
 322 317 l 1,320,-1
481 317 m 1,324,-1
 481 163 l 1,325,-1
 635 163 l 1,326,-1
 635 317 l 1,327,-1
 481 317 l 1,324,-1
640 317 m 1,328,-1
 640 163 l 1,329,-1
 794 163 l 1,330,-1
 794 317 l 1,331,-1
 640 317 l 1,328,-1
798 317 m 1,332,-1
 798 163 l 1,333,-1
 952 163 l 1,334,-1
 952 317 l 1,335,-1
 798 317 l 1,332,-1
958 317 m 1,336,-1
 958 163 l 1,337,-1
 1112 163 l 1,338,-1
 1112 317 l 1,339,-1
 958 317 l 1,336,-1
1116 317 m 1,340,-1
 1116 163 l 1,341,-1
 1271 163 l 1,342,-1
 1271 317 l 1,343,-1
 1116 317 l 1,340,-1
333 307 m 1,344,-1
 465 307 l 1,345,-1
 465 173 l 1,346,-1
 333 173 l 1,347,-1
 333 307 l 1,344,-1
491 307 m 1,348,-1
 625 307 l 1,349,-1
 625 173 l 1,350,-1
 491 173 l 1,351,-1
 491 307 l 1,348,-1
650 307 m 1,352,-1
 783 307 l 1,353,-1
 783 173 l 1,354,-1
 650 173 l 1,355,-1
 650 307 l 1,352,-1
4 159 m 1,356,-1
 4 4 l 1,357,-1
 159 4 l 1,358,-1
 159 159 l 1,359,-1
 4 159 l 1,356,-1
163 159 m 1,360,-1
 163 4 l 1,361,-1
 317 4 l 1,362,-1
 317 159 l 1,363,-1
 163 159 l 1,360,-1
322 159 m 1,364,-1
 322 4 l 1,365,-1
 477 4 l 1,366,-1
 477 159 l 1,367,-1
 322 159 l 1,364,-1
481 159 m 1,368,-1
 481 4 l 1,369,-1
 635 4 l 1,370,-1
 635 159 l 1,371,-1
 481 159 l 1,368,-1
640 159 m 1,372,-1
 640 4 l 1,373,-1
 794 4 l 1,374,-1
 794 159 l 1,375,-1
 640 159 l 1,372,-1
798 159 m 1,376,-1
 798 4 l 1,377,-1
 952 4 l 1,378,-1
 952 159 l 1,379,-1
 798 159 l 1,376,-1
958 159 m 1,380,-1
 958 4 l 1,381,-1
 1112 4 l 1,382,-1
 1112 159 l 1,383,-1
 958 159 l 1,380,-1
1116 159 m 1,384,-1
 1116 4 l 1,385,-1
 1271 4 l 1,386,-1
 1271 159 l 1,387,-1
 1116 159 l 1,384,-1
EndSplineSet
EndChar

StartChar: one
Encoding: 49 49 20
Width: 1113
Flags: W
LayerCount: 2
Fore
SplineSet
0 1434 m 1,0,-1
 1116 1434 l 1,1,-1
 1116 0 l 1,2,-1
 0 0 l 1,3,-1
 0 1434 l 1,0,-1
4 1430 m 1,4,-1
 4 1275 l 1,5,-1
 159 1275 l 1,6,-1
 159 1430 l 1,7,-1
 4 1430 l 1,4,-1
163 1430 m 1,8,-1
 163 1275 l 1,9,-1
 317 1275 l 1,10,-1
 317 1430 l 1,11,-1
 163 1430 l 1,8,-1
322 1430 m 1,12,-1
 322 1275 l 1,13,-1
 477 1275 l 1,14,-1
 477 1430 l 1,15,-1
 322 1430 l 1,12,-1
481 1430 m 1,16,-1
 481 1275 l 1,17,-1
 635 1275 l 1,18,-1
 635 1430 l 1,19,-1
 481 1430 l 1,16,-1
639 1430 m 1,20,-1
 639 1275 l 1,21,-1
 794 1275 l 1,22,-1
 794 1430 l 1,23,-1
 639 1430 l 1,20,-1
799 1430 m 1,24,-1
 799 1275 l 1,25,-1
 953 1275 l 1,26,-1
 953 1430 l 1,27,-1
 799 1430 l 1,24,-1
957 1430 m 1,28,-1
 957 1275 l 1,29,-1
 1112 1275 l 1,30,-1
 1112 1430 l 1,31,-1
 957 1430 l 1,28,-1
4 1271 m 1,32,-1
 4 1117 l 1,33,-1
 159 1117 l 1,34,-1
 159 1271 l 1,35,-1
 4 1271 l 1,32,-1
163 1271 m 1,36,-1
 163 1117 l 1,37,-1
 317 1117 l 1,38,-1
 317 1271 l 1,39,-1
 163 1271 l 1,36,-1
322 1271 m 1,40,-1
 322 1117 l 1,41,-1
 477 1117 l 1,42,-1
 477 1271 l 1,43,-1
 322 1271 l 1,40,-1
481 1271 m 1,44,-1
 481 1117 l 1,45,-1
 635 1117 l 1,46,-1
 635 1271 l 1,47,-1
 481 1271 l 1,44,-1
639 1271 m 1,48,-1
 639 1117 l 1,49,-1
 794 1117 l 1,50,-1
 794 1271 l 1,51,-1
 639 1271 l 1,48,-1
799 1271 m 1,52,-1
 799 1117 l 1,53,-1
 953 1117 l 1,54,-1
 953 1271 l 1,55,-1
 799 1271 l 1,52,-1
957 1271 m 1,56,-1
 957 1117 l 1,57,-1
 1112 1117 l 1,58,-1
 1112 1271 l 1,59,-1
 957 1271 l 1,56,-1
333 1261 m 1,60,-1
 464 1261 l 2,61,62
 466 1260 466 1260 466 1259 c 2,63,-1
 466 1127 l 1,64,-1
 333 1127 l 1,65,-1
 333 1261 l 1,60,-1
491 1261 m 1,66,-1
 625 1261 l 1,67,-1
 625 1127 l 1,68,-1
 491 1127 l 1,69,-1
 491 1261 l 1,66,-1
4 1112 m 1,70,-1
 4 957 l 1,71,-1
 159 957 l 1,72,-1
 159 1112 l 1,73,-1
 4 1112 l 1,70,-1
163 1112 m 1,74,-1
 163 957 l 1,75,-1
 317 957 l 1,76,-1
 317 1112 l 1,77,-1
 163 1112 l 1,74,-1
322 1112 m 1,78,-1
 322 957 l 1,79,-1
 477 957 l 1,80,-1
 477 1112 l 1,81,-1
 322 1112 l 1,78,-1
481 1112 m 1,82,-1
 481 957 l 1,83,-1
 635 957 l 1,84,-1
 635 1112 l 1,85,-1
 481 1112 l 1,82,-1
639 1112 m 1,86,-1
 639 957 l 1,87,-1
 794 957 l 1,88,-1
 794 1112 l 1,89,-1
 639 1112 l 1,86,-1
799 1112 m 1,90,-1
 799 957 l 1,91,-1
 953 957 l 1,92,-1
 953 1112 l 1,93,-1
 799 1112 l 1,90,-1
957 1112 m 1,94,-1
 957 957 l 1,95,-1
 1112 957 l 1,96,-1
 1112 1112 l 1,97,-1
 957 1112 l 1,94,-1
173 1101 m 1,98,-1
 307 1101 l 1,99,-1
 307 968 l 1,100,-1
 173 968 l 1,101,-1
 173 1101 l 1,98,-1
333 1101 m 1,102,-1
 466 1101 l 1,103,-1
 466 968 l 1,104,-1
 333 968 l 1,105,-1
 333 1101 l 1,102,-1
491 1101 m 1,106,-1
 625 1101 l 1,107,-1
 625 968 l 1,108,-1
 491 968 l 1,109,-1
 491 1101 l 1,106,-1
4 953 m 1,110,-1
 4 799 l 1,111,-1
 159 799 l 1,112,-1
 159 953 l 1,113,-1
 4 953 l 1,110,-1
163 953 m 1,114,-1
 163 799 l 1,115,-1
 317 799 l 1,116,-1
 317 953 l 1,117,-1
 163 953 l 1,114,-1
322 953 m 1,118,-1
 322 799 l 1,119,-1
 477 799 l 1,120,-1
 477 953 l 1,121,-1
 322 953 l 1,118,-1
481 953 m 1,122,-1
 481 799 l 1,123,-1
 635 799 l 1,124,-1
 635 953 l 1,125,-1
 481 953 l 1,122,-1
639 953 m 1,126,-1
 639 799 l 1,127,-1
 794 799 l 1,128,-1
 794 953 l 1,129,-1
 639 953 l 1,126,-1
799 953 m 1,130,-1
 799 799 l 1,131,-1
 953 799 l 1,132,-1
 953 953 l 1,133,-1
 799 953 l 1,130,-1
957 953 m 1,134,-1
 957 799 l 1,135,-1
 1112 799 l 1,136,-1
 1112 953 l 1,137,-1
 957 953 l 1,134,-1
333 943 m 1,138,-1
 466 943 l 1,139,-1
 466 809 l 1,140,-1
 333 809 l 1,141,-1
 333 943 l 1,138,-1
491 943 m 1,142,-1
 625 943 l 1,143,-1
 625 809 l 1,144,-1
 491 809 l 1,145,-1
 491 943 l 1,142,-1
4 795 m 1,146,-1
 4 639 l 1,147,-1
 159 639 l 1,148,-1
 159 795 l 1,149,-1
 4 795 l 1,146,-1
163 795 m 1,150,-1
 163 639 l 1,151,-1
 317 639 l 1,152,-1
 317 795 l 1,153,-1
 163 795 l 1,150,-1
322 795 m 1,154,-1
 322 639 l 1,155,-1
 477 639 l 1,156,-1
 477 795 l 1,157,-1
 322 795 l 1,154,-1
481 795 m 1,158,-1
 481 639 l 1,159,-1
 635 639 l 1,160,-1
 635 795 l 1,161,-1
 481 795 l 1,158,-1
639 795 m 1,162,-1
 639 639 l 1,163,-1
 794 639 l 1,164,-1
 794 795 l 1,165,-1
 639 795 l 1,162,-1
799 795 m 1,166,-1
 799 639 l 1,167,-1
 953 639 l 1,168,-1
 953 795 l 1,169,-1
 799 795 l 1,166,-1
957 795 m 1,170,-1
 957 639 l 1,171,-1
 1112 639 l 1,172,-1
 1112 795 l 1,173,-1
 957 795 l 1,170,-1
333 783 m 1,174,-1
 466 783 l 1,175,-1
 466 651 l 1,176,-1
 333 651 l 1,177,-1
 333 783 l 1,174,-1
491 783 m 1,178,-1
 625 783 l 1,179,-1
 625 651 l 1,180,-1
 491 651 l 1,181,-1
 491 783 l 1,178,-1
4 635 m 1,182,-1
 4 481 l 1,183,-1
 159 481 l 1,184,-1
 159 635 l 1,185,-1
 4 635 l 1,182,-1
163 635 m 1,186,-1
 163 481 l 1,187,-1
 317 481 l 1,188,-1
 317 635 l 1,189,-1
 163 635 l 1,186,-1
322 635 m 1,190,-1
 322 481 l 1,191,-1
 477 481 l 1,192,-1
 477 635 l 1,193,-1
 322 635 l 1,190,-1
481 635 m 1,194,-1
 481 481 l 1,195,-1
 635 481 l 1,196,-1
 635 635 l 1,197,-1
 481 635 l 1,194,-1
639 635 m 1,198,-1
 639 481 l 1,199,-1
 794 481 l 1,200,-1
 794 635 l 1,201,-1
 639 635 l 1,198,-1
799 635 m 1,202,-1
 799 481 l 1,203,-1
 953 481 l 1,204,-1
 953 635 l 1,205,-1
 799 635 l 1,202,-1
957 635 m 1,206,-1
 957 481 l 1,207,-1
 1112 481 l 1,208,-1
 1112 635 l 1,209,-1
 957 635 l 1,206,-1
333 625 m 1,210,-1
 466 625 l 1,211,-1
 466 491 l 1,212,-1
 333 491 l 1,213,-1
 333 625 l 1,210,-1
491 625 m 1,214,-1
 625 625 l 1,215,-1
 625 491 l 1,216,-1
 491 491 l 1,217,-1
 491 625 l 1,214,-1
4 477 m 1,218,-1
 4 322 l 1,219,-1
 159 322 l 1,220,-1
 159 477 l 1,221,-1
 4 477 l 1,218,-1
163 477 m 1,222,-1
 163 322 l 1,223,-1
 317 322 l 1,224,-1
 317 477 l 1,225,-1
 163 477 l 1,222,-1
322 477 m 1,226,-1
 322 322 l 1,227,-1
 477 322 l 1,228,-1
 477 477 l 1,229,-1
 322 477 l 1,226,-1
481 477 m 1,230,-1
 481 322 l 1,231,-1
 635 322 l 1,232,-1
 635 477 l 1,233,-1
 481 477 l 1,230,-1
639 477 m 1,234,-1
 639 322 l 1,235,-1
 794 322 l 1,236,-1
 794 477 l 1,237,-1
 639 477 l 1,234,-1
799 477 m 1,238,-1
 799 322 l 1,239,-1
 953 322 l 1,240,-1
 953 477 l 1,241,-1
 799 477 l 1,238,-1
957 477 m 1,242,-1
 957 322 l 1,243,-1
 1112 322 l 1,244,-1
 1112 477 l 1,245,-1
 957 477 l 1,242,-1
333 466 m 1,246,-1
 466 466 l 1,247,-1
 466 333 l 1,248,-1
 333 333 l 1,249,-1
 333 466 l 1,246,-1
491 466 m 1,250,-1
 625 466 l 1,251,-1
 625 333 l 1,252,-1
 491 333 l 1,253,-1
 491 466 l 1,250,-1
4 317 m 1,254,-1
 4 163 l 1,255,-1
 159 163 l 1,256,-1
 159 317 l 1,257,-1
 4 317 l 1,254,-1
163 317 m 1,258,-1
 163 163 l 1,259,-1
 317 163 l 1,260,-1
 317 317 l 1,261,-1
 163 317 l 1,258,-1
322 317 m 1,262,-1
 322 163 l 1,263,-1
 477 163 l 1,264,-1
 477 317 l 1,265,-1
 322 317 l 1,262,-1
481 317 m 1,266,-1
 481 163 l 1,267,-1
 635 163 l 1,268,-1
 635 317 l 1,269,-1
 481 317 l 1,266,-1
639 317 m 1,270,-1
 639 163 l 1,271,-1
 794 163 l 1,272,-1
 794 317 l 1,273,-1
 639 317 l 1,270,-1
799 317 m 1,274,-1
 799 163 l 1,275,-1
 953 163 l 1,276,-1
 953 317 l 1,277,-1
 799 317 l 1,274,-1
957 317 m 1,278,-1
 957 163 l 1,279,-1
 1112 163 l 1,280,-1
 1112 317 l 1,281,-1
 957 317 l 1,278,-1
15 307 m 1,282,-1
 148 307 l 1,283,-1
 148 173 l 1,284,-1
 15 173 l 1,285,-1
 15 307 l 1,282,-1
173 307 m 1,286,-1
 307 307 l 1,287,-1
 307 173 l 1,288,-1
 175 173 l 2,289,290
 173 173 173 173 173 175 c 2,291,-1
 173 307 l 1,286,-1
333 307 m 1,292,-1
 466 307 l 1,293,-1
 466 175 l 2,294,295
 466 173 466 173 464 173 c 2,296,-1
 333 173 l 1,297,-1
 333 307 l 1,292,-1
491 307 m 1,298,-1
 625 307 l 1,299,-1
 625 173 l 1,300,-1
 491 173 l 1,301,-1
 491 307 l 1,298,-1
650 307 m 1,302,-1
 783 307 l 1,303,-1
 783 173 l 1,304,-1
 652 173 l 2,305,306
 650 173 650 173 650 175 c 2,307,-1
 650 307 l 1,302,-1
809 307 m 1,308,-1
 943 307 l 1,309,-1
 943 175 l 2,310,311
 943 173 943 173 941 173 c 2,312,-1
 809 173 l 1,313,-1
 809 307 l 1,308,-1
4 159 m 1,314,-1
 4 4 l 1,315,-1
 159 4 l 1,316,-1
 159 159 l 1,317,-1
 4 159 l 1,314,-1
163 159 m 1,318,-1
 163 4 l 1,319,-1
 317 4 l 1,320,-1
 317 159 l 1,321,-1
 163 159 l 1,318,-1
322 159 m 1,322,-1
 322 4 l 1,323,-1
 477 4 l 1,324,-1
 477 159 l 1,325,-1
 322 159 l 1,322,-1
481 159 m 1,326,-1
 481 4 l 1,327,-1
 635 4 l 1,328,-1
 635 159 l 1,329,-1
 481 159 l 1,326,-1
639 159 m 1,330,-1
 639 4 l 1,331,-1
 794 4 l 1,332,-1
 794 159 l 1,333,-1
 639 159 l 1,330,-1
799 159 m 1,334,-1
 799 4 l 1,335,-1
 953 4 l 1,336,-1
 953 159 l 1,337,-1
 799 159 l 1,334,-1
957 159 m 1,338,-1
 957 4 l 1,339,-1
 1112 4 l 1,340,-1
 1112 159 l 1,341,-1
 957 159 l 1,338,-1
EndSplineSet
EndChar

StartChar: two
Encoding: 50 50 21
Width: 1270
Flags: W
LayerCount: 2
Fore
SplineSet
0 1434 m 1,0,-1
 1275 1434 l 1,1,-1
 1275 0 l 1,2,-1
 0 0 l 1,3,-1
 0 1434 l 1,0,-1
4 1430 m 1,4,-1
 4 1275 l 1,5,-1
 159 1275 l 1,6,-1
 159 1430 l 1,7,-1
 4 1430 l 1,4,-1
163 1430 m 1,8,-1
 163 1275 l 1,9,-1
 317 1275 l 1,10,-1
 317 1430 l 1,11,-1
 163 1430 l 1,8,-1
322 1430 m 1,12,-1
 322 1275 l 1,13,-1
 477 1275 l 1,14,-1
 477 1430 l 1,15,-1
 322 1430 l 1,12,-1
481 1430 m 1,16,-1
 481 1275 l 1,17,-1
 635 1275 l 1,18,-1
 635 1430 l 1,19,-1
 481 1430 l 1,16,-1
639 1430 m 1,20,-1
 639 1275 l 1,21,-1
 794 1275 l 1,22,-1
 794 1430 l 1,23,-1
 639 1430 l 1,20,-1
798 1430 m 1,24,-1
 798 1275 l 1,25,-1
 952 1275 l 1,26,-1
 952 1430 l 1,27,-1
 798 1430 l 1,24,-1
957 1430 m 1,28,-1
 957 1275 l 1,29,-1
 1112 1275 l 1,30,-1
 1112 1430 l 1,31,-1
 957 1430 l 1,28,-1
1116 1430 m 1,32,-1
 1116 1275 l 1,33,-1
 1270 1275 l 1,34,-1
 1270 1430 l 1,35,-1
 1116 1430 l 1,32,-1
4 1271 m 1,36,-1
 4 1117 l 1,37,-1
 159 1117 l 1,38,-1
 159 1271 l 1,39,-1
 4 1271 l 1,36,-1
163 1271 m 1,40,-1
 163 1117 l 1,41,-1
 317 1117 l 1,42,-1
 317 1271 l 1,43,-1
 163 1271 l 1,40,-1
322 1271 m 1,44,-1
 322 1117 l 1,45,-1
 477 1117 l 1,46,-1
 477 1271 l 1,47,-1
 322 1271 l 1,44,-1
481 1271 m 1,48,-1
 481 1117 l 1,49,-1
 635 1117 l 1,50,-1
 635 1271 l 1,51,-1
 481 1271 l 1,48,-1
639 1271 m 1,52,-1
 639 1117 l 1,53,-1
 794 1117 l 1,54,-1
 794 1271 l 1,55,-1
 639 1271 l 1,52,-1
798 1271 m 1,56,-1
 798 1117 l 1,57,-1
 952 1117 l 1,58,-1
 952 1271 l 1,59,-1
 798 1271 l 1,56,-1
957 1271 m 1,60,-1
 957 1117 l 1,61,-1
 1112 1117 l 1,62,-1
 1112 1271 l 1,63,-1
 957 1271 l 1,60,-1
1116 1271 m 1,64,-1
 1116 1117 l 1,65,-1
 1270 1117 l 1,66,-1
 1270 1271 l 1,67,-1
 1116 1271 l 1,64,-1
175 1261 m 2,68,-1
 307 1261 l 1,69,-1
 307 1127 l 1,70,-1
 173 1127 l 1,71,-1
 173 1259 l 2,72,73
 174 1261 174 1261 175 1261 c 2,68,-1
333 1261 m 1,74,-1
 465 1261 l 1,75,-1
 465 1127 l 1,76,-1
 333 1127 l 1,77,-1
 333 1261 l 1,74,-1
491 1261 m 1,78,-1
 625 1261 l 1,79,-1
 625 1127 l 1,80,-1
 491 1127 l 1,81,-1
 491 1261 l 1,78,-1
650 1261 m 1,82,-1
 783 1261 l 1,83,-1
 783 1127 l 1,84,-1
 650 1127 l 1,85,-1
 650 1261 l 1,82,-1
809 1261 m 1,86,-1
 942 1261 l 1,87,-1
 942 1127 l 1,88,-1
 809 1127 l 1,89,-1
 809 1261 l 1,86,-1
4 1112 m 1,90,-1
 4 957 l 1,91,-1
 159 957 l 1,92,-1
 159 1112 l 1,93,-1
 4 1112 l 1,90,-1
163 1112 m 1,94,-1
 163 957 l 1,95,-1
 317 957 l 1,96,-1
 317 1112 l 1,97,-1
 163 1112 l 1,94,-1
322 1112 m 1,98,-1
 322 957 l 1,99,-1
 477 957 l 1,100,-1
 477 1112 l 1,101,-1
 322 1112 l 1,98,-1
481 1112 m 1,102,-1
 481 957 l 1,103,-1
 635 957 l 1,104,-1
 635 1112 l 1,105,-1
 481 1112 l 1,102,-1
639 1112 m 1,106,-1
 639 957 l 1,107,-1
 794 957 l 1,108,-1
 794 1112 l 1,109,-1
 639 1112 l 1,106,-1
798 1112 m 1,110,-1
 798 957 l 1,111,-1
 952 957 l 1,112,-1
 952 1112 l 1,113,-1
 798 1112 l 1,110,-1
957 1112 m 1,114,-1
 957 957 l 1,115,-1
 1112 957 l 1,116,-1
 1112 1112 l 1,117,-1
 957 1112 l 1,114,-1
1116 1112 m 1,118,-1
 1116 957 l 1,119,-1
 1270 957 l 1,120,-1
 1270 1112 l 1,121,-1
 1116 1112 l 1,118,-1
15 1101 m 1,122,-1
 148 1101 l 1,123,-1
 148 968 l 1,124,-1
 15 968 l 1,125,-1
 15 1101 l 1,122,-1
173 1101 m 1,126,-1
 307 1101 l 1,127,-1
 307 968 l 1,128,-1
 173 968 l 1,129,-1
 173 1101 l 1,126,-1
809 1101 m 1,130,-1
 942 1101 l 1,131,-1
 942 968 l 1,132,-1
 809 968 l 1,133,-1
 809 1101 l 1,130,-1
968 1101 m 1,134,-1
 1101 1101 l 1,135,-1
 1101 968 l 1,136,-1
 968 968 l 1,137,-1
 968 1101 l 1,134,-1
4 953 m 1,138,-1
 4 799 l 1,139,-1
 159 799 l 1,140,-1
 159 953 l 1,141,-1
 4 953 l 1,138,-1
163 953 m 1,142,-1
 163 799 l 1,143,-1
 317 799 l 1,144,-1
 317 953 l 1,145,-1
 163 953 l 1,142,-1
322 953 m 1,146,-1
 322 799 l 1,147,-1
 477 799 l 1,148,-1
 477 953 l 1,149,-1
 322 953 l 1,146,-1
481 953 m 1,150,-1
 481 799 l 1,151,-1
 635 799 l 1,152,-1
 635 953 l 1,153,-1
 481 953 l 1,150,-1
639 953 m 1,154,-1
 639 799 l 1,155,-1
 794 799 l 1,156,-1
 794 953 l 1,157,-1
 639 953 l 1,154,-1
798 953 m 1,158,-1
 798 799 l 1,159,-1
 952 799 l 1,160,-1
 952 953 l 1,161,-1
 798 953 l 1,158,-1
957 953 m 1,162,-1
 957 799 l 1,163,-1
 1112 799 l 1,164,-1
 1112 953 l 1,165,-1
 957 953 l 1,162,-1
1116 953 m 1,166,-1
 1116 799 l 1,167,-1
 1270 799 l 1,168,-1
 1270 953 l 1,169,-1
 1116 953 l 1,166,-1
650 943 m 1,170,-1
 783 943 l 1,171,-1
 783 809 l 1,172,-1
 650 809 l 1,173,-1
 650 943 l 1,170,-1
809 943 m 1,174,-1
 942 943 l 1,175,-1
 942 809 l 1,176,-1
 809 809 l 1,177,-1
 809 943 l 1,174,-1
968 943 m 1,178,-1
 1101 943 l 1,179,-1
 1101 809 l 1,180,-1
 968 809 l 1,181,-1
 968 943 l 1,178,-1
4 795 m 1,182,-1
 4 639 l 1,183,-1
 159 639 l 1,184,-1
 159 795 l 1,185,-1
 4 795 l 1,182,-1
163 795 m 1,186,-1
 163 639 l 1,187,-1
 317 639 l 1,188,-1
 317 795 l 1,189,-1
 163 795 l 1,186,-1
322 795 m 1,190,-1
 322 639 l 1,191,-1
 477 639 l 1,192,-1
 477 795 l 1,193,-1
 322 795 l 1,190,-1
481 795 m 1,194,-1
 481 639 l 1,195,-1
 635 639 l 1,196,-1
 635 795 l 1,197,-1
 481 795 l 1,194,-1
639 795 m 1,198,-1
 639 639 l 1,199,-1
 794 639 l 1,200,-1
 794 795 l 1,201,-1
 639 795 l 1,198,-1
798 795 m 1,202,-1
 798 639 l 1,203,-1
 952 639 l 1,204,-1
 952 795 l 1,205,-1
 798 795 l 1,202,-1
957 795 m 1,206,-1
 957 639 l 1,207,-1
 1112 639 l 1,208,-1
 1112 795 l 1,209,-1
 957 795 l 1,206,-1
1116 795 m 1,210,-1
 1116 639 l 1,211,-1
 1270 639 l 1,212,-1
 1270 795 l 1,213,-1
 1116 795 l 1,210,-1
333 783 m 1,214,-1
 465 783 l 1,215,-1
 465 651 l 1,216,-1
 333 651 l 1,217,-1
 333 783 l 1,214,-1
491 783 m 1,218,-1
 625 783 l 1,219,-1
 625 651 l 1,220,-1
 491 651 l 1,221,-1
 491 783 l 1,218,-1
650 783 m 1,222,-1
 783 783 l 1,223,-1
 783 651 l 1,224,-1
 650 651 l 1,225,-1
 650 783 l 1,222,-1
809 783 m 1,226,-1
 942 783 l 1,227,-1
 942 651 l 1,228,-1
 809 651 l 1,229,-1
 809 783 l 1,226,-1
4 635 m 1,230,-1
 4 481 l 1,231,-1
 159 481 l 1,232,-1
 159 635 l 1,233,-1
 4 635 l 1,230,-1
163 635 m 1,234,-1
 163 481 l 1,235,-1
 317 481 l 1,236,-1
 317 635 l 1,237,-1
 163 635 l 1,234,-1
322 635 m 1,238,-1
 322 481 l 1,239,-1
 477 481 l 1,240,-1
 477 635 l 1,241,-1
 322 635 l 1,238,-1
481 635 m 1,242,-1
 481 481 l 1,243,-1
 635 481 l 1,244,-1
 635 635 l 1,245,-1
 481 635 l 1,242,-1
639 635 m 1,246,-1
 639 481 l 1,247,-1
 794 481 l 1,248,-1
 794 635 l 1,249,-1
 639 635 l 1,246,-1
798 635 m 1,250,-1
 798 481 l 1,251,-1
 952 481 l 1,252,-1
 952 635 l 1,253,-1
 798 635 l 1,250,-1
957 635 m 1,254,-1
 957 481 l 1,255,-1
 1112 481 l 1,256,-1
 1112 635 l 1,257,-1
 957 635 l 1,254,-1
1116 635 m 1,258,-1
 1116 481 l 1,259,-1
 1270 481 l 1,260,-1
 1270 635 l 1,261,-1
 1116 635 l 1,258,-1
173 625 m 1,262,-1
 307 625 l 1,263,-1
 307 491 l 1,264,-1
 173 491 l 1,265,-1
 173 625 l 1,262,-1
333 625 m 1,266,-1
 465 625 l 1,267,-1
 465 491 l 1,268,-1
 333 491 l 1,269,-1
 333 625 l 1,266,-1
491 625 m 1,270,-1
 625 625 l 1,271,-1
 625 491 l 1,272,-1
 491 491 l 1,273,-1
 491 625 l 1,270,-1
650 625 m 1,274,-1
 783 625 l 1,275,-1
 783 491 l 1,276,-1
 650 491 l 1,277,-1
 650 625 l 1,274,-1
4 477 m 1,278,-1
 4 322 l 1,279,-1
 159 322 l 1,280,-1
 159 477 l 1,281,-1
 4 477 l 1,278,-1
163 477 m 1,282,-1
 163 322 l 1,283,-1
 317 322 l 1,284,-1
 317 477 l 1,285,-1
 163 477 l 1,282,-1
322 477 m 1,286,-1
 322 322 l 1,287,-1
 477 322 l 1,288,-1
 477 477 l 1,289,-1
 322 477 l 1,286,-1
481 477 m 1,290,-1
 481 322 l 1,291,-1
 635 322 l 1,292,-1
 635 477 l 1,293,-1
 481 477 l 1,290,-1
639 477 m 1,294,-1
 639 322 l 1,295,-1
 794 322 l 1,296,-1
 794 477 l 1,297,-1
 639 477 l 1,294,-1
798 477 m 1,298,-1
 798 322 l 1,299,-1
 952 322 l 1,300,-1
 952 477 l 1,301,-1
 798 477 l 1,298,-1
957 477 m 1,302,-1
 957 322 l 1,303,-1
 1112 322 l 1,304,-1
 1112 477 l 1,305,-1
 957 477 l 1,302,-1
1116 477 m 1,306,-1
 1116 322 l 1,307,-1
 1270 322 l 1,308,-1
 1270 477 l 1,309,-1
 1116 477 l 1,306,-1
15 466 m 1,310,-1
 148 466 l 1,311,-1
 148 333 l 1,312,-1
 15 333 l 1,313,-1
 15 466 l 1,310,-1
173 466 m 1,314,-1
 307 466 l 1,315,-1
 307 333 l 1,316,-1
 173 333 l 1,317,-1
 173 466 l 1,314,-1
4 317 m 1,318,-1
 4 163 l 1,319,-1
 159 163 l 1,320,-1
 159 317 l 1,321,-1
 4 317 l 1,318,-1
163 317 m 1,322,-1
 163 163 l 1,323,-1
 317 163 l 1,324,-1
 317 317 l 1,325,-1
 163 317 l 1,322,-1
322 317 m 1,326,-1
 322 163 l 1,327,-1
 477 163 l 1,328,-1
 477 317 l 1,329,-1
 322 317 l 1,326,-1
481 317 m 1,330,-1
 481 163 l 1,331,-1
 635 163 l 1,332,-1
 635 317 l 1,333,-1
 481 317 l 1,330,-1
639 317 m 1,334,-1
 639 163 l 1,335,-1
 794 163 l 1,336,-1
 794 317 l 1,337,-1
 639 317 l 1,334,-1
798 317 m 1,338,-1
 798 163 l 1,339,-1
 952 163 l 1,340,-1
 952 317 l 1,341,-1
 798 317 l 1,338,-1
957 317 m 1,342,-1
 957 163 l 1,343,-1
 1112 163 l 1,344,-1
 1112 317 l 1,345,-1
 957 317 l 1,342,-1
1116 317 m 1,346,-1
 1116 163 l 1,347,-1
 1270 163 l 1,348,-1
 1270 317 l 1,349,-1
 1116 317 l 1,346,-1
15 307 m 1,350,-1
 148 307 l 1,351,-1
 148 173 l 1,352,-1
 15 173 l 1,353,-1
 15 307 l 1,350,-1
173 307 m 1,354,-1
 307 307 l 1,355,-1
 307 173 l 1,356,-1
 175 173 l 2,357,358
 173 173 173 173 173 175 c 2,359,-1
 173 307 l 1,354,-1
333 307 m 1,360,-1
 465 307 l 1,361,-1
 465 173 l 1,362,-1
 333 173 l 1,363,-1
 333 307 l 1,360,-1
491 307 m 1,364,-1
 625 307 l 1,365,-1
 625 173 l 1,366,-1
 491 173 l 1,367,-1
 491 307 l 1,364,-1
650 307 m 1,368,-1
 783 307 l 1,369,-1
 783 173 l 1,370,-1
 650 173 l 1,371,-1
 650 307 l 1,368,-1
809 307 m 1,372,-1
 942 307 l 1,373,-1
 942 173 l 1,374,-1
 809 173 l 1,375,-1
 809 307 l 1,372,-1
968 307 m 1,376,-1
 1101 307 l 1,377,-1
 1101 175 l 2,378,379
 1101 173 1101 173 1100 173 c 2,380,-1
 968 173 l 1,381,-1
 968 307 l 1,376,-1
4 159 m 1,382,-1
 4 4 l 1,383,-1
 159 4 l 1,384,-1
 159 159 l 1,385,-1
 4 159 l 1,382,-1
163 159 m 1,386,-1
 163 4 l 1,387,-1
 317 4 l 1,388,-1
 317 159 l 1,389,-1
 163 159 l 1,386,-1
322 159 m 1,390,-1
 322 4 l 1,391,-1
 477 4 l 1,392,-1
 477 159 l 1,393,-1
 322 159 l 1,390,-1
481 159 m 1,394,-1
 481 4 l 1,395,-1
 635 4 l 1,396,-1
 635 159 l 1,397,-1
 481 159 l 1,394,-1
639 159 m 1,398,-1
 639 4 l 1,399,-1
 794 4 l 1,400,-1
 794 159 l 1,401,-1
 639 159 l 1,398,-1
798 159 m 1,402,-1
 798 4 l 1,403,-1
 952 4 l 1,404,-1
 952 159 l 1,405,-1
 798 159 l 1,402,-1
957 159 m 1,406,-1
 957 4 l 1,407,-1
 1112 4 l 1,408,-1
 1112 159 l 1,409,-1
 957 159 l 1,406,-1
1116 159 m 1,410,-1
 1116 4 l 1,411,-1
 1270 4 l 1,412,-1
 1270 159 l 1,413,-1
 1116 159 l 1,410,-1
EndSplineSet
EndChar

StartChar: three
Encoding: 51 51 22
Width: 1270
Flags: W
LayerCount: 2
Fore
SplineSet
0 1434 m 1,0,-1
 1274 1434 l 1,1,-1
 1274 0 l 1,2,-1
 0 0 l 1,3,-1
 0 1434 l 1,0,-1
4 1430 m 1,4,-1
 4 1275 l 1,5,-1
 159 1275 l 1,6,-1
 159 1430 l 1,7,-1
 4 1430 l 1,4,-1
163 1430 m 1,8,-1
 163 1275 l 1,9,-1
 317 1275 l 1,10,-1
 317 1430 l 1,11,-1
 163 1430 l 1,8,-1
322 1430 m 1,12,-1
 322 1275 l 1,13,-1
 477 1275 l 1,14,-1
 477 1430 l 1,15,-1
 322 1430 l 1,12,-1
481 1430 m 1,16,-1
 481 1275 l 1,17,-1
 635 1275 l 1,18,-1
 635 1430 l 1,19,-1
 481 1430 l 1,16,-1
639 1430 m 1,20,-1
 639 1275 l 1,21,-1
 794 1275 l 1,22,-1
 794 1430 l 1,23,-1
 639 1430 l 1,20,-1
798 1430 m 1,24,-1
 798 1275 l 1,25,-1
 952 1275 l 1,26,-1
 952 1430 l 1,27,-1
 798 1430 l 1,24,-1
957 1430 m 1,28,-1
 957 1275 l 1,29,-1
 1112 1275 l 1,30,-1
 1112 1430 l 1,31,-1
 957 1430 l 1,28,-1
1116 1430 m 1,32,-1
 1116 1275 l 1,33,-1
 1270 1275 l 1,34,-1
 1270 1430 l 1,35,-1
 1116 1430 l 1,32,-1
4 1271 m 1,36,-1
 4 1117 l 1,37,-1
 159 1117 l 1,38,-1
 159 1271 l 1,39,-1
 4 1271 l 1,36,-1
163 1271 m 1,40,-1
 163 1117 l 1,41,-1
 317 1117 l 1,42,-1
 317 1271 l 1,43,-1
 163 1271 l 1,40,-1
322 1271 m 1,44,-1
 322 1117 l 1,45,-1
 477 1117 l 1,46,-1
 477 1271 l 1,47,-1
 322 1271 l 1,44,-1
481 1271 m 1,48,-1
 481 1117 l 1,49,-1
 635 1117 l 1,50,-1
 635 1271 l 1,51,-1
 481 1271 l 1,48,-1
639 1271 m 1,52,-1
 639 1117 l 1,53,-1
 794 1117 l 1,54,-1
 794 1271 l 1,55,-1
 639 1271 l 1,52,-1
798 1271 m 1,56,-1
 798 1117 l 1,57,-1
 952 1117 l 1,58,-1
 952 1271 l 1,59,-1
 798 1271 l 1,56,-1
957 1271 m 1,60,-1
 957 1117 l 1,61,-1
 1112 1117 l 1,62,-1
 1112 1271 l 1,63,-1
 957 1271 l 1,60,-1
1116 1271 m 1,64,-1
 1116 1117 l 1,65,-1
 1270 1117 l 1,66,-1
 1270 1271 l 1,67,-1
 1116 1271 l 1,64,-1
175 1261 m 2,68,-1
 307 1261 l 1,69,-1
 307 1127 l 1,70,-1
 173 1127 l 1,71,-1
 173 1259 l 2,72,73
 174 1261 174 1261 175 1261 c 2,68,-1
333 1261 m 1,74,-1
 465 1261 l 1,75,-1
 465 1127 l 1,76,-1
 333 1127 l 1,77,-1
 333 1261 l 1,74,-1
491 1261 m 1,78,-1
 625 1261 l 1,79,-1
 625 1127 l 1,80,-1
 491 1127 l 1,81,-1
 491 1261 l 1,78,-1
650 1261 m 1,82,-1
 783 1261 l 1,83,-1
 783 1127 l 1,84,-1
 650 1127 l 1,85,-1
 650 1261 l 1,82,-1
809 1261 m 1,86,-1
 942 1261 l 1,87,-1
 942 1127 l 1,88,-1
 809 1127 l 1,89,-1
 809 1261 l 1,86,-1
968 1261 m 1,90,-1
 1099 1261 l 2,91,92
 1101 1260 1101 1260 1101 1259 c 2,93,-1
 1101 1127 l 1,94,-1
 968 1127 l 1,95,-1
 968 1261 l 1,90,-1
4 1112 m 1,96,-1
 4 957 l 1,97,-1
 159 957 l 1,98,-1
 159 1112 l 1,99,-1
 4 1112 l 1,96,-1
163 1112 m 1,100,-1
 163 957 l 1,101,-1
 317 957 l 1,102,-1
 317 1112 l 1,103,-1
 163 1112 l 1,100,-1
322 1112 m 1,104,-1
 322 957 l 1,105,-1
 477 957 l 1,106,-1
 477 1112 l 1,107,-1
 322 1112 l 1,104,-1
481 1112 m 1,108,-1
 481 957 l 1,109,-1
 635 957 l 1,110,-1
 635 1112 l 1,111,-1
 481 1112 l 1,108,-1
639 1112 m 1,112,-1
 639 957 l 1,113,-1
 794 957 l 1,114,-1
 794 1112 l 1,115,-1
 639 1112 l 1,112,-1
798 1112 m 1,116,-1
 798 957 l 1,117,-1
 952 957 l 1,118,-1
 952 1112 l 1,119,-1
 798 1112 l 1,116,-1
957 1112 m 1,120,-1
 957 957 l 1,121,-1
 1112 957 l 1,122,-1
 1112 1112 l 1,123,-1
 957 1112 l 1,120,-1
1116 1112 m 1,124,-1
 1116 957 l 1,125,-1
 1270 957 l 1,126,-1
 1270 1112 l 1,127,-1
 1116 1112 l 1,124,-1
650 1101 m 1,128,-1
 783 1101 l 1,129,-1
 783 968 l 1,130,-1
 650 968 l 1,131,-1
 650 1101 l 1,128,-1
809 1101 m 1,132,-1
 942 1101 l 1,133,-1
 942 968 l 1,134,-1
 809 968 l 1,135,-1
 809 1101 l 1,132,-1
4 953 m 1,136,-1
 4 799 l 1,137,-1
 159 799 l 1,138,-1
 159 953 l 1,139,-1
 4 953 l 1,136,-1
163 953 m 1,140,-1
 163 799 l 1,141,-1
 317 799 l 1,142,-1
 317 953 l 1,143,-1
 163 953 l 1,140,-1
322 953 m 1,144,-1
 322 799 l 1,145,-1
 477 799 l 1,146,-1
 477 953 l 1,147,-1
 322 953 l 1,144,-1
481 953 m 1,148,-1
 481 799 l 1,149,-1
 635 799 l 1,150,-1
 635 953 l 1,151,-1
 481 953 l 1,148,-1
639 953 m 1,152,-1
 639 799 l 1,153,-1
 794 799 l 1,154,-1
 794 953 l 1,155,-1
 639 953 l 1,152,-1
798 953 m 1,156,-1
 798 799 l 1,157,-1
 952 799 l 1,158,-1
 952 953 l 1,159,-1
 798 953 l 1,156,-1
957 953 m 1,160,-1
 957 799 l 1,161,-1
 1112 799 l 1,162,-1
 1112 953 l 1,163,-1
 957 953 l 1,160,-1
1116 953 m 1,164,-1
 1116 799 l 1,165,-1
 1270 799 l 1,166,-1
 1270 953 l 1,167,-1
 1116 953 l 1,164,-1
491 943 m 1,168,-1
 625 943 l 1,169,-1
 625 809 l 1,170,-1
 491 809 l 1,171,-1
 491 943 l 1,168,-1
650 943 m 1,172,-1
 783 943 l 1,173,-1
 783 809 l 1,174,-1
 650 809 l 1,175,-1
 650 943 l 1,172,-1
4 794 m 1,176,-1
 4 639 l 1,177,-1
 159 639 l 1,178,-1
 159 794 l 1,179,-1
 4 794 l 1,176,-1
163 794 m 1,180,-1
 163 639 l 1,181,-1
 317 639 l 1,182,-1
 317 794 l 1,183,-1
 163 794 l 1,180,-1
322 794 m 1,184,-1
 322 639 l 1,185,-1
 477 639 l 1,186,-1
 477 794 l 1,187,-1
 322 794 l 1,184,-1
481 794 m 1,188,-1
 481 639 l 1,189,-1
 635 639 l 1,190,-1
 635 794 l 1,191,-1
 481 794 l 1,188,-1
639 794 m 1,192,-1
 639 639 l 1,193,-1
 794 639 l 1,194,-1
 794 794 l 1,195,-1
 639 794 l 1,192,-1
798 794 m 1,196,-1
 798 639 l 1,197,-1
 952 639 l 1,198,-1
 952 794 l 1,199,-1
 798 794 l 1,196,-1
957 794 m 1,200,-1
 957 639 l 1,201,-1
 1112 639 l 1,202,-1
 1112 794 l 1,203,-1
 957 794 l 1,200,-1
1116 794 m 1,204,-1
 1116 639 l 1,205,-1
 1270 639 l 1,206,-1
 1270 794 l 1,207,-1
 1116 794 l 1,204,-1
333 783 m 1,208,-1
 465 783 l 1,209,-1
 465 651 l 1,210,-1
 333 651 l 1,211,-1
 333 783 l 1,208,-1
491 783 m 1,212,-1
 625 783 l 1,213,-1
 625 651 l 1,214,-1
 491 651 l 1,215,-1
 491 783 l 1,212,-1
650 783 m 1,216,-1
 783 783 l 1,217,-1
 783 651 l 1,218,-1
 650 651 l 1,219,-1
 650 783 l 1,216,-1
809 783 m 1,220,-1
 942 783 l 1,221,-1
 942 651 l 1,222,-1
 809 651 l 1,223,-1
 809 783 l 1,220,-1
4 635 m 1,224,-1
 4 481 l 1,225,-1
 159 481 l 1,226,-1
 159 635 l 1,227,-1
 4 635 l 1,224,-1
163 635 m 1,228,-1
 163 481 l 1,229,-1
 317 481 l 1,230,-1
 317 635 l 1,231,-1
 163 635 l 1,228,-1
322 635 m 1,232,-1
 322 481 l 1,233,-1
 477 481 l 1,234,-1
 477 635 l 1,235,-1
 322 635 l 1,232,-1
481 635 m 1,236,-1
 481 481 l 1,237,-1
 635 481 l 1,238,-1
 635 635 l 1,239,-1
 481 635 l 1,236,-1
639 635 m 1,240,-1
 639 481 l 1,241,-1
 794 481 l 1,242,-1
 794 635 l 1,243,-1
 639 635 l 1,240,-1
798 635 m 1,244,-1
 798 481 l 1,245,-1
 952 481 l 1,246,-1
 952 635 l 1,247,-1
 798 635 l 1,244,-1
957 635 m 1,248,-1
 957 481 l 1,249,-1
 1112 481 l 1,250,-1
 1112 635 l 1,251,-1
 957 635 l 1,248,-1
1116 635 m 1,252,-1
 1116 481 l 1,253,-1
 1270 481 l 1,254,-1
 1270 635 l 1,255,-1
 1116 635 l 1,252,-1
809 625 m 1,256,-1
 942 625 l 1,257,-1
 942 491 l 1,258,-1
 809 491 l 1,259,-1
 809 625 l 1,256,-1
968 625 m 1,260,-1
 1101 625 l 1,261,-1
 1101 491 l 1,262,-1
 968 491 l 1,263,-1
 968 625 l 1,260,-1
4 477 m 1,264,-1
 4 322 l 1,265,-1
 159 322 l 1,266,-1
 159 477 l 1,267,-1
 4 477 l 1,264,-1
163 477 m 1,268,-1
 163 322 l 1,269,-1
 317 322 l 1,270,-1
 317 477 l 1,271,-1
 163 477 l 1,268,-1
322 477 m 1,272,-1
 322 322 l 1,273,-1
 477 322 l 1,274,-1
 477 477 l 1,275,-1
 322 477 l 1,272,-1
481 477 m 1,276,-1
 481 322 l 1,277,-1
 635 322 l 1,278,-1
 635 477 l 1,279,-1
 481 477 l 1,276,-1
639 477 m 1,280,-1
 639 322 l 1,281,-1
 794 322 l 1,282,-1
 794 477 l 1,283,-1
 639 477 l 1,280,-1
798 477 m 1,284,-1
 798 322 l 1,285,-1
 952 322 l 1,286,-1
 952 477 l 1,287,-1
 798 477 l 1,284,-1
957 477 m 1,288,-1
 957 322 l 1,289,-1
 1112 322 l 1,290,-1
 1112 477 l 1,291,-1
 957 477 l 1,288,-1
1116 477 m 1,292,-1
 1116 322 l 1,293,-1
 1270 322 l 1,294,-1
 1270 477 l 1,295,-1
 1116 477 l 1,292,-1
15 466 m 1,296,-1
 148 466 l 1,297,-1
 148 333 l 1,298,-1
 15 333 l 1,299,-1
 15 466 l 1,296,-1
173 466 m 1,300,-1
 307 466 l 1,301,-1
 307 333 l 1,302,-1
 173 333 l 1,303,-1
 173 466 l 1,300,-1
809 466 m 1,304,-1
 942 466 l 1,305,-1
 942 333 l 1,306,-1
 809 333 l 1,307,-1
 809 466 l 1,304,-1
968 466 m 1,308,-1
 1101 466 l 1,309,-1
 1101 333 l 1,310,-1
 968 333 l 1,311,-1
 968 466 l 1,308,-1
4 317 m 1,312,-1
 4 163 l 1,313,-1
 159 163 l 1,314,-1
 159 317 l 1,315,-1
 4 317 l 1,312,-1
163 317 m 1,316,-1
 163 163 l 1,317,-1
 317 163 l 1,318,-1
 317 317 l 1,319,-1
 163 317 l 1,316,-1
322 317 m 1,320,-1
 322 163 l 1,321,-1
 477 163 l 1,322,-1
 477 317 l 1,323,-1
 322 317 l 1,320,-1
481 317 m 1,324,-1
 481 163 l 1,325,-1
 635 163 l 1,326,-1
 635 317 l 1,327,-1
 481 317 l 1,324,-1
639 317 m 1,328,-1
 639 163 l 1,329,-1
 794 163 l 1,330,-1
 794 317 l 1,331,-1
 639 317 l 1,328,-1
798 317 m 1,332,-1
 798 163 l 1,333,-1
 952 163 l 1,334,-1
 952 317 l 1,335,-1
 798 317 l 1,332,-1
957 317 m 1,336,-1
 957 163 l 1,337,-1
 1112 163 l 1,338,-1
 1112 317 l 1,339,-1
 957 317 l 1,336,-1
1116 317 m 1,340,-1
 1116 163 l 1,341,-1
 1270 163 l 1,342,-1
 1270 317 l 1,343,-1
 1116 317 l 1,340,-1
173 307 m 1,344,-1
 307 307 l 1,345,-1
 307 173 l 1,346,-1
 175 173 l 2,347,348
 173 173 173 173 173 175 c 2,349,-1
 173 307 l 1,344,-1
333 307 m 1,350,-1
 465 307 l 1,351,-1
 465 173 l 1,352,-1
 333 173 l 1,353,-1
 333 307 l 1,350,-1
491 307 m 1,354,-1
 625 307 l 1,355,-1
 625 173 l 1,356,-1
 491 173 l 1,357,-1
 491 307 l 1,354,-1
650 307 m 1,358,-1
 783 307 l 1,359,-1
 783 173 l 1,360,-1
 650 173 l 1,361,-1
 650 307 l 1,358,-1
809 307 m 1,362,-1
 942 307 l 1,363,-1
 942 173 l 1,364,-1
 809 173 l 1,365,-1
 809 307 l 1,362,-1
4 159 m 1,366,-1
 4 4 l 1,367,-1
 159 4 l 1,368,-1
 159 159 l 1,369,-1
 4 159 l 1,366,-1
163 159 m 1,370,-1
 163 4 l 1,371,-1
 317 4 l 1,372,-1
 317 159 l 1,373,-1
 163 159 l 1,370,-1
322 159 m 1,374,-1
 322 4 l 1,375,-1
 477 4 l 1,376,-1
 477 159 l 1,377,-1
 322 159 l 1,374,-1
481 159 m 1,378,-1
 481 4 l 1,379,-1
 635 4 l 1,380,-1
 635 159 l 1,381,-1
 481 159 l 1,378,-1
639 159 m 1,382,-1
 639 4 l 1,383,-1
 794 4 l 1,384,-1
 794 159 l 1,385,-1
 639 159 l 1,382,-1
798 159 m 1,386,-1
 798 4 l 1,387,-1
 952 4 l 1,388,-1
 952 159 l 1,389,-1
 798 159 l 1,386,-1
957 159 m 1,390,-1
 957 4 l 1,391,-1
 1112 4 l 1,392,-1
 1112 159 l 1,393,-1
 957 159 l 1,390,-1
1116 159 m 1,394,-1
 1116 4 l 1,395,-1
 1270 4 l 1,396,-1
 1270 159 l 1,397,-1
 1116 159 l 1,394,-1
EndSplineSet
EndChar

StartChar: four
Encoding: 52 52 23
Width: 1270
Flags: W
LayerCount: 2
Fore
SplineSet
0 1434 m 1,0,-1
 1274 1434 l 1,1,-1
 1274 0 l 1,2,-1
 0 0 l 1,3,-1
 0 1434 l 1,0,-1
4 1430 m 1,4,-1
 4 1275 l 1,5,-1
 159 1275 l 1,6,-1
 159 1430 l 1,7,-1
 4 1430 l 1,4,-1
163 1430 m 1,8,-1
 163 1275 l 1,9,-1
 317 1275 l 1,10,-1
 317 1430 l 1,11,-1
 163 1430 l 1,8,-1
322 1430 m 1,12,-1
 322 1275 l 1,13,-1
 476 1275 l 1,14,-1
 476 1430 l 1,15,-1
 322 1430 l 1,12,-1
481 1430 m 1,16,-1
 481 1275 l 1,17,-1
 635 1275 l 1,18,-1
 635 1430 l 1,19,-1
 481 1430 l 1,16,-1
639 1430 m 1,20,-1
 639 1275 l 1,21,-1
 794 1275 l 1,22,-1
 794 1430 l 1,23,-1
 639 1430 l 1,20,-1
798 1430 m 1,24,-1
 798 1275 l 1,25,-1
 952 1275 l 1,26,-1
 952 1430 l 1,27,-1
 798 1430 l 1,24,-1
957 1430 m 1,28,-1
 957 1275 l 1,29,-1
 1111 1275 l 1,30,-1
 1111 1430 l 1,31,-1
 957 1430 l 1,28,-1
1116 1430 m 1,32,-1
 1116 1275 l 1,33,-1
 1270 1275 l 1,34,-1
 1270 1430 l 1,35,-1
 1116 1430 l 1,32,-1
4 1271 m 1,36,-1
 4 1117 l 1,37,-1
 159 1117 l 1,38,-1
 159 1271 l 1,39,-1
 4 1271 l 1,36,-1
163 1271 m 1,40,-1
 163 1117 l 1,41,-1
 317 1117 l 1,42,-1
 317 1271 l 1,43,-1
 163 1271 l 1,40,-1
322 1271 m 1,44,-1
 322 1117 l 1,45,-1
 476 1117 l 1,46,-1
 476 1271 l 1,47,-1
 322 1271 l 1,44,-1
481 1271 m 1,48,-1
 481 1117 l 1,49,-1
 635 1117 l 1,50,-1
 635 1271 l 1,51,-1
 481 1271 l 1,48,-1
639 1271 m 1,52,-1
 639 1117 l 1,53,-1
 794 1117 l 1,54,-1
 794 1271 l 1,55,-1
 639 1271 l 1,52,-1
798 1271 m 1,56,-1
 798 1117 l 1,57,-1
 952 1117 l 1,58,-1
 952 1271 l 1,59,-1
 798 1271 l 1,56,-1
957 1271 m 1,60,-1
 957 1117 l 1,61,-1
 1111 1117 l 1,62,-1
 1111 1271 l 1,63,-1
 957 1271 l 1,60,-1
1116 1271 m 1,64,-1
 1116 1117 l 1,65,-1
 1270 1117 l 1,66,-1
 1270 1271 l 1,67,-1
 1116 1271 l 1,64,-1
491 1261 m 1,68,-1
 625 1261 l 1,69,-1
 625 1127 l 1,70,-1
 491 1127 l 1,71,-1
 491 1261 l 1,68,-1
650 1261 m 1,72,-1
 783 1261 l 1,73,-1
 783 1127 l 1,74,-1
 650 1127 l 1,75,-1
 650 1261 l 1,72,-1
809 1261 m 1,76,-1
 942 1261 l 1,77,-1
 942 1127 l 1,78,-1
 809 1127 l 1,79,-1
 809 1261 l 1,76,-1
4 1112 m 1,80,-1
 4 957 l 1,81,-1
 159 957 l 1,82,-1
 159 1112 l 1,83,-1
 4 1112 l 1,80,-1
163 1112 m 1,84,-1
 163 957 l 1,85,-1
 317 957 l 1,86,-1
 317 1112 l 1,87,-1
 163 1112 l 1,84,-1
322 1112 m 1,88,-1
 322 957 l 1,89,-1
 476 957 l 1,90,-1
 476 1112 l 1,91,-1
 322 1112 l 1,88,-1
481 1112 m 1,92,-1
 481 957 l 1,93,-1
 635 957 l 1,94,-1
 635 1112 l 1,95,-1
 481 1112 l 1,92,-1
639 1112 m 1,96,-1
 639 957 l 1,97,-1
 794 957 l 1,98,-1
 794 1112 l 1,99,-1
 639 1112 l 1,96,-1
798 1112 m 1,100,-1
 798 957 l 1,101,-1
 952 957 l 1,102,-1
 952 1112 l 1,103,-1
 798 1112 l 1,100,-1
957 1112 m 1,104,-1
 957 957 l 1,105,-1
 1111 957 l 1,106,-1
 1111 1112 l 1,107,-1
 957 1112 l 1,104,-1
1116 1112 m 1,108,-1
 1116 957 l 1,109,-1
 1270 957 l 1,110,-1
 1270 1112 l 1,111,-1
 1116 1112 l 1,108,-1
333 1101 m 1,112,-1
 465 1101 l 1,113,-1
 465 968 l 1,114,-1
 333 968 l 1,115,-1
 333 1101 l 1,112,-1
491 1101 m 1,116,-1
 625 1101 l 1,117,-1
 625 968 l 1,118,-1
 491 968 l 1,119,-1
 491 1101 l 1,116,-1
650 1101 m 1,120,-1
 783 1101 l 1,121,-1
 783 968 l 1,122,-1
 650 968 l 1,123,-1
 650 1101 l 1,120,-1
809 1101 m 1,124,-1
 942 1101 l 1,125,-1
 942 968 l 1,126,-1
 809 968 l 1,127,-1
 809 1101 l 1,124,-1
4 953 m 1,128,-1
 4 799 l 1,129,-1
 159 799 l 1,130,-1
 159 953 l 1,131,-1
 4 953 l 1,128,-1
163 953 m 1,132,-1
 163 799 l 1,133,-1
 317 799 l 1,134,-1
 317 953 l 1,135,-1
 163 953 l 1,132,-1
322 953 m 1,136,-1
 322 799 l 1,137,-1
 476 799 l 1,138,-1
 476 953 l 1,139,-1
 322 953 l 1,136,-1
481 953 m 1,140,-1
 481 799 l 1,141,-1
 635 799 l 1,142,-1
 635 953 l 1,143,-1
 481 953 l 1,140,-1
639 953 m 1,144,-1
 639 799 l 1,145,-1
 794 799 l 1,146,-1
 794 953 l 1,147,-1
 639 953 l 1,144,-1
798 953 m 1,148,-1
 798 799 l 1,149,-1
 952 799 l 1,150,-1
 952 953 l 1,151,-1
 798 953 l 1,148,-1
957 953 m 1,152,-1
 957 799 l 1,153,-1
 1111 799 l 1,154,-1
 1111 953 l 1,155,-1
 957 953 l 1,152,-1
1116 953 m 1,156,-1
 1116 799 l 1,157,-1
 1270 799 l 1,158,-1
 1270 953 l 1,159,-1
 1116 953 l 1,156,-1
173 943 m 1,160,-1
 307 943 l 1,161,-1
 307 809 l 1,162,-1
 173 809 l 1,163,-1
 173 943 l 1,160,-1
333 943 m 1,164,-1
 465 943 l 1,165,-1
 465 809 l 1,166,-1
 333 809 l 1,167,-1
 333 943 l 1,164,-1
650 943 m 1,168,-1
 783 943 l 1,169,-1
 783 809 l 1,170,-1
 650 809 l 1,171,-1
 650 943 l 1,168,-1
809 943 m 1,172,-1
 942 943 l 1,173,-1
 942 809 l 1,174,-1
 809 809 l 1,175,-1
 809 943 l 1,172,-1
4 795 m 1,176,-1
 4 639 l 1,177,-1
 159 639 l 1,178,-1
 159 795 l 1,179,-1
 4 795 l 1,176,-1
163 795 m 1,180,-1
 163 639 l 1,181,-1
 317 639 l 1,182,-1
 317 795 l 1,183,-1
 163 795 l 1,180,-1
322 795 m 1,184,-1
 322 639 l 1,185,-1
 476 639 l 1,186,-1
 476 795 l 1,187,-1
 322 795 l 1,184,-1
481 795 m 1,188,-1
 481 639 l 1,189,-1
 635 639 l 1,190,-1
 635 795 l 1,191,-1
 481 795 l 1,188,-1
639 795 m 1,192,-1
 639 639 l 1,193,-1
 794 639 l 1,194,-1
 794 795 l 1,195,-1
 639 795 l 1,192,-1
798 795 m 1,196,-1
 798 639 l 1,197,-1
 952 639 l 1,198,-1
 952 795 l 1,199,-1
 798 795 l 1,196,-1
957 795 m 1,200,-1
 957 639 l 1,201,-1
 1111 639 l 1,202,-1
 1111 795 l 1,203,-1
 957 795 l 1,200,-1
1116 795 m 1,204,-1
 1116 639 l 1,205,-1
 1270 639 l 1,206,-1
 1270 795 l 1,207,-1
 1116 795 l 1,204,-1
15 783 m 1,208,-1
 148 783 l 1,209,-1
 148 651 l 1,210,-1
 15 651 l 1,211,-1
 15 783 l 1,208,-1
173 783 m 1,212,-1
 307 783 l 1,213,-1
 307 651 l 1,214,-1
 173 651 l 1,215,-1
 173 783 l 1,212,-1
650 783 m 1,216,-1
 783 783 l 1,217,-1
 783 651 l 1,218,-1
 650 651 l 1,219,-1
 650 783 l 1,216,-1
809 783 m 1,220,-1
 942 783 l 1,221,-1
 942 651 l 1,222,-1
 809 651 l 1,223,-1
 809 783 l 1,220,-1
4 635 m 1,224,-1
 4 481 l 1,225,-1
 159 481 l 1,226,-1
 159 635 l 1,227,-1
 4 635 l 1,224,-1
163 635 m 1,228,-1
 163 481 l 1,229,-1
 317 481 l 1,230,-1
 317 635 l 1,231,-1
 163 635 l 1,228,-1
322 635 m 1,232,-1
 322 481 l 1,233,-1
 476 481 l 1,234,-1
 476 635 l 1,235,-1
 322 635 l 1,232,-1
481 635 m 1,236,-1
 481 481 l 1,237,-1
 635 481 l 1,238,-1
 635 635 l 1,239,-1
 481 635 l 1,236,-1
639 635 m 1,240,-1
 639 481 l 1,241,-1
 794 481 l 1,242,-1
 794 635 l 1,243,-1
 639 635 l 1,240,-1
798 635 m 1,244,-1
 798 481 l 1,245,-1
 952 481 l 1,246,-1
 952 635 l 1,247,-1
 798 635 l 1,244,-1
957 635 m 1,248,-1
 957 481 l 1,249,-1
 1111 481 l 1,250,-1
 1111 635 l 1,251,-1
 957 635 l 1,248,-1
1116 635 m 1,252,-1
 1116 481 l 1,253,-1
 1270 481 l 1,254,-1
 1270 635 l 1,255,-1
 1116 635 l 1,252,-1
15 625 m 1,256,-1
 148 625 l 1,257,-1
 148 491 l 1,258,-1
 15 491 l 1,259,-1
 15 625 l 1,256,-1
173 625 m 1,260,-1
 307 625 l 1,261,-1
 307 491 l 1,262,-1
 173 491 l 1,263,-1
 173 625 l 1,260,-1
333 625 m 1,264,-1
 465 625 l 1,265,-1
 465 491 l 1,266,-1
 333 491 l 1,267,-1
 333 625 l 1,264,-1
491 625 m 1,268,-1
 625 625 l 1,269,-1
 625 491 l 1,270,-1
 491 491 l 1,271,-1
 491 625 l 1,268,-1
650 625 m 1,272,-1
 783 625 l 1,273,-1
 783 491 l 1,274,-1
 650 491 l 1,275,-1
 650 625 l 1,272,-1
809 625 m 1,276,-1
 942 625 l 1,277,-1
 942 491 l 1,278,-1
 809 491 l 1,279,-1
 809 625 l 1,276,-1
968 625 m 1,280,-1
 1101 625 l 1,281,-1
 1101 491 l 1,282,-1
 968 491 l 1,283,-1
 968 625 l 1,280,-1
4 477 m 1,284,-1
 4 322 l 1,285,-1
 159 322 l 1,286,-1
 159 477 l 1,287,-1
 4 477 l 1,284,-1
163 477 m 1,288,-1
 163 322 l 1,289,-1
 317 322 l 1,290,-1
 317 477 l 1,291,-1
 163 477 l 1,288,-1
322 477 m 1,292,-1
 322 322 l 1,293,-1
 476 322 l 1,294,-1
 476 477 l 1,295,-1
 322 477 l 1,292,-1
481 477 m 1,296,-1
 481 322 l 1,297,-1
 635 322 l 1,298,-1
 635 477 l 1,299,-1
 481 477 l 1,296,-1
639 477 m 1,300,-1
 639 322 l 1,301,-1
 794 322 l 1,302,-1
 794 477 l 1,303,-1
 639 477 l 1,300,-1
798 477 m 1,304,-1
 798 322 l 1,305,-1
 952 322 l 1,306,-1
 952 477 l 1,307,-1
 798 477 l 1,304,-1
957 477 m 1,308,-1
 957 322 l 1,309,-1
 1111 322 l 1,310,-1
 1111 477 l 1,311,-1
 957 477 l 1,308,-1
1116 477 m 1,312,-1
 1116 322 l 1,313,-1
 1270 322 l 1,314,-1
 1270 477 l 1,315,-1
 1116 477 l 1,312,-1
650 466 m 1,316,-1
 783 466 l 1,317,-1
 783 333 l 1,318,-1
 650 333 l 1,319,-1
 650 466 l 1,316,-1
809 466 m 1,320,-1
 942 466 l 1,321,-1
 942 333 l 1,322,-1
 809 333 l 1,323,-1
 809 466 l 1,320,-1
4 317 m 1,324,-1
 4 163 l 1,325,-1
 159 163 l 1,326,-1
 159 317 l 1,327,-1
 4 317 l 1,324,-1
163 317 m 1,328,-1
 163 163 l 1,329,-1
 317 163 l 1,330,-1
 317 317 l 1,331,-1
 163 317 l 1,328,-1
322 317 m 1,332,-1
 322 163 l 1,333,-1
 476 163 l 1,334,-1
 476 317 l 1,335,-1
 322 317 l 1,332,-1
481 317 m 1,336,-1
 481 163 l 1,337,-1
 635 163 l 1,338,-1
 635 317 l 1,339,-1
 481 317 l 1,336,-1
639 317 m 1,340,-1
 639 163 l 1,341,-1
 794 163 l 1,342,-1
 794 317 l 1,343,-1
 639 317 l 1,340,-1
798 317 m 1,344,-1
 798 163 l 1,345,-1
 952 163 l 1,346,-1
 952 317 l 1,347,-1
 798 317 l 1,344,-1
957 317 m 1,348,-1
 957 163 l 1,349,-1
 1111 163 l 1,350,-1
 1111 317 l 1,351,-1
 957 317 l 1,348,-1
1116 317 m 1,352,-1
 1116 163 l 1,353,-1
 1270 163 l 1,354,-1
 1270 317 l 1,355,-1
 1116 317 l 1,352,-1
650 307 m 1,356,-1
 783 307 l 1,357,-1
 783 173 l 1,358,-1
 650 173 l 1,359,-1
 650 307 l 1,356,-1
809 307 m 1,360,-1
 942 307 l 1,361,-1
 942 173 l 1,362,-1
 809 173 l 1,363,-1
 809 307 l 1,360,-1
4 159 m 1,364,-1
 4 4 l 1,365,-1
 159 4 l 1,366,-1
 159 159 l 1,367,-1
 4 159 l 1,364,-1
163 159 m 1,368,-1
 163 4 l 1,369,-1
 317 4 l 1,370,-1
 317 159 l 1,371,-1
 163 159 l 1,368,-1
322 159 m 1,372,-1
 322 4 l 1,373,-1
 476 4 l 1,374,-1
 476 159 l 1,375,-1
 322 159 l 1,372,-1
481 159 m 1,376,-1
 481 4 l 1,377,-1
 635 4 l 1,378,-1
 635 159 l 1,379,-1
 481 159 l 1,376,-1
639 159 m 1,380,-1
 639 4 l 1,381,-1
 794 4 l 1,382,-1
 794 159 l 1,383,-1
 639 159 l 1,380,-1
798 159 m 1,384,-1
 798 4 l 1,385,-1
 952 4 l 1,386,-1
 952 159 l 1,387,-1
 798 159 l 1,384,-1
957 159 m 1,388,-1
 957 4 l 1,389,-1
 1111 4 l 1,390,-1
 1111 159 l 1,391,-1
 957 159 l 1,388,-1
1116 159 m 1,392,-1
 1116 4 l 1,393,-1
 1270 4 l 1,394,-1
 1270 159 l 1,395,-1
 1116 159 l 1,392,-1
EndSplineSet
EndChar

StartChar: five
Encoding: 53 53 24
Width: 1270
Flags: W
LayerCount: 2
Fore
SplineSet
0 1435 m 1,0,-1
 1276 1435 l 1,1,-1
 1276 0 l 1,2,-1
 0 0 l 1,3,-1
 0 1435 l 1,0,-1
4 1431 m 1,4,-1
 4 1277 l 1,5,-1
 159 1277 l 1,6,-1
 159 1431 l 1,7,-1
 4 1431 l 1,4,-1
163 1431 m 1,8,-1
 163 1277 l 1,9,-1
 317 1277 l 1,10,-1
 317 1431 l 1,11,-1
 163 1431 l 1,8,-1
323 1431 m 1,12,-1
 323 1277 l 1,13,-1
 477 1277 l 1,14,-1
 477 1431 l 1,15,-1
 323 1431 l 1,12,-1
481 1431 m 1,16,-1
 481 1277 l 1,17,-1
 636 1277 l 1,18,-1
 636 1431 l 1,19,-1
 481 1431 l 1,16,-1
640 1431 m 1,20,-1
 640 1277 l 1,21,-1
 795 1277 l 1,22,-1
 795 1431 l 1,23,-1
 640 1431 l 1,20,-1
799 1431 m 1,24,-1
 799 1277 l 1,25,-1
 953 1277 l 1,26,-1
 953 1431 l 1,27,-1
 799 1431 l 1,24,-1
958 1431 m 1,28,-1
 958 1277 l 1,29,-1
 1113 1277 l 1,30,-1
 1113 1431 l 1,31,-1
 958 1431 l 1,28,-1
1117 1431 m 1,32,-1
 1117 1277 l 1,33,-1
 1272 1277 l 1,34,-1
 1272 1431 l 1,35,-1
 1117 1431 l 1,32,-1
4 1272 m 1,36,-1
 4 1118 l 1,37,-1
 159 1118 l 1,38,-1
 159 1272 l 1,39,-1
 4 1272 l 1,36,-1
163 1272 m 1,40,-1
 163 1118 l 1,41,-1
 317 1118 l 1,42,-1
 317 1272 l 1,43,-1
 163 1272 l 1,40,-1
323 1272 m 1,44,-1
 323 1118 l 1,45,-1
 477 1118 l 1,46,-1
 477 1272 l 1,47,-1
 323 1272 l 1,44,-1
481 1272 m 1,48,-1
 481 1118 l 1,49,-1
 636 1118 l 1,50,-1
 636 1272 l 1,51,-1
 481 1272 l 1,48,-1
640 1272 m 1,52,-1
 640 1118 l 1,53,-1
 795 1118 l 1,54,-1
 795 1272 l 1,55,-1
 640 1272 l 1,52,-1
799 1272 m 1,56,-1
 799 1118 l 1,57,-1
 953 1118 l 1,58,-1
 953 1272 l 1,59,-1
 799 1272 l 1,56,-1
958 1272 m 1,60,-1
 958 1118 l 1,61,-1
 1113 1118 l 1,62,-1
 1113 1272 l 1,63,-1
 958 1272 l 1,60,-1
1117 1272 m 1,64,-1
 1117 1118 l 1,65,-1
 1272 1118 l 1,66,-1
 1272 1272 l 1,67,-1
 1117 1272 l 1,64,-1
15 1262 m 1,68,-1
 148 1262 l 1,69,-1
 148 1128 l 1,70,-1
 15 1128 l 1,71,-1
 15 1262 l 1,68,-1
175 1262 m 2,72,-1
 307 1262 l 1,73,-1
 307 1128 l 1,74,-1
 173 1128 l 1,75,-1
 173 1260 l 2,76,77
 174 1262 174 1262 175 1262 c 2,72,-1
333 1262 m 1,78,-1
 466 1262 l 1,79,-1
 466 1128 l 1,80,-1
 333 1128 l 1,81,-1
 333 1262 l 1,78,-1
492 1262 m 1,82,-1
 625 1262 l 1,83,-1
 625 1128 l 1,84,-1
 492 1128 l 1,85,-1
 492 1262 l 1,82,-1
651 1262 m 1,86,-1
 784 1262 l 1,87,-1
 784 1128 l 1,88,-1
 651 1128 l 1,89,-1
 651 1262 l 1,86,-1
810 1262 m 1,90,-1
 943 1262 l 1,91,-1
 943 1128 l 1,92,-1
 810 1128 l 1,93,-1
 810 1262 l 1,90,-1
4 1113 m 1,94,-1
 4 958 l 1,95,-1
 159 958 l 1,96,-1
 159 1113 l 1,97,-1
 4 1113 l 1,94,-1
163 1113 m 1,98,-1
 163 958 l 1,99,-1
 317 958 l 1,100,-1
 317 1113 l 1,101,-1
 163 1113 l 1,98,-1
323 1113 m 1,102,-1
 323 958 l 1,103,-1
 477 958 l 1,104,-1
 477 1113 l 1,105,-1
 323 1113 l 1,102,-1
481 1113 m 1,106,-1
 481 958 l 1,107,-1
 636 958 l 1,108,-1
 636 1113 l 1,109,-1
 481 1113 l 1,106,-1
640 1113 m 1,110,-1
 640 958 l 1,111,-1
 795 958 l 1,112,-1
 795 1113 l 1,113,-1
 640 1113 l 1,110,-1
799 1113 m 1,114,-1
 799 958 l 1,115,-1
 953 958 l 1,116,-1
 953 1113 l 1,117,-1
 799 1113 l 1,114,-1
958 1113 m 1,118,-1
 958 958 l 1,119,-1
 1113 958 l 1,120,-1
 1113 1113 l 1,121,-1
 958 1113 l 1,118,-1
1117 1113 m 1,122,-1
 1117 958 l 1,123,-1
 1272 958 l 1,124,-1
 1272 1113 l 1,125,-1
 1117 1113 l 1,122,-1
15 1102 m 1,126,-1
 148 1102 l 1,127,-1
 148 969 l 1,128,-1
 15 969 l 1,129,-1
 15 1102 l 1,126,-1
173 1102 m 1,130,-1
 307 1102 l 1,131,-1
 307 969 l 1,132,-1
 173 969 l 1,133,-1
 173 1102 l 1,130,-1
4 954 m 1,134,-1
 4 800 l 1,135,-1
 159 800 l 1,136,-1
 159 954 l 1,137,-1
 4 954 l 1,134,-1
163 954 m 1,138,-1
 163 800 l 1,139,-1
 317 800 l 1,140,-1
 317 954 l 1,141,-1
 163 954 l 1,138,-1
323 954 m 1,142,-1
 323 800 l 1,143,-1
 477 800 l 1,144,-1
 477 954 l 1,145,-1
 323 954 l 1,142,-1
481 954 m 1,146,-1
 481 800 l 1,147,-1
 636 800 l 1,148,-1
 636 954 l 1,149,-1
 481 954 l 1,146,-1
640 954 m 1,150,-1
 640 800 l 1,151,-1
 795 800 l 1,152,-1
 795 954 l 1,153,-1
 640 954 l 1,150,-1
799 954 m 1,154,-1
 799 800 l 1,155,-1
 953 800 l 1,156,-1
 953 954 l 1,157,-1
 799 954 l 1,154,-1
958 954 m 1,158,-1
 958 800 l 1,159,-1
 1113 800 l 1,160,-1
 1113 954 l 1,161,-1
 958 954 l 1,158,-1
1117 954 m 1,162,-1
 1117 800 l 1,163,-1
 1272 800 l 1,164,-1
 1272 954 l 1,165,-1
 1117 954 l 1,162,-1
15 944 m 1,166,-1
 148 944 l 1,167,-1
 148 810 l 1,168,-1
 15 810 l 1,169,-1
 15 944 l 1,166,-1
173 944 m 1,170,-1
 307 944 l 1,171,-1
 307 810 l 1,172,-1
 173 810 l 1,173,-1
 173 944 l 1,170,-1
333 944 m 1,174,-1
 466 944 l 1,175,-1
 466 810 l 1,176,-1
 333 810 l 1,177,-1
 333 944 l 1,174,-1
492 944 m 1,178,-1
 625 944 l 1,179,-1
 625 810 l 1,180,-1
 492 810 l 1,181,-1
 492 944 l 1,178,-1
651 944 m 1,182,-1
 784 944 l 1,183,-1
 784 810 l 1,184,-1
 651 810 l 1,185,-1
 651 944 l 1,182,-1
810 944 m 1,186,-1
 943 944 l 1,187,-1
 943 810 l 1,188,-1
 810 810 l 1,189,-1
 810 944 l 1,186,-1
4 795 m 1,190,-1
 4 640 l 1,191,-1
 159 640 l 1,192,-1
 159 795 l 1,193,-1
 4 795 l 1,190,-1
163 795 m 1,194,-1
 163 640 l 1,195,-1
 317 640 l 1,196,-1
 317 795 l 1,197,-1
 163 795 l 1,194,-1
323 795 m 1,198,-1
 323 640 l 1,199,-1
 477 640 l 1,200,-1
 477 795 l 1,201,-1
 323 795 l 1,198,-1
481 795 m 1,202,-1
 481 640 l 1,203,-1
 636 640 l 1,204,-1
 636 795 l 1,205,-1
 481 795 l 1,202,-1
640 795 m 1,206,-1
 640 640 l 1,207,-1
 795 640 l 1,208,-1
 795 795 l 1,209,-1
 640 795 l 1,206,-1
799 795 m 1,210,-1
 799 640 l 1,211,-1
 953 640 l 1,212,-1
 953 795 l 1,213,-1
 799 795 l 1,210,-1
958 795 m 1,214,-1
 958 640 l 1,215,-1
 1113 640 l 1,216,-1
 1113 795 l 1,217,-1
 958 795 l 1,214,-1
1117 795 m 1,218,-1
 1117 640 l 1,219,-1
 1272 640 l 1,220,-1
 1272 795 l 1,221,-1
 1117 795 l 1,218,-1
810 784 m 1,222,-1
 943 784 l 1,223,-1
 943 651 l 1,224,-1
 810 651 l 1,225,-1
 810 784 l 1,222,-1
969 784 m 1,226,-1
 1102 784 l 1,227,-1
 1102 651 l 1,228,-1
 969 651 l 1,229,-1
 969 784 l 1,226,-1
4 636 m 1,230,-1
 4 481 l 1,231,-1
 159 481 l 1,232,-1
 159 636 l 1,233,-1
 4 636 l 1,230,-1
163 636 m 1,234,-1
 163 481 l 1,235,-1
 317 481 l 1,236,-1
 317 636 l 1,237,-1
 163 636 l 1,234,-1
323 636 m 1,238,-1
 323 481 l 1,239,-1
 477 481 l 1,240,-1
 477 636 l 1,241,-1
 323 636 l 1,238,-1
481 636 m 1,242,-1
 481 481 l 1,243,-1
 636 481 l 1,244,-1
 636 636 l 1,245,-1
 481 636 l 1,242,-1
640 636 m 1,246,-1
 640 481 l 1,247,-1
 795 481 l 1,248,-1
 795 636 l 1,249,-1
 640 636 l 1,246,-1
799 636 m 1,250,-1
 799 481 l 1,251,-1
 953 481 l 1,252,-1
 953 636 l 1,253,-1
 799 636 l 1,250,-1
958 636 m 1,254,-1
 958 481 l 1,255,-1
 1113 481 l 1,256,-1
 1113 636 l 1,257,-1
 958 636 l 1,254,-1
1117 636 m 1,258,-1
 1117 481 l 1,259,-1
 1272 481 l 1,260,-1
 1272 636 l 1,261,-1
 1117 636 l 1,258,-1
810 625 m 1,262,-1
 943 625 l 1,263,-1
 943 492 l 1,264,-1
 810 492 l 1,265,-1
 810 625 l 1,262,-1
969 625 m 1,266,-1
 1102 625 l 1,267,-1
 1102 492 l 1,268,-1
 969 492 l 1,269,-1
 969 625 l 1,266,-1
4 477 m 1,270,-1
 4 323 l 1,271,-1
 159 323 l 1,272,-1
 159 477 l 1,273,-1
 4 477 l 1,270,-1
163 477 m 1,274,-1
 163 323 l 1,275,-1
 317 323 l 1,276,-1
 317 477 l 1,277,-1
 163 477 l 1,274,-1
323 477 m 1,278,-1
 323 323 l 1,279,-1
 477 323 l 1,280,-1
 477 477 l 1,281,-1
 323 477 l 1,278,-1
481 477 m 1,282,-1
 481 323 l 1,283,-1
 636 323 l 1,284,-1
 636 477 l 1,285,-1
 481 477 l 1,282,-1
640 477 m 1,286,-1
 640 323 l 1,287,-1
 795 323 l 1,288,-1
 795 477 l 1,289,-1
 640 477 l 1,286,-1
799 477 m 1,290,-1
 799 323 l 1,291,-1
 953 323 l 1,292,-1
 953 477 l 1,293,-1
 799 477 l 1,290,-1
958 477 m 1,294,-1
 958 323 l 1,295,-1
 1113 323 l 1,296,-1
 1113 477 l 1,297,-1
 958 477 l 1,294,-1
1117 477 m 1,298,-1
 1117 323 l 1,299,-1
 1272 323 l 1,300,-1
 1272 477 l 1,301,-1
 1117 477 l 1,298,-1
15 467 m 1,302,-1
 148 467 l 1,303,-1
 148 333 l 1,304,-1
 15 333 l 1,305,-1
 15 467 l 1,302,-1
173 467 m 1,306,-1
 307 467 l 1,307,-1
 307 333 l 1,308,-1
 173 333 l 1,309,-1
 173 467 l 1,306,-1
810 467 m 1,310,-1
 943 467 l 1,311,-1
 943 333 l 1,312,-1
 810 333 l 1,313,-1
 810 467 l 1,310,-1
969 467 m 1,314,-1
 1102 467 l 1,315,-1
 1102 333 l 1,316,-1
 969 333 l 1,317,-1
 969 467 l 1,314,-1
4 317 m 1,318,-1
 4 163 l 1,319,-1
 159 163 l 1,320,-1
 159 317 l 1,321,-1
 4 317 l 1,318,-1
163 317 m 1,322,-1
 163 163 l 1,323,-1
 317 163 l 1,324,-1
 317 317 l 1,325,-1
 163 317 l 1,322,-1
323 317 m 1,326,-1
 323 163 l 1,327,-1
 477 163 l 1,328,-1
 477 317 l 1,329,-1
 323 317 l 1,326,-1
481 317 m 1,330,-1
 481 163 l 1,331,-1
 636 163 l 1,332,-1
 636 317 l 1,333,-1
 481 317 l 1,330,-1
640 317 m 1,334,-1
 640 163 l 1,335,-1
 795 163 l 1,336,-1
 795 317 l 1,337,-1
 640 317 l 1,334,-1
799 317 m 1,338,-1
 799 163 l 1,339,-1
 953 163 l 1,340,-1
 953 317 l 1,341,-1
 799 317 l 1,338,-1
958 317 m 1,342,-1
 958 163 l 1,343,-1
 1113 163 l 1,344,-1
 1113 317 l 1,345,-1
 958 317 l 1,342,-1
1117 317 m 1,346,-1
 1117 163 l 1,347,-1
 1272 163 l 1,348,-1
 1272 317 l 1,349,-1
 1117 317 l 1,346,-1
173 307 m 1,350,-1
 307 307 l 1,351,-1
 307 173 l 1,352,-1
 175 173 l 2,353,354
 173 173 173 173 173 175 c 2,355,-1
 173 307 l 1,350,-1
333 307 m 1,356,-1
 466 307 l 1,357,-1
 466 173 l 1,358,-1
 333 173 l 1,359,-1
 333 307 l 1,356,-1
492 307 m 1,360,-1
 625 307 l 1,361,-1
 625 173 l 1,362,-1
 492 173 l 1,363,-1
 492 307 l 1,360,-1
651 307 m 1,364,-1
 784 307 l 1,365,-1
 784 173 l 1,366,-1
 651 173 l 1,367,-1
 651 307 l 1,364,-1
810 307 m 1,368,-1
 943 307 l 1,369,-1
 943 173 l 1,370,-1
 810 173 l 1,371,-1
 810 307 l 1,368,-1
4 159 m 1,372,-1
 4 4 l 1,373,-1
 159 4 l 1,374,-1
 159 159 l 1,375,-1
 4 159 l 1,372,-1
163 159 m 1,376,-1
 163 4 l 1,377,-1
 317 4 l 1,378,-1
 317 159 l 1,379,-1
 163 159 l 1,376,-1
323 159 m 1,380,-1
 323 4 l 1,381,-1
 477 4 l 1,382,-1
 477 159 l 1,383,-1
 323 159 l 1,380,-1
481 159 m 1,384,-1
 481 4 l 1,385,-1
 636 4 l 1,386,-1
 636 159 l 1,387,-1
 481 159 l 1,384,-1
640 159 m 1,388,-1
 640 4 l 1,389,-1
 795 4 l 1,390,-1
 795 159 l 1,391,-1
 640 159 l 1,388,-1
799 159 m 1,392,-1
 799 4 l 1,393,-1
 953 4 l 1,394,-1
 953 159 l 1,395,-1
 799 159 l 1,392,-1
958 159 m 1,396,-1
 958 4 l 1,397,-1
 1113 4 l 1,398,-1
 1113 159 l 1,399,-1
 958 159 l 1,396,-1
1117 159 m 1,400,-1
 1117 4 l 1,401,-1
 1272 4 l 1,402,-1
 1272 159 l 1,403,-1
 1117 159 l 1,400,-1
EndSplineSet
EndChar

StartChar: six
Encoding: 54 54 25
Width: 1270
Flags: W
LayerCount: 2
Fore
SplineSet
0 1434 m 1,0,-1
 1274 1434 l 1,1,-1
 1274 0 l 1,2,-1
 0 0 l 1,3,-1
 0 1434 l 1,0,-1
4 1429 m 1,4,-1
 4 1275 l 1,5,-1
 159 1275 l 1,6,-1
 159 1429 l 1,7,-1
 4 1429 l 1,4,-1
163 1429 m 1,8,-1
 163 1275 l 1,9,-1
 317 1275 l 1,10,-1
 317 1429 l 1,11,-1
 163 1429 l 1,8,-1
322 1429 m 1,12,-1
 322 1275 l 1,13,-1
 476 1275 l 1,14,-1
 476 1429 l 1,15,-1
 322 1429 l 1,12,-1
481 1429 m 1,16,-1
 481 1275 l 1,17,-1
 635 1275 l 1,18,-1
 635 1429 l 1,19,-1
 481 1429 l 1,16,-1
639 1429 m 1,20,-1
 639 1275 l 1,21,-1
 794 1275 l 1,22,-1
 794 1429 l 1,23,-1
 639 1429 l 1,20,-1
798 1429 m 1,24,-1
 798 1275 l 1,25,-1
 952 1275 l 1,26,-1
 952 1429 l 1,27,-1
 798 1429 l 1,24,-1
957 1429 m 1,28,-1
 957 1275 l 1,29,-1
 1112 1275 l 1,30,-1
 1112 1429 l 1,31,-1
 957 1429 l 1,28,-1
1116 1429 m 1,32,-1
 1116 1275 l 1,33,-1
 1270 1275 l 1,34,-1
 1270 1429 l 1,35,-1
 1116 1429 l 1,32,-1
4 1271 m 1,36,-1
 4 1117 l 1,37,-1
 159 1117 l 1,38,-1
 159 1271 l 1,39,-1
 4 1271 l 1,36,-1
163 1271 m 1,40,-1
 163 1117 l 1,41,-1
 317 1117 l 1,42,-1
 317 1271 l 1,43,-1
 163 1271 l 1,40,-1
322 1271 m 1,44,-1
 322 1117 l 1,45,-1
 476 1117 l 1,46,-1
 476 1271 l 1,47,-1
 322 1271 l 1,44,-1
481 1271 m 1,48,-1
 481 1117 l 1,49,-1
 635 1117 l 1,50,-1
 635 1271 l 1,51,-1
 481 1271 l 1,48,-1
639 1271 m 1,52,-1
 639 1117 l 1,53,-1
 794 1117 l 1,54,-1
 794 1271 l 1,55,-1
 639 1271 l 1,52,-1
798 1271 m 1,56,-1
 798 1117 l 1,57,-1
 952 1117 l 1,58,-1
 952 1271 l 1,59,-1
 798 1271 l 1,56,-1
957 1271 m 1,60,-1
 957 1117 l 1,61,-1
 1112 1117 l 1,62,-1
 1112 1271 l 1,63,-1
 957 1271 l 1,60,-1
1116 1271 m 1,64,-1
 1116 1117 l 1,65,-1
 1270 1117 l 1,66,-1
 1270 1271 l 1,67,-1
 1116 1271 l 1,64,-1
333 1261 m 1,68,-1
 465 1261 l 1,69,-1
 465 1127 l 1,70,-1
 333 1127 l 1,71,-1
 333 1261 l 1,68,-1
491 1261 m 1,72,-1
 625 1261 l 1,73,-1
 625 1127 l 1,74,-1
 491 1127 l 1,75,-1
 491 1261 l 1,72,-1
650 1261 m 1,76,-1
 783 1261 l 1,77,-1
 783 1127 l 1,78,-1
 650 1127 l 1,79,-1
 650 1261 l 1,76,-1
809 1261 m 1,80,-1
 942 1261 l 1,81,-1
 942 1127 l 1,82,-1
 809 1127 l 1,83,-1
 809 1261 l 1,80,-1
4 1112 m 1,84,-1
 4 957 l 1,85,-1
 159 957 l 1,86,-1
 159 1112 l 1,87,-1
 4 1112 l 1,84,-1
163 1112 m 1,88,-1
 163 957 l 1,89,-1
 317 957 l 1,90,-1
 317 1112 l 1,91,-1
 163 1112 l 1,88,-1
322 1112 m 1,92,-1
 322 957 l 1,93,-1
 476 957 l 1,94,-1
 476 1112 l 1,95,-1
 322 1112 l 1,92,-1
481 1112 m 1,96,-1
 481 957 l 1,97,-1
 635 957 l 1,98,-1
 635 1112 l 1,99,-1
 481 1112 l 1,96,-1
639 1112 m 1,100,-1
 639 957 l 1,101,-1
 794 957 l 1,102,-1
 794 1112 l 1,103,-1
 639 1112 l 1,100,-1
798 1112 m 1,104,-1
 798 957 l 1,105,-1
 952 957 l 1,106,-1
 952 1112 l 1,107,-1
 798 1112 l 1,104,-1
957 1112 m 1,108,-1
 957 957 l 1,109,-1
 1112 957 l 1,110,-1
 1112 1112 l 1,111,-1
 957 1112 l 1,108,-1
1116 1112 m 1,112,-1
 1116 957 l 1,113,-1
 1270 957 l 1,114,-1
 1270 1112 l 1,115,-1
 1116 1112 l 1,112,-1
173 1101 m 1,116,-1
 307 1101 l 1,117,-1
 307 968 l 1,118,-1
 173 968 l 1,119,-1
 173 1101 l 1,116,-1
333 1101 m 1,120,-1
 465 1101 l 1,121,-1
 465 968 l 1,122,-1
 333 968 l 1,123,-1
 333 1101 l 1,120,-1
4 953 m 1,124,-1
 4 799 l 1,125,-1
 159 799 l 1,126,-1
 159 953 l 1,127,-1
 4 953 l 1,124,-1
163 953 m 1,128,-1
 163 799 l 1,129,-1
 317 799 l 1,130,-1
 317 953 l 1,131,-1
 163 953 l 1,128,-1
322 953 m 1,132,-1
 322 799 l 1,133,-1
 476 799 l 1,134,-1
 476 953 l 1,135,-1
 322 953 l 1,132,-1
481 953 m 1,136,-1
 481 799 l 1,137,-1
 635 799 l 1,138,-1
 635 953 l 1,139,-1
 481 953 l 1,136,-1
639 953 m 1,140,-1
 639 799 l 1,141,-1
 794 799 l 1,142,-1
 794 953 l 1,143,-1
 639 953 l 1,140,-1
798 953 m 1,144,-1
 798 799 l 1,145,-1
 952 799 l 1,146,-1
 952 953 l 1,147,-1
 798 953 l 1,144,-1
957 953 m 1,148,-1
 957 799 l 1,149,-1
 1112 799 l 1,150,-1
 1112 953 l 1,151,-1
 957 953 l 1,148,-1
1116 953 m 1,152,-1
 1116 799 l 1,153,-1
 1270 799 l 1,154,-1
 1270 953 l 1,155,-1
 1116 953 l 1,152,-1
15 943 m 1,156,-1
 148 943 l 1,157,-1
 148 809 l 1,158,-1
 15 809 l 1,159,-1
 15 943 l 1,156,-1
173 943 m 1,160,-1
 307 943 l 1,161,-1
 307 809 l 1,162,-1
 173 809 l 1,163,-1
 173 943 l 1,160,-1
4 794 m 1,164,-1
 4 639 l 1,165,-1
 159 639 l 1,166,-1
 159 794 l 1,167,-1
 4 794 l 1,164,-1
163 794 m 1,168,-1
 163 639 l 1,169,-1
 317 639 l 1,170,-1
 317 794 l 1,171,-1
 163 794 l 1,168,-1
322 794 m 1,172,-1
 322 639 l 1,173,-1
 476 639 l 1,174,-1
 476 794 l 1,175,-1
 322 794 l 1,172,-1
481 794 m 1,176,-1
 481 639 l 1,177,-1
 635 639 l 1,178,-1
 635 794 l 1,179,-1
 481 794 l 1,176,-1
639 794 m 1,180,-1
 639 639 l 1,181,-1
 794 639 l 1,182,-1
 794 794 l 1,183,-1
 639 794 l 1,180,-1
798 794 m 1,184,-1
 798 639 l 1,185,-1
 952 639 l 1,186,-1
 952 794 l 1,187,-1
 798 794 l 1,184,-1
957 794 m 1,188,-1
 957 639 l 1,189,-1
 1112 639 l 1,190,-1
 1112 794 l 1,191,-1
 957 794 l 1,188,-1
1116 794 m 1,192,-1
 1116 639 l 1,193,-1
 1270 639 l 1,194,-1
 1270 794 l 1,195,-1
 1116 794 l 1,192,-1
15 783 m 1,196,-1
 148 783 l 1,197,-1
 148 651 l 1,198,-1
 15 651 l 1,199,-1
 15 783 l 1,196,-1
173 783 m 1,200,-1
 307 783 l 1,201,-1
 307 651 l 1,202,-1
 173 651 l 1,203,-1
 173 783 l 1,200,-1
333 783 m 1,204,-1
 465 783 l 1,205,-1
 465 651 l 1,206,-1
 333 651 l 1,207,-1
 333 783 l 1,204,-1
491 783 m 1,208,-1
 625 783 l 1,209,-1
 625 651 l 1,210,-1
 491 651 l 1,211,-1
 491 783 l 1,208,-1
650 783 m 1,212,-1
 783 783 l 1,213,-1
 783 651 l 1,214,-1
 650 651 l 1,215,-1
 650 783 l 1,212,-1
809 783 m 1,216,-1
 942 783 l 1,217,-1
 942 651 l 1,218,-1
 809 651 l 1,219,-1
 809 783 l 1,216,-1
4 635 m 1,220,-1
 4 481 l 1,221,-1
 159 481 l 1,222,-1
 159 635 l 1,223,-1
 4 635 l 1,220,-1
163 635 m 1,224,-1
 163 481 l 1,225,-1
 317 481 l 1,226,-1
 317 635 l 1,227,-1
 163 635 l 1,224,-1
322 635 m 1,228,-1
 322 481 l 1,229,-1
 476 481 l 1,230,-1
 476 635 l 1,231,-1
 322 635 l 1,228,-1
481 635 m 1,232,-1
 481 481 l 1,233,-1
 635 481 l 1,234,-1
 635 635 l 1,235,-1
 481 635 l 1,232,-1
639 635 m 1,236,-1
 639 481 l 1,237,-1
 794 481 l 1,238,-1
 794 635 l 1,239,-1
 639 635 l 1,236,-1
798 635 m 1,240,-1
 798 481 l 1,241,-1
 952 481 l 1,242,-1
 952 635 l 1,243,-1
 798 635 l 1,240,-1
957 635 m 1,244,-1
 957 481 l 1,245,-1
 1112 481 l 1,246,-1
 1112 635 l 1,247,-1
 957 635 l 1,244,-1
1116 635 m 1,248,-1
 1116 481 l 1,249,-1
 1270 481 l 1,250,-1
 1270 635 l 1,251,-1
 1116 635 l 1,248,-1
15 625 m 1,252,-1
 148 625 l 1,253,-1
 148 491 l 1,254,-1
 15 491 l 1,255,-1
 15 625 l 1,252,-1
173 625 m 1,256,-1
 307 625 l 1,257,-1
 307 491 l 1,258,-1
 173 491 l 1,259,-1
 173 625 l 1,256,-1
809 625 m 1,260,-1
 942 625 l 1,261,-1
 942 491 l 1,262,-1
 809 491 l 1,263,-1
 809 625 l 1,260,-1
968 625 m 1,264,-1
 1101 625 l 1,265,-1
 1101 491 l 1,266,-1
 968 491 l 1,267,-1
 968 625 l 1,264,-1
4 476 m 1,268,-1
 4 322 l 1,269,-1
 159 322 l 1,270,-1
 159 476 l 1,271,-1
 4 476 l 1,268,-1
163 476 m 1,272,-1
 163 322 l 1,273,-1
 317 322 l 1,274,-1
 317 476 l 1,275,-1
 163 476 l 1,272,-1
322 476 m 1,276,-1
 322 322 l 1,277,-1
 476 322 l 1,278,-1
 476 476 l 1,279,-1
 322 476 l 1,276,-1
481 476 m 1,280,-1
 481 322 l 1,281,-1
 635 322 l 1,282,-1
 635 476 l 1,283,-1
 481 476 l 1,280,-1
639 476 m 1,284,-1
 639 322 l 1,285,-1
 794 322 l 1,286,-1
 794 476 l 1,287,-1
 639 476 l 1,284,-1
798 476 m 1,288,-1
 798 322 l 1,289,-1
 952 322 l 1,290,-1
 952 476 l 1,291,-1
 798 476 l 1,288,-1
957 476 m 1,292,-1
 957 322 l 1,293,-1
 1112 322 l 1,294,-1
 1112 476 l 1,295,-1
 957 476 l 1,292,-1
1116 476 m 1,296,-1
 1116 322 l 1,297,-1
 1270 322 l 1,298,-1
 1270 476 l 1,299,-1
 1116 476 l 1,296,-1
15 466 m 1,300,-1
 148 466 l 1,301,-1
 148 333 l 1,302,-1
 15 333 l 1,303,-1
 15 466 l 1,300,-1
173 466 m 1,304,-1
 307 466 l 1,305,-1
 307 333 l 1,306,-1
 173 333 l 1,307,-1
 173 466 l 1,304,-1
809 466 m 1,308,-1
 942 466 l 1,309,-1
 942 333 l 1,310,-1
 809 333 l 1,311,-1
 809 466 l 1,308,-1
968 466 m 1,312,-1
 1101 466 l 1,313,-1
 1101 333 l 1,314,-1
 968 333 l 1,315,-1
 968 466 l 1,312,-1
4 317 m 1,316,-1
 4 163 l 1,317,-1
 159 163 l 1,318,-1
 159 317 l 1,319,-1
 4 317 l 1,316,-1
163 317 m 1,320,-1
 163 163 l 1,321,-1
 317 163 l 1,322,-1
 317 317 l 1,323,-1
 163 317 l 1,320,-1
322 317 m 1,324,-1
 322 163 l 1,325,-1
 476 163 l 1,326,-1
 476 317 l 1,327,-1
 322 317 l 1,324,-1
481 317 m 1,328,-1
 481 163 l 1,329,-1
 635 163 l 1,330,-1
 635 317 l 1,331,-1
 481 317 l 1,328,-1
639 317 m 1,332,-1
 639 163 l 1,333,-1
 794 163 l 1,334,-1
 794 317 l 1,335,-1
 639 317 l 1,332,-1
798 317 m 1,336,-1
 798 163 l 1,337,-1
 952 163 l 1,338,-1
 952 317 l 1,339,-1
 798 317 l 1,336,-1
957 317 m 1,340,-1
 957 163 l 1,341,-1
 1112 163 l 1,342,-1
 1112 317 l 1,343,-1
 957 317 l 1,340,-1
1116 317 m 1,344,-1
 1116 163 l 1,345,-1
 1270 163 l 1,346,-1
 1270 317 l 1,347,-1
 1116 317 l 1,344,-1
173 307 m 1,348,-1
 307 307 l 1,349,-1
 307 173 l 1,350,-1
 175 173 l 2,351,352
 173 173 173 173 173 175 c 2,353,-1
 173 307 l 1,348,-1
333 307 m 1,354,-1
 465 307 l 1,355,-1
 465 173 l 1,356,-1
 333 173 l 1,357,-1
 333 307 l 1,354,-1
491 307 m 1,358,-1
 625 307 l 1,359,-1
 625 173 l 1,360,-1
 491 173 l 1,361,-1
 491 307 l 1,358,-1
650 307 m 1,362,-1
 783 307 l 1,363,-1
 783 173 l 1,364,-1
 650 173 l 1,365,-1
 650 307 l 1,362,-1
809 307 m 1,366,-1
 942 307 l 1,367,-1
 942 173 l 1,368,-1
 809 173 l 1,369,-1
 809 307 l 1,366,-1
4 159 m 1,370,-1
 4 4 l 1,371,-1
 159 4 l 1,372,-1
 159 159 l 1,373,-1
 4 159 l 1,370,-1
163 159 m 1,374,-1
 163 4 l 1,375,-1
 317 4 l 1,376,-1
 317 159 l 1,377,-1
 163 159 l 1,374,-1
322 159 m 1,378,-1
 322 4 l 1,379,-1
 476 4 l 1,380,-1
 476 159 l 1,381,-1
 322 159 l 1,378,-1
481 159 m 1,382,-1
 481 4 l 1,383,-1
 635 4 l 1,384,-1
 635 159 l 1,385,-1
 481 159 l 1,382,-1
639 159 m 1,386,-1
 639 4 l 1,387,-1
 794 4 l 1,388,-1
 794 159 l 1,389,-1
 639 159 l 1,386,-1
798 159 m 1,390,-1
 798 4 l 1,391,-1
 952 4 l 1,392,-1
 952 159 l 1,393,-1
 798 159 l 1,390,-1
957 159 m 1,394,-1
 957 4 l 1,395,-1
 1112 4 l 1,396,-1
 1112 159 l 1,397,-1
 957 159 l 1,394,-1
1116 159 m 1,398,-1
 1116 4 l 1,399,-1
 1270 4 l 1,400,-1
 1270 159 l 1,401,-1
 1116 159 l 1,398,-1
EndSplineSet
EndChar

